<svg width="13" height="13" viewBox="0 0 13 13" fill="none" xmlns="http://www.w3.org/2000/svg">
<path d="M6.5 0C10.0899 0 13 2.91015 13 6.5C13 10.0899 10.0899 13 6.5 13C2.91015 13 0 10.0899 0 6.5C0 2.91015 2.91015 0 6.5 0ZM4.91216 4.15847C4.70106 4.01223 4.40918 4.03312 4.22115 4.22115L4.15847 4.29617C4.01223 4.50728 4.03312 4.79915 4.22115 4.98718L5.73408 6.5L4.22115 8.01282L4.15847 8.08784C4.01223 8.29894 4.03312 8.59082 4.22115 8.77885L4.29617 8.84153C4.50728 8.98777 4.79915 8.96688 4.98718 8.77885L6.5 7.26592L8.01282 8.77885L8.08784 8.84153C8.29894 8.98777 8.59082 8.96688 8.77885 8.77885L8.84153 8.70383C8.98777 8.49272 8.96688 8.20085 8.77885 8.01282L7.26592 6.5L8.77885 4.98718L8.84153 4.91216C8.98777 4.70106 8.96688 4.40918 8.77885 4.22115L8.70383 4.15847C8.49272 4.01223 8.20085 4.03312 8.01282 4.22115L6.5 5.73408L4.98718 4.22115L4.91216 4.15847Z" fill="#212121"/>
</svg>
