<svg width="20" height="22" viewBox="0 0 20 22" fill="none" xmlns="http://www.w3.org/2000/svg">
<path d="M19.6918 15.7798C19.4762 15.3947 19.2144 15.0097 18.9217 14.6015C18.2254 13.7319 17.7427 12.7111 17.5124 11.6211L17.1889 7.07741C16.9964 3.55796 14.9402 0 10.8509 0H9.14119C5.05184 0 2.98022 3.55796 2.77229 7.06971L2.44884 11.6211C2.21957 12.7208 1.73702 13.7518 1.03951 14.6323C0.777674 15.0328 0.515833 15.4024 0.338705 15.749C0.148606 16.0041 0.0334753 16.3072 0.0062646 16.6242C-0.0209461 16.9412 0.040843 17.2596 0.184681 17.5434C0.352498 17.8414 0.599727 18.087 0.89885 18.2529C1.19797 18.4188 1.53726 18.4984 1.87895 18.4829H7.82428C7.69762 18.8319 7.65692 19.2062 7.70563 19.5742C7.75433 19.9423 7.89101 20.2932 8.10408 20.5972C8.31715 20.9012 8.60034 21.1493 8.92967 21.3207C9.25901 21.492 9.62478 21.5815 9.99602 21.5815C10.3673 21.5815 10.733 21.492 11.0624 21.3207C11.3917 21.1493 11.6749 20.9012 11.888 20.5972C12.101 20.2932 12.2377 19.9423 12.2864 19.5742C12.3351 19.2062 12.2944 18.8319 12.1678 18.4829H18.1131C18.4579 18.4954 18.7994 18.4112 19.0988 18.2397C19.3982 18.0682 19.6437 17.8163 19.8074 17.5125C19.9513 17.2416 20.0168 16.9358 19.9963 16.6297C19.9759 16.3236 19.8705 16.0292 19.6918 15.7798ZM10.7661 19.253C10.7661 19.4053 10.721 19.5542 10.6364 19.6809C10.5517 19.8075 10.4315 19.9062 10.2907 19.9645C10.15 20.0228 9.99517 20.0381 9.84578 20.0083C9.69639 19.9786 9.55917 19.9053 9.45146 19.7976C9.34376 19.6899 9.27041 19.5527 9.2407 19.4033C9.21098 19.2539 9.22623 19.099 9.28452 18.9583C9.34281 18.8176 9.44152 18.6973 9.56816 18.6127C9.69481 18.5281 9.8437 18.4829 9.99602 18.4829C10.2003 18.4829 10.3962 18.564 10.5406 18.7085C10.685 18.8529 10.7661 19.0488 10.7661 19.253ZM18.4674 16.8117C18.4674 16.8733 18.3364 16.9427 18.1439 16.9427H1.87895C1.68642 16.9427 1.5863 16.8733 1.5555 16.8117C1.52469 16.7501 1.5555 16.6654 1.63251 16.5422C1.84044 16.1879 2.07918 15.8183 2.32562 15.4486C3.09574 14.3397 3.86586 13.0767 3.98138 11.7289L4.31253 7.17753C4.47425 4.57452 5.83737 1.54024 9.14119 1.54024H10.8509C14.1547 1.54024 15.5178 4.57452 15.6795 7.18523L16.0107 11.7289C16.1031 13.0921 16.9271 14.3397 17.6972 15.4486C17.9437 15.8183 18.1824 16.2187 18.4288 16.6115C18.4534 16.6379 18.47 16.6707 18.4768 16.7061C18.4836 16.7415 18.4803 16.7781 18.4674 16.8117Z" fill="#211F2B"/>
</svg>
