<svg width="22" height="19" viewBox="0 0 22 19" fill="none" xmlns="http://www.w3.org/2000/svg">
<path d="M19.4593 14.8651C19.2547 14.8651 19.0889 15.0309 19.0889 15.2355V16.591C19.0889 17.2047 18.5914 17.7021 17.9778 17.7021H2.85185C2.2382 17.7021 1.74074 17.2047 1.74074 16.591V4.73918C1.74074 4.12553 2.2382 3.62807 2.85185 3.62807H6.48889C6.69344 3.62807 6.85926 3.46225 6.85926 3.2577C6.85926 3.05315 6.69344 2.88733 6.48889 2.88733H2.85185C1.8291 2.88733 1 3.71643 1 4.73918V16.591C1 17.6138 1.8291 18.4429 2.85185 18.4429H17.9778C18.9988 18.4388 19.8256 17.6121 19.8296 16.591V15.2355C19.8296 15.0309 19.6638 14.8651 19.4593 14.8651Z" fill="#211F2B" stroke="#211F2B" stroke-width="0.5"/>
<path d="M19.8887 8.67252H19.8294V4.73918C19.8254 3.71812 18.9987 2.89139 17.9776 2.88733C17.773 2.88733 17.6072 3.05315 17.6072 3.2577C17.6072 3.46225 17.773 3.62807 17.9776 3.62807C18.5912 3.62807 19.0887 4.12554 19.0887 4.73918V4.94659H18.6739L16.4517 2.72437L14.8368 1.10955C14.7673 1.03944 14.6726 1 14.5739 1C14.4751 1 14.3805 1.03944 14.3109 1.10955L12.3554 3.06511L10.3924 1.10955C10.2459 0.967493 10.013 0.967493 9.86648 1.10955L6.02944 4.94659H4.70352C4.49897 4.94659 4.33315 5.11241 4.33315 5.31696C4.33315 5.52151 4.49897 5.68733 4.70352 5.68733H19.0887V8.6503H16.9257C15.4939 8.6503 14.3331 9.81104 14.3331 11.2429V11.5244C14.3331 12.9562 15.4939 14.117 16.9257 14.117H19.8887C20.5023 14.117 20.9998 13.6195 20.9998 13.0059V9.78363C20.9998 9.16998 20.5023 8.67252 19.8887 8.67252ZM14.5776 1.89474L15.6517 2.96881C15.0021 3.40523 14.1531 3.40523 13.5035 2.96881L14.5776 1.89474ZM12.9776 3.49474C13.9224 4.21589 15.2328 4.21589 16.1776 3.49474L17.6591 4.97622H14.2294L12.8739 3.59104L12.9776 3.49474ZM8.68129 4.97622L10.9035 2.754L11.422 3.27252L9.71833 4.94659L8.68129 4.97622ZM11.9776 3.76881L13.222 4.94659H10.7628L11.9776 3.76881ZM10.1331 1.89474L10.4072 2.16881L7.62944 4.94659H7.08129L10.1331 1.89474ZM20.2591 13.0059C20.2591 13.2104 20.0933 13.3762 19.8887 13.3762H16.9257C16.4346 13.3762 15.9636 13.1811 15.6163 12.8338C15.269 12.4865 15.0739 12.0155 15.0739 11.5244V11.2429C15.0739 10.2201 15.903 9.39104 16.9257 9.39104H19.8887C20.0933 9.39104 20.2591 9.55686 20.2591 9.76141V13.0059Z" fill="#211F2B" stroke="#211F2B" stroke-width="0.5"/>
<path d="M16.9854 12.1466C17.3945 12.1466 17.7261 11.8149 17.7261 11.4058C17.7261 10.9967 17.3945 10.6651 16.9854 10.6651C16.5763 10.6651 16.2446 10.9967 16.2446 11.4058C16.2446 11.8149 16.5763 12.1466 16.9854 12.1466Z" fill="#211F2B" stroke="#211F2B" stroke-width="0.5"/>
</svg>
