<svg width="22" height="22" viewBox="0 0 22 22" fill="none" xmlns="http://www.w3.org/2000/svg">
<path d="M18.5001 3H15.5001V1.5C15.5001 1.22388 15.2763 1 15.0001 1C14.724 1 14.5002 1.22388 14.5002 1.5V3H7.50033V1.5C7.50033 1.22388 7.27646 1 7.00034 1C6.72423 1 6.50035 1.22388 6.50035 1.5V3H3.49994C2.11985 3.00146 1.00146 4.11987 1 5.5V18.5C1.00146 19.8801 2.11985 20.9985 3.49994 21H18.5001C19.8802 20.9987 20.9987 19.8802 21 18.5V5.5C20.9987 4.11981 19.8802 3.00128 18.5001 3ZM20 18.5C19.9991 19.3281 19.3281 19.9991 18.5001 20H3.49994C2.6719 19.9991 2.00089 19.3281 1.99998 18.5V10H20V18.5ZM20 9H1.99998V5.5C2.00089 4.67194 2.6719 4.00092 3.49994 4H6.50035V5.5C6.50035 5.50018 6.50035 5.50037 6.50035 5.50061C6.50054 5.77655 6.72435 6.00018 7.00034 6C7.00052 6 7.00071 6 7.00095 6C7.27689 5.99982 7.50051 5.776 7.50033 5.5V4H14.5002V5.5C14.5002 5.50018 14.5002 5.50037 14.5002 5.50061C14.5003 5.77655 14.7242 6.00018 15.0001 6C15.0003 6 15.0005 6 15.0008 6C15.2767 5.99982 15.5003 5.776 15.5001 5.5V4H18.5001C19.3281 4.00092 19.9991 4.67194 20 5.5V9Z" fill="#211F2B" stroke="#211F2B" stroke-width="0.5"/>
</svg>
