<svg width="22" height="23" viewBox="0 0 22 23" fill="none" xmlns="http://www.w3.org/2000/svg">
<path d="M6.23136 4.375H14.2567C14.3402 4.375 14.4204 4.34166 14.4795 4.28233C14.5386 4.22299 14.5718 4.14251 14.5718 4.05859C14.5718 3.97468 14.5386 3.8942 14.4795 3.83486C14.4204 3.77552 14.3402 3.74219 14.2567 3.74219H6.23136C6.14778 3.74219 6.06763 3.77552 6.00853 3.83486C5.94943 3.8942 5.91623 3.97468 5.91623 4.05859C5.91623 4.14251 5.94943 4.22299 6.00853 4.28233C6.06763 4.34166 6.14778 4.375 6.23136 4.375ZM6.23136 8.17188H14.2567C14.3402 8.17188 14.4204 8.13854 14.4795 8.0792C14.5386 8.01986 14.5718 7.93938 14.5718 7.85547C14.5718 7.77155 14.5386 7.69107 14.4795 7.63174C14.4204 7.5724 14.3402 7.53906 14.2567 7.53906H6.23136C6.14778 7.53906 6.06763 7.5724 6.00853 7.63174C5.94943 7.69107 5.91623 7.77155 5.91623 7.85547C5.91623 7.93938 5.94943 8.01986 6.00853 8.0792C6.06763 8.13854 6.14778 8.17188 6.23136 8.17188ZM6.23136 6.27344H14.2567C14.3402 6.27344 14.4204 6.2401 14.4795 6.18076C14.5386 6.12143 14.5718 6.04095 14.5718 5.95703C14.5718 5.87312 14.5386 5.79264 14.4795 5.7333C14.4204 5.67396 14.3402 5.64062 14.2567 5.64062H6.23136C6.14778 5.64062 6.06763 5.67396 6.00853 5.7333C5.94943 5.79264 5.91623 5.87312 5.91623 5.95703C5.91623 6.04095 5.94943 6.12143 6.00853 6.18076C6.06763 6.2401 6.14778 6.27344 6.23136 6.27344ZM20.7235 5.07586L20.2779 4.62842C20.1006 4.45042 19.8601 4.35041 19.6094 4.35041C19.3587 4.35041 19.1182 4.45042 18.9409 4.62842L17.471 6.10427V2.58203C17.4705 2.16259 17.3044 1.76047 17.009 1.46388C16.7136 1.1673 16.3131 1.00047 15.8953 1L4.59269 1C4.17494 1.00047 3.77444 1.1673 3.47905 1.46388C3.18366 1.76047 3.01751 2.16259 3.01704 2.58203V19.0141H1.31513C1.23155 19.0141 1.1514 19.0474 1.0923 19.1067C1.0332 19.1661 1 19.2466 1 19.3305V21.018C1.00047 21.4374 1.16662 21.8395 1.46201 22.1361C1.7574 22.4327 2.1579 22.5995 2.57565 22.6H15.9371C15.9486 22.6 15.96 22.5993 15.9713 22.5981C16.3754 22.578 16.7564 22.4028 17.0355 22.1088C17.3146 21.8147 17.4705 21.4242 17.471 21.018V9.68409L20.7235 6.41835C20.9006 6.24018 21 5.99878 21 5.74711C21 5.49543 20.9006 5.25403 20.7235 5.07586ZM2.57565 21.9672C2.325 21.9669 2.08471 21.8668 1.90748 21.6888C1.73024 21.5109 1.63055 21.2696 1.63026 21.018V19.6469H14.1934V20.9547C14.1932 21.3219 14.3159 21.6785 14.5419 21.9672H2.57565ZM16.8407 19.3264C16.8407 19.3278 16.8405 19.3291 16.8405 19.3305V20.9547C16.8405 21.2232 16.7343 21.4808 16.5452 21.6706C16.356 21.8605 16.0995 21.9672 15.8321 21.9672C15.5647 21.9672 15.3082 21.8605 15.119 21.6706C14.9299 21.4808 14.8237 21.2232 14.8237 20.9547V19.3305C14.8237 19.2466 14.7905 19.1661 14.7314 19.1067C14.6723 19.0474 14.5921 19.0141 14.5086 19.0141C14.5015 19.0141 14.4945 19.0147 14.4875 19.0151C14.4806 19.0147 14.4737 19.0141 14.4665 19.0141H3.6473V2.58203C3.64759 2.33037 3.74728 2.0891 3.92452 1.91115C4.10175 1.7332 4.34204 1.6331 4.59269 1.63281H15.8953C16.146 1.6331 16.3863 1.7332 16.5635 1.91115C16.7407 2.0891 16.8404 2.33037 16.8407 2.58203V6.73708L10.9999 12.6016H6.23136C6.14778 12.6016 6.06763 12.6349 6.00853 12.6942C5.94943 12.7536 5.91623 12.8341 5.91623 12.918C5.91623 13.0019 5.94943 13.0824 6.00853 13.1417C6.06763 13.201 6.14778 13.2344 6.23136 13.2344H10.3696L9.13635 14.4727C9.12815 14.481 9.12041 14.4897 9.11316 14.4989L9.11232 14.5H6.23136C6.14778 14.5 6.06763 14.5333 6.00853 14.5927C5.94943 14.652 5.91623 14.7325 5.91623 14.8164C5.91623 14.9003 5.94943 14.9808 6.00853 15.0401C6.06763 15.0995 6.14778 15.1328 6.23136 15.1328H8.88211L8.46193 16.3984H6.23136C6.14778 16.3984 6.06763 16.4318 6.00853 16.4911C5.94943 16.5504 5.91623 16.6309 5.91623 16.7148C5.91623 16.7988 5.94943 16.8792 6.00853 16.9386C6.06763 16.9979 6.14778 17.0312 6.23136 17.0312H8.58433C8.6071 17.0312 8.62979 17.0287 8.65202 17.0237C8.69855 17.03 8.74588 17.0253 8.79034 17.0102L10.7958 16.339C10.7979 16.3383 10.7998 16.3373 10.8018 16.3366C10.8206 16.3299 10.8386 16.3214 10.8558 16.3113C10.8587 16.3095 10.8617 16.3079 10.8646 16.306C10.8718 16.3014 10.8788 16.2965 10.8857 16.2913C10.8881 16.2894 10.8907 16.2877 10.8931 16.2858C10.9021 16.2785 10.9108 16.2708 10.919 16.2626L12.0442 15.1328H14.2567C14.3402 15.1328 14.4204 15.0995 14.4795 15.0401C14.5386 14.9808 14.5718 14.9003 14.5718 14.8164C14.5718 14.7325 14.5386 14.652 14.4795 14.5927C14.4204 14.5333 14.3402 14.5 14.2567 14.5H12.6745L16.8407 10.3169V19.3264ZM9.4969 15.2822L10.1128 15.9005L9.18896 16.2098L9.4969 15.2822ZM10.6962 15.5913L9.80489 14.6964L17.378 7.09259L17.3793 7.09133L18.2029 6.26437L19.0942 7.15929L10.6962 15.5913ZM20.2778 5.97087L19.5399 6.71177L18.6486 5.81684L19.3866 5.07586C19.4159 5.04647 19.4506 5.02316 19.4888 5.00726C19.5271 4.99136 19.5681 4.98317 19.6094 4.98317C19.6508 4.98317 19.6918 4.99136 19.73 5.00726C19.7682 5.02316 19.803 5.04647 19.8322 5.07586L20.2779 5.52334C20.3369 5.58272 20.3701 5.66318 20.3701 5.74706C20.3701 5.83095 20.3369 5.91141 20.2779 5.97078L20.2778 5.97087Z" fill="#211F2B" stroke="#211F2B" stroke-width="0.5"/>
</svg>
