<svg width="20" height="24" viewBox="0 0 20 24" fill="none" xmlns="http://www.w3.org/2000/svg">
<path d="M18.2716 3.20826C15.8551 2.50489 13.5179 1.55289 11.2976 0.367552C10.9075 0.127245 10.4583 0 10.0001 0C9.54186 0 9.09265 0.127245 8.70252 0.367552C6.48246 1.55274 4.14559 2.50473 1.72932 3.20826C1.21465 3.37082 0.767229 3.69718 0.455256 4.13762C0.143283 4.57806 -0.0161368 5.10842 0.00129101 5.64788L0.273643 13.8679C0.880575 17.9976 5.21179 21.4416 7.74021 23.1261C8.40905 23.5732 9.19552 23.8119 10.0001 23.8119C10.8046 23.8119 11.5911 23.5732 12.2599 23.1261C14.7883 21.4416 19.1196 17.9976 19.7346 13.7744L19.9987 5.6487C20.0163 5.10924 19.8571 4.57882 19.5453 4.13824C19.2335 3.69766 18.7862 3.37108 18.2716 3.20826ZM18.0935 13.627C17.5794 17.1263 13.6446 20.2189 11.3445 21.7518C10.9467 22.0182 10.4788 22.1604 10.0001 22.1604C9.52133 22.1604 9.05339 22.0182 8.65564 21.7518C6.35551 20.2189 2.42077 17.1256 1.91469 13.721L1.65059 5.59539C1.64458 5.41636 1.69713 5.24025 1.80025 5.09378C1.90338 4.94732 2.05146 4.83848 2.22203 4.78378C4.76827 4.04061 7.22938 3.03193 9.5648 1.77437C9.6948 1.69137 9.84583 1.64726 10.0001 1.64726C10.1543 1.64726 10.3053 1.69137 10.4353 1.77437C12.7711 3.03188 15.2326 4.04034 17.7793 4.78312C17.9497 4.83799 18.0975 4.9469 18.2005 5.09334C18.3035 5.23979 18.3559 5.41581 18.3499 5.59473L18.0935 13.627ZM11.4597 10.5119C11.4566 10.7438 11.3972 10.9716 11.2867 11.1755C11.1763 11.3795 11.0179 11.5536 10.8254 11.6829V13.93C10.8254 14.1489 10.7384 14.3588 10.5836 14.5136C10.4289 14.6684 10.219 14.7553 10.0001 14.7553C9.78118 14.7553 9.57126 14.6684 9.41649 14.5136C9.26171 14.3588 9.17476 14.1489 9.17476 13.93V11.6829C8.98219 11.5536 8.82387 11.3795 8.71339 11.1755C8.60291 10.9716 8.54355 10.7438 8.54043 10.5119C8.54043 10.1248 8.69421 9.75353 8.96795 9.47979C9.24168 9.20606 9.61295 9.05227 10.0001 9.05227C10.3872 9.05227 10.7585 9.20606 11.0322 9.47979C11.3059 9.75353 11.4597 10.1248 11.4597 10.5119Z" fill="#211F2B"/>
</svg>
