<svg width="22" height="27" viewBox="0 0 22 27" fill="none" xmlns="http://www.w3.org/2000/svg">
<path d="M1 13.5C1 13.8452 1.27985 14.125 1.625 14.125H12.6163L9.30811 17.4331C9.19092 17.5503 9.12508 17.7092 9.12508 17.8749C9.125 18.2201 9.40485 18.4999 9.75 18.5C9.91579 18.5002 10.0748 18.4343 10.1918 18.3169L14.5668 13.9419C14.5669 13.9418 14.567 13.9418 14.567 13.9417C14.811 13.6977 14.8109 13.3021 14.5668 13.0582L10.1918 8.68318C9.94966 8.44926 9.56567 8.44926 9.32344 8.68318C9.07518 8.92297 9.06831 9.31863 9.30811 9.56689L12.6163 12.875H1.625C1.27985 12.875 1 13.1548 1 13.5ZM17.875 1H4.125C2.39977 1.0016 1.0016 2.39977 1 4.125V9.125C1 9.47015 1.27985 9.75 1.625 9.75C1.97015 9.75 2.25 9.47015 2.25 9.125V4.125C2.25114 3.08992 3.08992 2.25114 4.125 2.25H17.875C18.9101 2.25114 19.7489 3.08992 19.75 4.125V22.875C19.7489 23.9101 18.9101 24.7489 17.875 24.75H4.125C3.08992 24.7489 2.25114 23.9101 2.25 22.875V17.875C2.25 17.5298 1.97015 17.25 1.625 17.25C1.27985 17.25 1 17.5298 1 17.875V22.875C1.0016 24.6002 2.39977 25.9984 4.125 26H17.875C19.6002 25.9984 20.9984 24.6002 21 22.875V4.125C20.9984 2.39977 19.6002 1.0016 17.875 1Z" fill="#211F2B" stroke="#211F2B" stroke-width="0.5"/>
</svg>
