<svg width="20" height="20" viewBox="0 0 20 20" fill="none" xmlns="http://www.w3.org/2000/svg">
<g clip-path="url(#clip0_0_292)">
<path d="M17.8571 1.42857H15V0.714286C15 0.524845 14.9247 0.343164 14.7908 0.209209C14.6568 0.0752549 14.4752 0 14.2857 0C14.0963 0 13.9146 0.0752549 13.7806 0.209209C13.6467 0.343164 13.5714 0.524845 13.5714 0.714286V1.42857H6.42857V0.714286C6.42857 0.524845 6.35332 0.343164 6.21936 0.209209C6.08541 0.0752549 5.90373 0 5.71429 0C5.52485 0 5.34316 0.0752549 5.20921 0.209209C5.07525 0.343164 5 0.524845 5 0.714286V1.42857H2.14286C1.57454 1.42857 1.02949 1.65434 0.627628 2.0562C0.225765 2.45806 0 3.00311 0 3.57143V17.8571C0 18.4255 0.225765 18.9705 0.627628 19.3724C1.02949 19.7742 1.57454 20 2.14286 20H17.8571C18.4255 20 18.9705 19.7742 19.3724 19.3724C19.7742 18.9705 20 18.4255 20 17.8571V3.57143C20 3.00311 19.7742 2.45806 19.3724 2.0562C18.9705 1.65434 18.4255 1.42857 17.8571 1.42857ZM2.14286 2.85714H5V3.57143C5 3.76087 5.07525 3.94255 5.20921 4.0765C5.34316 4.21046 5.52485 4.28571 5.71429 4.28571C5.90373 4.28571 6.08541 4.21046 6.21936 4.0765C6.35332 3.94255 6.42857 3.76087 6.42857 3.57143V2.85714H13.5714V3.57143C13.5714 3.76087 13.6467 3.94255 13.7806 4.0765C13.9146 4.21046 14.0963 4.28571 14.2857 4.28571C14.4752 4.28571 14.6568 4.21046 14.7908 4.0765C14.9247 3.94255 15 3.76087 15 3.57143V2.85714H17.8571C18.0466 2.85714 18.2283 2.9324 18.3622 3.06635C18.4962 3.20031 18.5714 3.38199 18.5714 3.57143V7.14286H1.42857V3.57143C1.42857 3.38199 1.50383 3.20031 1.63778 3.06635C1.77174 2.9324 1.95342 2.85714 2.14286 2.85714ZM17.8571 18.5714H2.14286C1.95342 18.5714 1.77174 18.4962 1.63778 18.3622C1.50383 18.2283 1.42857 18.0466 1.42857 17.8571V8.57143H18.5714V17.8571C18.5714 18.0466 18.4962 18.2283 18.3622 18.3622C18.2283 18.4962 18.0466 18.5714 17.8571 18.5714Z" fill="#83828E" stroke="#83828E" stroke-width="0.5"/>
<path d="M15.0002 11.4282H5.00017C4.81073 11.4282 4.62905 11.5035 4.4951 11.6374C4.36114 11.7714 4.28589 11.9531 4.28589 12.1425C4.28589 12.3319 4.36114 12.5136 4.4951 12.6476C4.62905 12.7815 4.81073 12.8568 5.00017 12.8568H15.0002C15.1896 12.8568 15.3713 12.7815 15.5053 12.6476C15.6392 12.5136 15.7145 12.3319 15.7145 12.1425C15.7145 11.9531 15.6392 11.7714 15.5053 11.6374C15.3713 11.5035 15.1896 11.4282 15.0002 11.4282ZM10.0002 14.2854H5.00017C4.81073 14.2854 4.62905 14.3606 4.4951 14.4946C4.36114 14.6285 4.28589 14.8102 4.28589 14.9997C4.28589 15.1891 4.36114 15.3708 4.4951 15.5047C4.62905 15.6387 4.81073 15.7139 5.00017 15.7139H10.0002C10.1896 15.7139 10.3713 15.6387 10.5053 15.5047C10.6392 15.3708 10.7145 15.1891 10.7145 14.9997C10.7145 14.8102 10.6392 14.6285 10.5053 14.4946C10.3713 14.3606 10.1896 14.2854 10.0002 14.2854Z" fill="#83828E" stroke="#83828E" stroke-width="0.5"/>
</g>
<defs>
<clipPath id="clip0_0_292">
<rect width="20" height="20" fill="white"/>
</clipPath>
</defs>
</svg>
