<svg width="25" height="25" viewBox="0 0 25 25" fill="none" xmlns="http://www.w3.org/2000/svg">
<g clip-path="url(#clip0_0_301)">
<path d="M21.8751 2.5H18.1252V0.625C18.1252 0.279846 17.8453 0 17.5002 0C17.155 0 16.8752 0.279846 16.8752 0.625V2.5H8.12541V0.625C8.12541 0.279846 7.84557 0 7.50043 0C7.15528 0 6.87544 0.279846 6.87544 0.625V2.5H3.12492C1.39981 2.50183 0.00183096 3.89984 0 5.625V21.875C0.00183096 23.6002 1.39981 24.9982 3.12492 25H21.8751C23.6003 24.9984 24.9984 23.6002 25 21.875V5.625C24.9984 3.89977 23.6003 2.5016 21.8751 2.5ZM23.75 21.875C23.7489 22.9101 22.9101 23.7489 21.8751 23.75H3.12492C2.08987 23.7489 1.25111 22.9101 1.24997 21.875V11.25H23.75V21.875ZM23.75 10H1.24997V5.625C1.25111 4.58992 2.08987 3.75114 3.12492 3.75H6.87544V5.625C6.87544 5.62523 6.87544 5.62546 6.87544 5.62576C6.87567 5.97069 7.15543 6.25023 7.50043 6.25C7.50066 6.25 7.50089 6.25 7.50119 6.25C7.84611 6.24977 8.12564 5.97 8.12541 5.625V3.75H16.8752V5.625C16.8752 5.62523 16.8752 5.62546 16.8752 5.62576C16.8754 5.97069 17.1552 6.25023 17.5002 6.25C17.5004 6.25 17.5006 6.25 17.5009 6.25C17.8459 6.24977 18.1254 5.97 18.1252 5.625V3.75H21.8751C22.9101 3.75114 23.7489 4.58992 23.75 5.625V10Z" fill="#4D478B" stroke="#4D478B" stroke-width="0.5"/>
</g>
<defs>
<clipPath id="clip0_0_301">
<rect width="25" height="25" fill="white"/>
</clipPath>
</defs>
</svg>
