<svg width="33" height="15" viewBox="0 0 33 15" fill="none" xmlns="http://www.w3.org/2000/svg">
<path d="M32.5969 12.0888L32.9223 10.1495C33.0751 9.18281 33.0018 8.18969 32.7092 7.26213C32.4166 6.33458 31.9142 5.5026 31.2485 4.84328C28.0142 1.60246 22.9623 -0.0102394 16.0905 4.89142e-05C9.23046 0.0103372 4.3318 1.63589 1.39449 4.87415C0.149781 6.24506 -0.302838 8.27958 0.204002 10.2112L0.713199 12.1506C1.18939 13.9613 2.79713 15.1728 4.47088 14.9799L7.82781 14.5966C8.52564 14.5217 9.18125 14.1974 9.6928 13.6742C10.2043 13.1509 10.5432 12.458 10.6567 11.703L11.3026 7.5774C12.9254 6.7488 14.6882 6.29686 16.4794 6.25021C18.3347 6.18848 20.0344 6.51513 21.5761 7.23274L22.6181 11.6413C22.8006 12.4158 23.195 13.1113 23.7488 13.6351C24.3026 14.159 24.9895 14.4863 25.7181 14.5735L29.0939 14.9438C29.9007 15.0431 30.712 14.803 31.3623 14.2726C32.0127 13.7422 32.4534 12.9613 32.5946 12.0888H32.5969Z" fill="#211F2B"/>
</svg>
