<svg width="22" height="16" viewBox="0 0 22 16" fill="none" xmlns="http://www.w3.org/2000/svg">
<path d="M20.8896 2.45714C20.5555 2.3008 20.1846 2.24994 19.823 2.3109C19.4614 2.37186 19.125 2.54194 18.8556 2.8L16.4918 5.08571V3.42857C16.4918 2.51926 16.1443 1.64719 15.5257 1.00421C14.9071 0.361224 14.0682 0 13.1934 0H3.29835C2.42357 0 1.58463 0.361224 0.966065 1.00421C0.347504 1.64719 0 2.51926 0 3.42857V12.5714C0 13.4807 0.347504 14.3528 0.966065 14.9958C1.58463 15.6388 2.42357 16 3.29835 16H13.1934C14.0682 16 14.9071 15.6388 15.5257 14.9958C16.1443 14.3528 16.4918 13.4807 16.4918 12.5714V10.9143L18.8666 13.2C19.2162 13.529 19.6704 13.7121 20.1419 13.7143C20.4036 13.7137 20.6622 13.6552 20.9005 13.5429C21.2248 13.4065 21.5026 13.1728 21.6985 12.8715C21.8943 12.5702 21.9993 12.215 22 11.8514V4.14857C21.9984 3.78364 21.8918 3.42756 21.6939 3.12612C21.496 2.82469 21.2159 2.59171 20.8896 2.45714Z" fill="#211F2B"/>
</svg>
