<svg width="11" height="11" viewBox="0 0 11 11" fill="none" xmlns="http://www.w3.org/2000/svg">
<g clip-path="url(#clip0_0_57)">
<path d="M8.9375 4.46875H10.3125V5.15625H8.9375V4.46875ZM7.90625 2.60769L8.87838 1.63556L9.36444 2.12162L8.39231 3.09375L7.90625 2.60769ZM7.90625 7.01731L8.39231 6.53125L9.36444 7.50337L8.87838 7.98944L7.90625 7.01731ZM5.84375 0.6875H6.53125V2.0625H5.84375V0.6875ZM6.1875 2.75C6.07226 2.75075 5.95728 2.7611 5.84375 2.78094V3.48631C5.95578 3.45542 6.0713 3.43902 6.1875 3.4375C6.55218 3.4375 6.90191 3.58237 7.15977 3.84023C7.41764 4.09809 7.5625 4.44783 7.5625 4.8125C7.5625 5.17717 7.41764 5.52691 7.15977 5.78477C6.90191 6.04263 6.55218 6.1875 6.1875 6.1875V6.875C6.73451 6.875 7.25912 6.6577 7.64591 6.27091C8.0327 5.88411 8.25 5.35951 8.25 4.8125C8.25 4.26549 8.0327 3.74089 7.64591 3.35409C7.25912 2.9673 6.73451 2.75 6.1875 2.75ZM3.4375 6.93825V2.40625H2.75V6.93825C2.52065 7.01934 2.32734 7.1789 2.20425 7.38873C2.08116 7.59856 2.03622 7.84514 2.07735 8.08491C2.11849 8.32467 2.24306 8.54217 2.42906 8.69897C2.61505 8.85577 2.85048 8.94177 3.09375 8.94177C3.33702 8.94177 3.57246 8.85577 3.75845 8.69897C3.94444 8.54217 4.06901 8.32467 4.11015 8.08491C4.15129 7.84514 4.10634 7.59856 3.98325 7.38873C3.86016 7.1789 3.66686 7.01934 3.4375 6.93825Z" fill="black"/>
<path d="M3.09374 10.3125C2.62005 10.313 2.15675 10.1736 1.76204 9.91171C1.36732 9.64982 1.05878 9.27715 0.875152 8.84049C0.691527 8.40383 0.641008 7.92265 0.729936 7.45738C0.818865 6.9921 1.04328 6.56347 1.37499 6.22531V2.40625C1.37499 1.95041 1.55608 1.51324 1.8784 1.19091C2.20073 0.868582 2.6379 0.6875 3.09374 0.6875C3.54958 0.6875 3.98676 0.868582 4.30908 1.19091C4.63141 1.51324 4.81249 1.95041 4.81249 2.40625V6.22531C5.14421 6.56347 5.36862 6.9921 5.45755 7.45738C5.54648 7.92265 5.49596 8.40383 5.31234 8.84049C5.12871 9.27715 4.82017 9.64982 4.42545 9.91171C4.03074 10.1736 3.56744 10.313 3.09374 10.3125ZM3.09374 1.375C2.82032 1.37527 2.55818 1.48401 2.36484 1.67735C2.1715 1.87069 2.06277 2.13283 2.06249 2.40625V6.52541L1.94837 6.62819C1.6888 6.86019 1.5058 7.16555 1.42359 7.50385C1.34139 7.84215 1.36386 8.19743 1.48803 8.52268C1.61219 8.84793 1.8322 9.1278 2.11893 9.32525C2.40567 9.5227 2.7456 9.62843 3.09374 9.62843C3.44189 9.62843 3.78182 9.5227 4.06855 9.32525C4.35529 9.1278 4.5753 8.84793 4.69946 8.52268C4.82363 8.19743 4.8461 7.84215 4.76389 7.50385C4.68169 7.16555 4.49869 6.86019 4.23912 6.62819L4.12499 6.52541V2.40625C4.12472 2.13283 4.01598 1.87069 3.82265 1.67735C3.62931 1.48401 3.36716 1.37527 3.09374 1.375Z" fill="black"/>
</g>
<defs>
<clipPath id="clip0_0_57">
<rect width="11" height="11" fill="white"/>
</clipPath>
</defs>
</svg>
