<svg width="20" height="20" viewBox="0 0 20 20" fill="none" xmlns="http://www.w3.org/2000/svg">
<path fill-rule="evenodd" clip-rule="evenodd" d="M7.36585 9.02439C7.36585 7.54265 8.56702 6.34146 10.0488 6.34146C11.5305 6.34146 12.7317 7.54265 12.7317 9.02439C12.7317 10.5061 11.5305 11.7073 10.0488 11.7073C8.56702 11.7073 7.36585 10.5061 7.36585 9.02439ZM10.0488 7.80488C9.37522 7.80488 8.82927 8.35083 8.82927 9.02439C8.82927 9.69795 9.37522 10.2439 10.0488 10.2439C10.7223 10.2439 11.2683 9.69795 11.2683 9.02439C11.2683 8.35083 10.7223 7.80488 10.0488 7.80488Z" fill="#83828E"/>
<path d="M7.36585 15.8803C7.36585 15.0362 7.9254 14.2945 8.73698 14.0626C9.59434 13.8176 10.5032 13.8176 11.3606 14.0626C12.1722 14.2945 12.7317 15.0362 12.7317 15.8803V16.3414C12.7317 16.7455 13.0593 17.0731 13.4634 17.0731C13.8675 17.0731 14.1951 16.7455 14.1951 16.3414V15.8803C14.1951 14.3829 13.2024 13.0669 11.7626 12.6554C10.6424 12.3354 9.45512 12.3354 8.33493 12.6554C6.89512 13.0669 5.90244 14.3829 5.90244 15.8803V16.3414C5.90244 16.7455 6.23004 17.0731 6.63415 17.0731C7.03825 17.0731 7.36585 16.7455 7.36585 16.3414V15.8803Z" fill="#83828E"/>
<path fill-rule="evenodd" clip-rule="evenodd" d="M9.28488 1.99388e-06C8.97005 -2.72744e-05 8.68107 -4.68005e-05 8.44156 0.0243142C8.18166 0.0507532 7.90014 0.111807 7.63683 0.287739C7.45041 0.412304 7.29035 0.572363 7.16579 0.758792C6.98985 1.02209 6.9288 1.30358 6.90236 1.56348C6.89021 1.68288 6.88413 1.81457 6.88108 1.95563C6.29362 1.96283 5.78348 1.98174 5.34265 2.03144C4.60678 2.11439 3.97408 2.29081 3.43137 2.70725C3.17771 2.90188 2.95066 3.12893 2.75603 3.38259C2.33959 3.9253 2.16317 4.558 2.08021 5.29387C1.99998 6.00556 1.99999 6.8979 2 8.00462V13.4682C1.99998 14.8024 1.99996 15.8779 2.11368 16.7237C2.23175 17.6019 2.48432 18.3412 3.07156 18.9285C3.6588 19.5157 4.39819 19.7683 5.27634 19.8863C6.12217 20 7.1976 20 8.5318 20H11.5658C12.9 20 13.9754 20 14.8213 19.8863C15.6994 19.7683 16.4387 19.5157 17.026 18.9285C17.6133 18.3412 17.8659 17.6019 17.9839 16.7237C18.0976 15.8779 18.0976 14.8024 18.0976 13.4682V8.00468C18.0976 6.89797 18.0976 6.00556 18.0174 5.29387C17.9344 4.558 17.7579 3.9253 17.3416 3.38259C17.1469 3.12893 16.9199 2.90188 16.6662 2.70725C16.1235 2.29081 15.4908 2.11439 14.7549 2.03144C14.314 1.98174 13.8039 1.96283 13.2165 1.95563C13.2135 1.81457 13.2073 1.68288 13.1952 1.56348C13.1688 1.30358 13.1077 1.02209 12.9318 0.758792C12.8072 0.572363 12.6471 0.412304 12.4607 0.287739C12.1975 0.111807 11.9159 0.0507532 11.656 0.0243142C11.4165 -4.68005e-05 11.1275 -2.72744e-05 10.8127 1.99388e-06H9.28488ZM13.1827 3.41885C13.7504 3.42546 14.207 3.44235 14.5909 3.48564C15.1963 3.55388 15.5299 3.67987 15.7753 3.86826C15.9275 3.98504 16.0637 4.12126 16.1805 4.27346C16.3689 4.51896 16.4949 4.85245 16.5631 5.45782C16.6331 6.07792 16.6341 6.88758 16.6341 8.04878V13.4146C16.6341 14.815 16.6326 15.7917 16.5336 16.5287C16.4373 17.2446 16.2613 17.6236 15.9912 17.8937C15.7212 18.1637 15.3421 18.3397 14.6262 18.436C13.8893 18.535 12.9126 18.5366 11.5122 18.5366H8.58537C7.18497 18.5366 6.20826 18.535 5.47134 18.436C4.75546 18.3397 4.37636 18.1637 4.10635 17.8937C3.83634 17.6236 3.66029 17.2446 3.56405 16.5287C3.46497 15.7917 3.46341 14.815 3.46341 13.4146V8.04878C3.46341 6.88758 3.46451 6.07792 3.53441 5.45782C3.60266 4.85245 3.72865 4.51896 3.91703 4.27346C4.03381 4.12126 4.17004 3.98504 4.32223 3.86826C4.56774 3.67987 4.90123 3.55388 5.5066 3.48564C5.89054 3.44235 6.34714 3.42546 6.91487 3.41885C6.94698 3.64869 7.01314 3.89083 7.16579 4.11927C7.29035 4.30569 7.45041 4.46576 7.63683 4.59032C7.90014 4.76625 8.18166 4.82731 8.44156 4.85375C8.68107 4.87811 8.97005 4.87808 9.28488 4.87806H10.8127C11.1275 4.87808 11.4165 4.87811 11.656 4.85375C11.9159 4.82731 12.1975 4.76625 12.4607 4.59032C12.6471 4.46576 12.8072 4.30569 12.9318 4.11927C13.0844 3.89083 13.1506 3.64869 13.1827 3.41885ZM8.58966 1.48022C8.49668 1.48967 8.45766 1.50208 8.44683 1.50644C8.42205 1.52343 8.40117 1.5446 8.3842 1.56937C8.3799 1.58026 8.36771 1.61861 8.35824 1.71158C8.34234 1.86799 8.34146 2.08125 8.34146 2.43903C8.34146 2.79681 8.34234 3.01007 8.35824 3.16648C8.36771 3.25946 8.3799 3.29781 8.3842 3.30869C8.40127 3.33347 8.42263 3.35489 8.44741 3.37188C8.45834 3.37623 8.49668 3.38838 8.58966 3.39785C8.74605 3.41376 8.95932 3.41464 9.31707 3.41464H10.7805C11.1382 3.41464 11.3515 3.41376 11.5079 3.39785C11.6009 3.38838 11.6392 3.37623 11.6501 3.37188C11.6749 3.35489 11.6964 3.33347 11.7134 3.30869C11.7177 3.29781 11.7299 3.25946 11.7393 3.16648C11.7552 3.01007 11.7561 2.79681 11.7561 2.43903C11.7561 2.08125 11.7552 1.86799 11.7393 1.71158C11.7299 1.61861 11.7177 1.58026 11.7134 1.56937C11.6964 1.5446 11.6749 1.52317 11.6501 1.50619C11.6392 1.50183 11.6009 1.48967 11.5079 1.48022C11.3515 1.4643 11.1382 1.46342 10.7805 1.46342H9.31707C8.95932 1.46342 8.74605 1.4643 8.58966 1.48022ZM8.4439 3.37024C8.44332 3.36994 8.4439 3.37026 8.4439 3.37024V3.37024Z" fill="#83828E"/>
</svg>
