<svg width="25" height="25" viewBox="0 0 25 25" fill="none" xmlns="http://www.w3.org/2000/svg">
<g clip-path="url(#clip0_0_309)">
<path d="M3.27933 25H20.7374C20.8115 25 20.8826 24.9706 20.9349 24.9182C20.9873 24.8658 21.0168 24.7948 21.0168 24.7207V19.4832C21.0168 15.2402 18.3883 12.2765 14.6285 12.2765C14.5856 12.2759 14.5431 12.2851 14.5044 12.3035C14.4656 12.3219 14.4316 12.349 14.405 12.3827C13.9637 12.9665 13.0698 13.338 12.095 13.3575C11.067 13.3771 10.1397 13.0112 9.60335 12.3743C9.57713 12.3436 9.54457 12.319 9.50792 12.3021C9.47128 12.2853 9.43141 12.2765 9.39106 12.2765C5.62849 12.2765 3 15.2402 3 19.4832V24.7207C3 24.7948 3.02943 24.8658 3.08181 24.9182C3.1342 24.9706 3.20525 25 3.27933 25ZM12.1061 13.9162C12.7653 13.9119 13.4134 13.747 13.9944 13.4358L12.0084 18.6927L10.014 13.4134C10.6539 13.7649 11.3764 13.9385 12.1061 13.9162ZM3.55866 19.4832C3.55866 16.338 5.02793 14.014 7.36592 13.176V15.7626C6.93656 15.8297 6.54519 16.0477 6.26208 16.3774C5.97897 16.7071 5.82266 17.1269 5.82123 17.5615V20.4888C5.82123 20.5629 5.85066 20.634 5.90304 20.6863C5.95543 20.7387 6.02648 20.7682 6.10056 20.7682H6.77095V20.2095H6.37989V17.5615C6.41555 17.2531 6.56333 16.9686 6.79509 16.7621C7.02686 16.5556 7.32645 16.4415 7.63687 16.4415C7.94729 16.4415 8.24688 16.5556 8.47865 16.7621C8.71042 16.9686 8.85819 17.2531 8.89385 17.5615V20.2095H8.51676V20.7682H9.18715C9.26123 20.7682 9.33228 20.7387 9.38467 20.6863C9.43705 20.634 9.46648 20.5629 9.46648 20.4888V17.5615C9.46515 17.1273 9.30924 16.7078 9.0267 16.3782C8.74415 16.0485 8.35343 15.8303 7.92458 15.7626V13.0112C8.3416 12.9077 8.76877 12.8506 9.19832 12.8408L11.7458 19.581C11.7654 19.6349 11.8011 19.6815 11.8481 19.7144C11.895 19.7474 11.951 19.765 12.0084 19.765C12.0657 19.765 12.1217 19.7474 12.1687 19.7144C12.2157 19.6815 12.2514 19.6349 12.2709 19.581L14.8184 12.8408C15.3331 12.8535 15.8439 12.9333 16.338 13.0782V16.6229C16.0617 16.6911 15.82 16.8582 15.6585 17.0924C15.4969 17.3267 15.4267 17.6119 15.461 17.8944C15.4954 18.1769 15.632 18.437 15.845 18.6257C16.058 18.8144 16.3328 18.9185 16.6173 18.9185C16.9019 18.9185 17.1766 18.8144 17.3896 18.6257C17.6026 18.437 17.7392 18.1769 17.7736 17.8944C17.808 17.6119 17.7377 17.3267 17.5762 17.0924C17.4146 16.8582 17.1729 16.6911 16.8966 16.6229V13.2709C19.0922 14.176 20.4581 16.4497 20.4581 19.4832V24.4413H3.55866V19.4832ZM16.6173 17.1453C16.7372 17.1453 16.8544 17.1808 16.9541 17.2474C17.0538 17.314 17.1314 17.4087 17.1773 17.5194C17.2232 17.6302 17.2352 17.7521 17.2118 17.8696C17.1884 17.9872 17.1307 18.0952 17.0459 18.18C16.9612 18.2648 16.8532 18.3225 16.7356 18.3459C16.618 18.3693 16.4961 18.3573 16.3854 18.3114C16.2746 18.2655 16.1799 18.1878 16.1133 18.0882C16.0467 17.9885 16.0112 17.8713 16.0112 17.7514C16.0112 17.5906 16.075 17.4365 16.1887 17.3228C16.3024 17.2091 16.4566 17.1453 16.6173 17.1453ZM7.3352 7.14525H7.43296C7.61135 8.23002 8.16935 9.21613 9.0074 9.92763C9.84545 10.6391 10.909 11.0297 12.0084 11.0297C13.1077 11.0297 14.1713 10.6391 15.0094 9.92763C15.8474 9.21613 16.4054 8.23002 16.5838 7.14525H16.6816C17.1367 7.14525 17.5732 6.96464 17.8953 6.64308C18.2174 6.32152 18.3987 5.88529 18.3994 5.43017V5.15084C18.3987 4.86833 18.286 4.59764 18.0859 4.39813C17.8859 4.19863 17.6149 4.08659 17.3324 4.08659H16.6536V2.63687C16.6529 1.93776 16.3748 1.26749 15.8805 0.773138C15.3861 0.278789 14.7159 0.000739413 14.0168 0H10C9.30114 0.000740316 8.63116 0.27888 8.13726 0.773309C7.64335 1.26774 7.36592 1.93801 7.36592 2.63687V4.08659H6.68436C6.40233 4.08733 6.13206 4.19969 5.93264 4.39912C5.73321 4.59854 5.62085 4.86881 5.62011 5.15084V5.43017C5.62011 5.88504 5.80081 6.32127 6.12245 6.64291C6.44409 6.96456 6.88033 7.14525 7.3352 7.14525ZM16.6536 4.64525H17.3324C17.4667 4.64525 17.5956 4.69843 17.6909 4.79316C17.7862 4.8879 17.84 5.01649 17.8408 5.15084V5.43017C17.84 5.73713 17.7176 6.03126 17.5003 6.24805C17.283 6.46484 16.9885 6.58659 16.6816 6.58659H16.6536V4.64525ZM12.0084 10.4749C11.1433 10.4742 10.3008 10.1991 9.60203 9.68914C8.90329 9.17914 8.38442 8.46057 8.12011 7.63687C8.18156 7.1648 9.72626 6.67039 12.0084 6.67039C12.9486 6.65739 13.8868 6.76059 14.8017 6.97765C15.4609 7.15922 15.8631 7.40223 15.8939 7.63687C15.6297 8.46011 15.1112 9.17836 14.4131 9.68832C13.7149 10.1983 12.873 10.4737 12.0084 10.4749ZM7.92458 4.36592V2.63687C7.92458 2.08618 8.14315 1.558 8.53229 1.16834C8.92142 0.77868 9.44931 0.559399 10 0.558659H14.0168C14.5677 0.559398 15.0959 0.778589 15.4855 1.16817C15.875 1.55775 16.0942 2.08592 16.095 2.63687V4.91061C15.8557 4.91992 15.6171 4.87927 15.3945 4.79126C15.1718 4.70325 14.9699 4.56981 14.8017 4.39944C14.3101 3.84078 14.4581 2.94972 14.4609 2.94413C14.4725 2.88215 14.4629 2.81805 14.4335 2.76226C14.404 2.70647 14.3566 2.66228 14.2989 2.63687C14.2414 2.61151 14.1771 2.60627 14.1163 2.62198C14.0554 2.63769 14.0017 2.67344 13.9637 2.72346C12.662 4.42179 8.85475 4.81844 7.91899 4.89106L7.92458 4.36592ZM7.92458 5.4581C8.76257 5.39944 12.1564 5.07542 13.9022 3.59776C13.9408 4.02656 14.1083 4.43362 14.3827 4.76536C14.6018 4.99751 14.8678 5.18035 15.163 5.30171C15.4583 5.42308 15.7759 5.4802 16.095 5.46927V6.39106C16.0927 6.57797 16.0787 6.76456 16.0531 6.94972C15.2793 6.34916 13.5391 6.11173 12.0084 6.11173C10.4777 6.11173 8.73743 6.33799 7.96369 6.94972C7.93899 6.7645 7.92592 6.57792 7.92458 6.39106V5.4581ZM6.17877 5.15084C6.17877 5.01675 6.23204 4.88815 6.32685 4.79333C6.42167 4.69852 6.55027 4.64525 6.68436 4.64525H7.36592V6.60056H7.3352C7.02849 6.60056 6.73435 6.47872 6.51748 6.26185C6.30061 6.04498 6.17877 5.75084 6.17877 5.44413V5.15084Z" fill="#4D478B"/>
<path d="M18.433 20.9497H16.6173V21.5084H18.433V20.9497Z" fill="#4D478B"/>
<path d="M3.27933 25H20.7374C20.8115 25 20.8826 24.9706 20.9349 24.9182C20.9873 24.8658 21.0168 24.7948 21.0168 24.7207V19.4832C21.0168 15.2402 18.3883 12.2765 14.6285 12.2765C14.5856 12.2759 14.5431 12.2851 14.5044 12.3035C14.4656 12.3219 14.4316 12.349 14.405 12.3827C13.9637 12.9665 13.0698 13.338 12.095 13.3575C11.067 13.3771 10.1397 13.0112 9.60335 12.3743C9.57713 12.3436 9.54457 12.319 9.50792 12.3021C9.47128 12.2853 9.43141 12.2765 9.39106 12.2765C5.62849 12.2765 3 15.2402 3 19.4832V24.7207C3 24.7948 3.02943 24.8658 3.08181 24.9182C3.1342 24.9706 3.20525 25 3.27933 25ZM12.1061 13.9162C12.7653 13.9119 13.4134 13.747 13.9944 13.4358L12.0084 18.6927L10.014 13.4134C10.6539 13.7649 11.3764 13.9385 12.1061 13.9162ZM3.55866 19.4832C3.55866 16.338 5.02793 14.014 7.36592 13.176V15.7626C6.93656 15.8297 6.54519 16.0477 6.26208 16.3774C5.97897 16.7071 5.82266 17.1269 5.82123 17.5615V20.4888C5.82123 20.5629 5.85066 20.634 5.90304 20.6863C5.95543 20.7387 6.02648 20.7682 6.10056 20.7682H6.77095V20.2095H6.37989V17.5615C6.41555 17.2531 6.56333 16.9686 6.79509 16.7621C7.02686 16.5556 7.32645 16.4415 7.63687 16.4415C7.94729 16.4415 8.24688 16.5556 8.47865 16.7621C8.71042 16.9686 8.85819 17.2531 8.89385 17.5615V20.2095H8.51676V20.7682H9.18715C9.26123 20.7682 9.33228 20.7387 9.38467 20.6863C9.43705 20.634 9.46648 20.5629 9.46648 20.4888V17.5615C9.46515 17.1273 9.30924 16.7078 9.0267 16.3782C8.74415 16.0485 8.35343 15.8303 7.92458 15.7626V13.0112C8.3416 12.9077 8.76877 12.8506 9.19832 12.8408L11.7458 19.581C11.7654 19.6349 11.8011 19.6815 11.8481 19.7144C11.895 19.7474 11.951 19.765 12.0084 19.765C12.0657 19.765 12.1217 19.7474 12.1687 19.7144C12.2157 19.6815 12.2514 19.6349 12.2709 19.581L14.8184 12.8408C15.3331 12.8535 15.8439 12.9333 16.338 13.0782V16.6229C16.0617 16.6911 15.82 16.8582 15.6585 17.0924C15.4969 17.3267 15.4267 17.6119 15.461 17.8944C15.4954 18.1769 15.632 18.437 15.845 18.6257C16.058 18.8144 16.3328 18.9185 16.6173 18.9185C16.9019 18.9185 17.1766 18.8144 17.3896 18.6257C17.6026 18.437 17.7392 18.1769 17.7736 17.8944C17.808 17.6119 17.7377 17.3267 17.5762 17.0924C17.4146 16.8582 17.1729 16.6911 16.8966 16.6229V13.2709C19.0922 14.176 20.4581 16.4497 20.4581 19.4832V24.4413H3.55866V19.4832ZM16.6173 17.1453C16.7372 17.1453 16.8544 17.1808 16.9541 17.2474C17.0538 17.314 17.1314 17.4087 17.1773 17.5194C17.2232 17.6302 17.2352 17.7521 17.2118 17.8696C17.1884 17.9872 17.1307 18.0952 17.0459 18.18C16.9612 18.2648 16.8532 18.3225 16.7356 18.3459C16.618 18.3693 16.4961 18.3573 16.3854 18.3114C16.2746 18.2655 16.1799 18.1878 16.1133 18.0882C16.0467 17.9885 16.0112 17.8713 16.0112 17.7514C16.0112 17.5906 16.075 17.4365 16.1887 17.3228C16.3024 17.2091 16.4566 17.1453 16.6173 17.1453ZM7.3352 7.14525H7.43296C7.61135 8.23002 8.16935 9.21613 9.0074 9.92763C9.84545 10.6391 10.909 11.0297 12.0084 11.0297C13.1077 11.0297 14.1713 10.6391 15.0094 9.92763C15.8474 9.21613 16.4054 8.23002 16.5838 7.14525H16.6816C17.1367 7.14525 17.5732 6.96464 17.8953 6.64308C18.2174 6.32152 18.3987 5.88529 18.3994 5.43017V5.15084C18.3987 4.86833 18.286 4.59764 18.0859 4.39813C17.8859 4.19863 17.6149 4.08659 17.3324 4.08659H16.6536V2.63687C16.6529 1.93776 16.3748 1.26749 15.8805 0.773138C15.3861 0.278789 14.7159 0.000739413 14.0168 0H10C9.30114 0.000740316 8.63116 0.27888 8.13726 0.773309C7.64335 1.26774 7.36592 1.93801 7.36592 2.63687V4.08659H6.68436C6.40233 4.08733 6.13206 4.19969 5.93264 4.39912C5.73321 4.59854 5.62085 4.86881 5.62011 5.15084V5.43017C5.62011 5.88504 5.80081 6.32127 6.12245 6.64291C6.44409 6.96456 6.88033 7.14525 7.3352 7.14525ZM16.6536 4.64525H17.3324C17.4667 4.64525 17.5956 4.69843 17.6909 4.79316C17.7862 4.8879 17.84 5.01649 17.8408 5.15084V5.43017C17.84 5.73713 17.7176 6.03126 17.5003 6.24805C17.283 6.46484 16.9885 6.58659 16.6816 6.58659H16.6536V4.64525ZM12.0084 10.4749C11.1433 10.4742 10.3008 10.1991 9.60203 9.68914C8.90329 9.17914 8.38442 8.46057 8.12011 7.63687C8.18156 7.1648 9.72626 6.67039 12.0084 6.67039C12.9486 6.65739 13.8868 6.76059 14.8017 6.97765C15.4609 7.15922 15.8631 7.40223 15.8939 7.63687C15.6297 8.46011 15.1112 9.17836 14.4131 9.68832C13.7149 10.1983 12.873 10.4737 12.0084 10.4749ZM7.92458 4.36592V2.63687C7.92458 2.08618 8.14315 1.558 8.53229 1.16834C8.92142 0.77868 9.44931 0.559399 10 0.558659H14.0168C14.5677 0.559398 15.0959 0.778589 15.4855 1.16817C15.875 1.55775 16.0942 2.08592 16.095 2.63687V4.91061C15.8557 4.91992 15.6171 4.87927 15.3945 4.79126C15.1718 4.70325 14.9699 4.56981 14.8017 4.39944C14.3101 3.84078 14.4581 2.94972 14.4609 2.94413C14.4725 2.88215 14.4629 2.81805 14.4335 2.76226C14.404 2.70647 14.3566 2.66228 14.2989 2.63687C14.2414 2.61151 14.1771 2.60627 14.1163 2.62198C14.0554 2.63769 14.0017 2.67344 13.9637 2.72346C12.662 4.42179 8.85475 4.81844 7.91899 4.89106L7.92458 4.36592ZM7.92458 5.4581C8.76257 5.39944 12.1564 5.07542 13.9022 3.59776C13.9408 4.02656 14.1083 4.43362 14.3827 4.76536C14.6018 4.99751 14.8678 5.18035 15.163 5.30171C15.4583 5.42308 15.7759 5.4802 16.095 5.46927V6.39106C16.0927 6.57797 16.0787 6.76456 16.0531 6.94972C15.2793 6.34916 13.5391 6.11173 12.0084 6.11173C10.4777 6.11173 8.73743 6.33799 7.96369 6.94972C7.93899 6.7645 7.92592 6.57792 7.92458 6.39106V5.4581ZM6.17877 5.15084C6.17877 5.01675 6.23204 4.88815 6.32685 4.79333C6.42167 4.69852 6.55027 4.64525 6.68436 4.64525H7.36592V6.60056H7.3352C7.02849 6.60056 6.73435 6.47872 6.51748 6.26185C6.30061 6.04498 6.17877 5.75084 6.17877 5.44413V5.15084Z" stroke="#4D478B" stroke-width="0.5"/>
<path d="M18.433 20.9497H16.6173V21.5084H18.433V20.9497Z" stroke="#4D478B" stroke-width="0.5"/>
</g>
<defs>
<clipPath id="clip0_0_309">
<rect width="25" height="25" fill="white"/>
</clipPath>
</defs>
</svg>
