<svg width="27" height="26" viewBox="0 0 27 26" fill="none" xmlns="http://www.w3.org/2000/svg">
<path d="M0.558802 12.787L12.8264 0.284738C12.9147 0.194477 13.0196 0.122867 13.1351 0.0740083C13.2506 0.0251493 13.3744 0 13.4994 0C13.6245 0 13.7483 0.0251493 13.8638 0.0740083C13.9793 0.122867 14.0842 0.194477 14.1725 0.284738L26.4401 12.787C26.7975 13.1515 27 13.6466 27 14.163C27 15.2352 26.1452 16.1069 25.0939 16.1069H23.8013L23.8013 25.028C23.8013 25.5656 23.3754 26 22.8483 26H15.4055L15.4055 19.1961L12.0699 19.1961L12.0699 26H4.15061C3.62345 26 3.19756 25.5656 3.19756 25.028V16.1069H1.90499C1.39868 16.1069 0.913218 15.9034 0.555822 15.5359C-0.18577 14.7765 -0.18577 13.5464 0.558802 12.787Z" fill="#211F2B"/>
</svg>
