<svg width="26" height="26" viewBox="0 0 26 26" fill="none" xmlns="http://www.w3.org/2000/svg">
<path d="M0.390888 10.7327L12.1175 0.293601C12.6387 -0.097867 13.2901 -0.097867 13.8113 0.293601L25.5379 10.7327C26.0591 11.2547 26.1894 12.0376 25.6682 12.5596C25.147 13.0816 24.3653 13.212 23.8441 12.6901L23.4532 12.1681L23.4532 24.6951C23.4532 25.478 22.932 26 22.1502 26L3.90887 26C3.12709 26 2.60591 25.478 2.60591 24.6951L2.60591 12.1681L2.21503 12.5596C1.69384 13.0816 0.912069 12.9511 0.390888 12.4291C-0.130295 12.0376 -0.130295 11.1242 0.390888 10.7327ZM10.4236 16.8657L11.7266 16.8657V18.1706C11.7266 18.9536 12.2478 19.4755 13.0296 19.4755C13.8113 19.4755 14.3325 18.9536 14.3325 18.1706V16.8657H15.6355C16.4172 16.8657 16.9384 16.3438 16.9384 15.5609C16.9384 14.7779 16.4172 14.256 15.6355 14.256H14.3325V12.9511C14.3325 12.1681 13.8113 11.6462 13.0296 11.6462C12.2478 11.6462 11.7266 12.1681 11.7266 12.9511V14.256H10.4236C9.64187 14.256 9.12069 14.7779 9.12069 15.5609C9.12069 16.3438 9.64187 16.8657 10.4236 16.8657Z" fill="white"/>
</svg>
