<svg width="25" height="25" viewBox="0 0 25 25" fill="none" xmlns="http://www.w3.org/2000/svg">
<path fill-rule="evenodd" clip-rule="evenodd" d="M2 10.6332C2.01814 5.29487 6.36044 0.981977 11.6988 1.00006C17.0372 1.01825 21.3501 5.36055 21.332 10.6989V10.8084C21.2662 14.2785 19.3287 17.4859 16.9532 19.9927C15.5947 21.4034 14.0776 22.6523 12.4322 23.7146C11.9923 24.0951 11.3397 24.0951 10.8997 23.7146C8.44678 22.118 6.29394 20.1023 4.53964 17.7596C2.97607 15.7167 2.08833 13.2371 2 10.6661V10.6332Z" stroke="#4D478B" stroke-width="1.5" stroke-linecap="round" stroke-linejoin="round"/>
<path d="M11.6654 13.9171C13.3764 13.9171 14.7635 12.53 14.7635 10.819C14.7635 9.10795 13.3764 7.72089 11.6654 7.72089C9.95438 7.72089 8.56732 9.10795 8.56732 10.819C8.56732 12.53 9.95438 13.9171 11.6654 13.9171Z" stroke="#4D478B" stroke-width="1.5" stroke-linecap="round" stroke-linejoin="round"/>
</svg>
