<svg width="25" height="25" viewBox="0 0 25 25" fill="none" xmlns="http://www.w3.org/2000/svg">
<g clip-path="url(#clip0_0_313)">
<path d="M12.5 1.63043C10.4022 1.63043 8.69565 3.3375 8.69565 5.43478C8.69565 7.53206 10.4022 9.23913 12.5 9.23913C14.5978 9.23913 16.3043 7.53206 16.3043 5.43478C16.3043 3.3375 14.5978 1.63043 12.5 1.63043ZM12.5 8.69565C10.7016 8.69565 9.23913 7.23315 9.23913 5.43478C9.23913 3.63641 10.7016 2.17391 12.5 2.17391C14.2984 2.17391 15.7609 3.63641 15.7609 5.43478C15.7609 7.23315 14.2984 8.69565 12.5 8.69565Z" fill="#4D478B"/>
<path d="M17.9348 5.43478C17.9348 2.43804 15.4967 0 12.5 0C9.50326 0 7.06522 2.43804 7.06522 5.43478C7.06522 8.43152 9.50326 10.8696 12.5 10.8696C15.4967 10.8696 17.9348 8.43152 17.9348 5.43478ZM12.5 10.3261C9.80326 10.3261 7.6087 8.13206 7.6087 5.43478C7.6087 2.7375 9.80326 0.543478 12.5 0.543478C15.1967 0.543478 17.3913 2.7375 17.3913 5.43478C17.3913 8.13206 15.1967 10.3261 12.5 10.3261Z" fill="#4D478B"/>
<path d="M13.587 4.07174C13.737 4.07174 13.8587 3.95 13.8587 3.8C13.8587 3.65 13.737 3.52826 13.587 3.52826H11.413C11.263 3.52826 11.1413 3.65 11.1413 3.8C11.1413 3.95 11.263 4.07174 11.413 4.07174H11.9565C12.3136 4.07174 12.6141 4.3038 12.7245 4.62391H11.413C11.263 4.62391 11.1413 4.74565 11.1413 4.89565C11.1413 5.04565 11.263 5.16739 11.413 5.16739H12.719C12.6043 5.4788 12.3071 5.70217 11.9565 5.70217H11.413C11.263 5.70217 11.1413 5.82391 11.1413 5.97391C11.1413 5.97554 11.1418 5.97663 11.1424 5.97826C11.1413 6.04946 11.1668 6.12065 11.2212 6.17446L12.8516 7.80489C12.9049 7.85815 12.9745 7.88424 13.044 7.88424C13.1136 7.88424 13.1832 7.85761 13.2364 7.80489C13.3424 7.69891 13.3424 7.52663 13.2364 7.42065L12.0516 6.23587C12.6614 6.19293 13.163 5.75163 13.2859 5.16685H13.587C13.737 5.16685 13.8587 5.04511 13.8587 4.89511C13.8587 4.74511 13.737 4.62337 13.587 4.62337H13.2886C13.2478 4.41793 13.1582 4.23206 13.0364 4.0712H13.587V4.07174ZM11.1413 20.6522H10.3261V14.5772C10.3261 13.8196 9.96685 13.0935 9.36467 12.6332L5.35924 9.575C5.0163 9.30761 4.58967 9.18804 4.15543 9.24239C3.8163 9.2837 3.50815 9.42989 3.26087 9.65489V4.8913C3.26087 3.99239 2.52935 3.26087 1.63043 3.26087C0.731522 3.26087 0 3.99239 0 4.8913V14.4022C0 15.5082 0.528261 16.5647 1.41304 17.2283L4.02174 19.1853C4.22609 19.338 4.34783 19.5815 4.34783 19.837V20.6522H3.53261C3.38261 20.6522 3.26087 20.7739 3.26087 20.9239V24.7283C3.26087 24.8783 3.38261 25 3.53261 25H11.1413C11.2913 25 11.413 24.8783 11.413 24.7283V20.9239C11.413 20.7739 11.2913 20.6522 11.1413 20.6522ZM4.34783 18.75L1.73913 16.7929C0.990217 16.2321 0.543478 15.338 0.543478 14.4022V4.8913C0.543478 4.29185 1.03098 3.80435 1.63043 3.80435C2.22989 3.80435 2.71739 4.29185 2.71739 4.8913V10.5978C2.71739 10.6299 2.72554 10.6598 2.73587 10.688C2.72283 10.8103 2.72011 10.9348 2.73533 11.0598C2.78859 11.4918 3.00707 11.8772 3.35109 12.1462L6.74511 14.7707C6.94511 14.925 7.06087 15.1592 7.06196 15.4114L7.06359 15.7391C7.06413 15.8886 7.18587 16.0098 7.33533 16.0098C7.48533 16.0245 7.60761 15.887 7.60706 15.737L7.60543 15.4087C7.60326 14.988 7.41087 14.5984 7.07772 14.3408L3.68424 11.7168C3.45543 11.5386 3.30978 11.281 3.27446 10.9929C3.23913 10.7054 3.31793 10.4201 3.49674 10.1908C3.67554 9.96196 3.93315 9.81685 4.22174 9.78098C4.5087 9.74674 4.79565 9.82391 5.02717 10.0049L9.03478 13.0647C9.50326 13.4228 9.78261 13.988 9.78261 14.5772V20.6522H4.8913V19.837C4.8913 19.4114 4.68804 19.0049 4.34783 18.75ZM10.8696 24.4565H3.80435V21.1957H10.8696V24.4565Z" fill="#4D478B"/>
<path d="M8.69565 23.0978C8.69565 23.5473 9.06141 23.913 9.51087 23.913C9.96033 23.913 10.3261 23.5473 10.3261 23.0978C10.3261 22.6484 9.96033 22.2826 9.51087 22.2826C9.06141 22.2826 8.69565 22.6484 8.69565 23.0978ZM9.78261 23.0978C9.78261 23.2473 9.66087 23.3696 9.51087 23.3696C9.36087 23.3696 9.23913 23.2473 9.23913 23.0978C9.23913 22.9484 9.36087 22.8261 9.51087 22.8261C9.66087 22.8261 9.78261 22.9484 9.78261 23.0978ZM23.3696 3.26087C22.4707 3.26087 21.7391 3.99239 21.7391 4.8913V9.65489C21.4918 9.42989 21.1837 9.28424 20.8446 9.24239C20.4125 9.18859 19.9842 9.30707 19.6435 9.57337L15.6353 12.6332C15.0332 13.0935 14.6739 13.8201 14.6739 14.5772V20.6522H13.8587C13.7087 20.6522 13.587 20.7739 13.587 20.9239V24.7283C13.587 24.8783 13.7087 25 13.8587 25H21.4674C21.6174 25 21.7391 24.8783 21.7391 24.7283V20.9239C21.7391 20.7739 21.6174 20.6522 21.4674 20.6522H20.6522V19.837C20.6522 19.5815 20.7739 19.338 20.9783 19.1853L23.587 17.2283C24.4717 16.5647 25 15.5082 25 14.4022V4.8913C25 3.99239 24.2685 3.26087 23.3696 3.26087ZM21.1957 24.4565H14.1304V21.1957H21.1957V24.4565ZM24.4565 14.4022C24.4565 15.338 24.0098 16.2321 23.2609 16.7929L20.6522 18.75C20.312 19.0049 20.1087 19.4114 20.1087 19.837V20.6522H15.2174V14.5772C15.2174 13.988 15.4967 13.4228 15.9647 13.0652L19.9745 10.0038C20.2033 9.825 20.4891 9.74783 20.7777 9.78152C21.0668 9.81685 21.3245 9.9625 21.5027 10.1913C21.6815 10.4207 21.7603 10.7054 21.725 10.9935C21.6897 11.2815 21.544 11.5391 21.3163 11.7168L17.9217 14.3413C17.5891 14.5989 17.3967 14.988 17.394 15.4098L17.3924 15.7375C17.3918 15.887 17.5125 16.0098 17.663 16.0103H17.6641C17.8136 16.0103 17.9353 15.8891 17.9359 15.7397L17.9375 15.4125C17.9386 15.1598 18.0543 14.9255 18.2543 14.7712L21.65 12.1462C21.9935 11.8777 22.212 11.4924 22.2647 11.0603C22.2799 10.9348 22.2772 10.8109 22.2641 10.6886C22.2745 10.6598 22.2826 10.6299 22.2826 10.5978V4.8913C22.2826 4.29185 22.7701 3.80435 23.3696 3.80435C23.969 3.80435 24.4565 4.29185 24.4565 4.8913V14.4022Z" fill="#4D478B"/>
<path d="M15.4891 22.2826C15.0397 22.2826 14.6739 22.6484 14.6739 23.0978C14.6739 23.5473 15.0397 23.913 15.4891 23.913C15.9386 23.913 16.3043 23.5473 16.3043 23.0978C16.3043 22.6484 15.9386 22.2826 15.4891 22.2826ZM15.4891 23.3696C15.3391 23.3696 15.2174 23.2473 15.2174 23.0978C15.2174 22.9484 15.3391 22.8261 15.4891 22.8261C15.6391 22.8261 15.7609 22.9484 15.7609 23.0978C15.7609 23.2473 15.6391 23.3696 15.4891 23.3696Z" fill="#4D478B"/>
<path d="M12.5 1.63043C10.4022 1.63043 8.69565 3.3375 8.69565 5.43478C8.69565 7.53206 10.4022 9.23913 12.5 9.23913C14.5978 9.23913 16.3043 7.53206 16.3043 5.43478C16.3043 3.3375 14.5978 1.63043 12.5 1.63043ZM12.5 8.69565C10.7016 8.69565 9.23913 7.23315 9.23913 5.43478C9.23913 3.63641 10.7016 2.17391 12.5 2.17391C14.2984 2.17391 15.7609 3.63641 15.7609 5.43478C15.7609 7.23315 14.2984 8.69565 12.5 8.69565Z" stroke="#4D478B" stroke-width="0.5"/>
<path d="M17.9348 5.43478C17.9348 2.43804 15.4967 0 12.5 0C9.50326 0 7.06522 2.43804 7.06522 5.43478C7.06522 8.43152 9.50326 10.8696 12.5 10.8696C15.4967 10.8696 17.9348 8.43152 17.9348 5.43478ZM12.5 10.3261C9.80326 10.3261 7.6087 8.13206 7.6087 5.43478C7.6087 2.7375 9.80326 0.543478 12.5 0.543478C15.1967 0.543478 17.3913 2.7375 17.3913 5.43478C17.3913 8.13206 15.1967 10.3261 12.5 10.3261Z" stroke="#4D478B" stroke-width="0.5"/>
<path d="M13.587 4.07174C13.737 4.07174 13.8587 3.95 13.8587 3.8C13.8587 3.65 13.737 3.52826 13.587 3.52826H11.413C11.263 3.52826 11.1413 3.65 11.1413 3.8C11.1413 3.95 11.263 4.07174 11.413 4.07174H11.9565C12.3136 4.07174 12.6141 4.3038 12.7245 4.62391H11.413C11.263 4.62391 11.1413 4.74565 11.1413 4.89565C11.1413 5.04565 11.263 5.16739 11.413 5.16739H12.719C12.6043 5.4788 12.3071 5.70217 11.9565 5.70217H11.413C11.263 5.70217 11.1413 5.82391 11.1413 5.97391C11.1413 5.97554 11.1418 5.97663 11.1424 5.97826C11.1413 6.04946 11.1668 6.12065 11.2212 6.17446L12.8516 7.80489C12.9049 7.85815 12.9745 7.88424 13.044 7.88424C13.1136 7.88424 13.1832 7.85761 13.2364 7.80489C13.3424 7.69891 13.3424 7.52663 13.2364 7.42065L12.0516 6.23587C12.6614 6.19293 13.163 5.75163 13.2859 5.16685H13.587C13.737 5.16685 13.8587 5.04511 13.8587 4.89511C13.8587 4.74511 13.737 4.62337 13.587 4.62337H13.2886C13.2478 4.41793 13.1582 4.23206 13.0364 4.0712H13.587V4.07174ZM11.1413 20.6522H10.3261V14.5772C10.3261 13.8196 9.96685 13.0935 9.36467 12.6332L5.35924 9.575C5.0163 9.30761 4.58967 9.18804 4.15543 9.24239C3.8163 9.2837 3.50815 9.42989 3.26087 9.65489V4.8913C3.26087 3.99239 2.52935 3.26087 1.63043 3.26087C0.731522 3.26087 0 3.99239 0 4.8913V14.4022C0 15.5082 0.528261 16.5647 1.41304 17.2283L4.02174 19.1853C4.22609 19.338 4.34783 19.5815 4.34783 19.837V20.6522H3.53261C3.38261 20.6522 3.26087 20.7739 3.26087 20.9239V24.7283C3.26087 24.8783 3.38261 25 3.53261 25H11.1413C11.2913 25 11.413 24.8783 11.413 24.7283V20.9239C11.413 20.7739 11.2913 20.6522 11.1413 20.6522ZM4.34783 18.75L1.73913 16.7929C0.990217 16.2321 0.543478 15.338 0.543478 14.4022V4.8913C0.543478 4.29185 1.03098 3.80435 1.63043 3.80435C2.22989 3.80435 2.71739 4.29185 2.71739 4.8913V10.5978C2.71739 10.6299 2.72554 10.6598 2.73587 10.688C2.72283 10.8103 2.72011 10.9348 2.73533 11.0598C2.78859 11.4918 3.00707 11.8772 3.35109 12.1462L6.74511 14.7707C6.94511 14.925 7.06087 15.1592 7.06196 15.4114L7.06359 15.7391C7.06413 15.8886 7.18587 16.0098 7.33533 16.0098C7.48533 16.0245 7.60761 15.887 7.60706 15.737L7.60543 15.4087C7.60326 14.988 7.41087 14.5984 7.07772 14.3408L3.68424 11.7168C3.45543 11.5386 3.30978 11.281 3.27446 10.9929C3.23913 10.7054 3.31793 10.4201 3.49674 10.1908C3.67554 9.96196 3.93315 9.81685 4.22174 9.78098C4.5087 9.74674 4.79565 9.82391 5.02717 10.0049L9.03478 13.0647C9.50326 13.4228 9.78261 13.988 9.78261 14.5772V20.6522H4.8913V19.837C4.8913 19.4114 4.68804 19.0049 4.34783 18.75ZM10.8696 24.4565H3.80435V21.1957H10.8696V24.4565Z" stroke="#4D478B" stroke-width="0.5"/>
<path d="M8.69565 23.0978C8.69565 23.5473 9.06141 23.913 9.51087 23.913C9.96033 23.913 10.3261 23.5473 10.3261 23.0978C10.3261 22.6484 9.96033 22.2826 9.51087 22.2826C9.06141 22.2826 8.69565 22.6484 8.69565 23.0978ZM9.78261 23.0978C9.78261 23.2473 9.66087 23.3696 9.51087 23.3696C9.36087 23.3696 9.23913 23.2473 9.23913 23.0978C9.23913 22.9484 9.36087 22.8261 9.51087 22.8261C9.66087 22.8261 9.78261 22.9484 9.78261 23.0978ZM23.3696 3.26087C22.4707 3.26087 21.7391 3.99239 21.7391 4.8913V9.65489C21.4918 9.42989 21.1837 9.28424 20.8446 9.24239C20.4125 9.18859 19.9842 9.30707 19.6435 9.57337L15.6353 12.6332C15.0332 13.0935 14.6739 13.8201 14.6739 14.5772V20.6522H13.8587C13.7087 20.6522 13.587 20.7739 13.587 20.9239V24.7283C13.587 24.8783 13.7087 25 13.8587 25H21.4674C21.6174 25 21.7391 24.8783 21.7391 24.7283V20.9239C21.7391 20.7739 21.6174 20.6522 21.4674 20.6522H20.6522V19.837C20.6522 19.5815 20.7739 19.338 20.9783 19.1853L23.587 17.2283C24.4717 16.5647 25 15.5082 25 14.4022V4.8913C25 3.99239 24.2685 3.26087 23.3696 3.26087ZM21.1957 24.4565H14.1304V21.1957H21.1957V24.4565ZM24.4565 14.4022C24.4565 15.338 24.0098 16.2321 23.2609 16.7929L20.6522 18.75C20.312 19.0049 20.1087 19.4114 20.1087 19.837V20.6522H15.2174V14.5772C15.2174 13.988 15.4967 13.4228 15.9647 13.0652L19.9745 10.0038C20.2033 9.825 20.4891 9.74783 20.7777 9.78152C21.0668 9.81685 21.3245 9.9625 21.5027 10.1913C21.6815 10.4207 21.7603 10.7054 21.725 10.9935C21.6897 11.2815 21.544 11.5391 21.3163 11.7168L17.9217 14.3413C17.5891 14.5989 17.3967 14.988 17.394 15.4098L17.3924 15.7375C17.3918 15.887 17.5125 16.0098 17.663 16.0103H17.6641C17.8136 16.0103 17.9353 15.8891 17.9359 15.7397L17.9375 15.4125C17.9386 15.1598 18.0543 14.9255 18.2543 14.7712L21.65 12.1462C21.9935 11.8777 22.212 11.4924 22.2647 11.0603C22.2799 10.9348 22.2772 10.8109 22.2641 10.6886C22.2745 10.6598 22.2826 10.6299 22.2826 10.5978V4.8913C22.2826 4.29185 22.7701 3.80435 23.3696 3.80435C23.969 3.80435 24.4565 4.29185 24.4565 4.8913V14.4022Z" stroke="#4D478B" stroke-width="0.5"/>
<path d="M15.4891 22.2826C15.0397 22.2826 14.6739 22.6484 14.6739 23.0978C14.6739 23.5473 15.0397 23.913 15.4891 23.913C15.9386 23.913 16.3043 23.5473 16.3043 23.0978C16.3043 22.6484 15.9386 22.2826 15.4891 22.2826ZM15.4891 23.3696C15.3391 23.3696 15.2174 23.2473 15.2174 23.0978C15.2174 22.9484 15.3391 22.8261 15.4891 22.8261C15.6391 22.8261 15.7609 22.9484 15.7609 23.0978C15.7609 23.2473 15.6391 23.3696 15.4891 23.3696Z" stroke="#4D478B" stroke-width="0.5"/>
</g>
<defs>
<clipPath id="clip0_0_313">
<rect width="25" height="25" fill="white"/>
</clipPath>
</defs>
</svg>
