<svg width="25" height="25" viewBox="0 0 25 25" fill="none" xmlns="http://www.w3.org/2000/svg">
<g clip-path="url(#clip0_0_311)">
<path d="M22.5135 19.705L20.6906 19.1484C20.6007 19.1209 20.5193 19.0706 20.4546 19.0023C20.3898 18.9341 20.3437 18.8502 20.3209 18.759C20.3102 18.7148 20.305 18.6696 20.3052 18.6242C20.302 18.4445 20.2958 18.2289 20.2872 17.9311C20.6466 17.4302 20.8582 16.808 20.8582 16.3031V16.0668C20.8797 16.0327 20.8949 15.9949 20.9031 15.9554C20.9837 15.5843 21.0642 15.213 21.1448 14.8413L21.1695 14.7259C21.2253 14.4705 21.2294 14.2066 21.1816 13.9496C21.1339 13.6926 21.0352 13.4478 20.8914 13.2295C20.7648 13.0349 20.6 12.868 20.407 12.7389C20.2139 12.6099 19.9966 12.5214 19.7684 12.4789C19.559 12.4412 19.3488 12.3989 19.144 12.354L19.0092 12.3239C18.715 12.2579 18.4827 12.2058 18.1615 12.2013H18.1283C17.8784 12.2032 17.6321 12.2611 17.4076 12.3708C17.1831 12.4805 16.986 12.6392 16.8309 12.8351C16.6501 13.0635 16.5223 13.3293 16.457 13.6133C16.3917 13.8972 16.3903 14.1921 16.4531 14.4766L16.7676 15.9248V16.3044C16.7676 16.8237 16.9922 17.4724 17.374 17.98C17.3483 18.1861 17.323 18.392 17.2981 18.5977C17.2963 18.6111 17.2954 18.6246 17.2954 18.6381C17.2956 18.7545 17.2583 18.8679 17.189 18.9615C17.1198 19.0551 17.0223 19.1239 16.9109 19.1579L15.9761 19.4427L15.9666 19.4454L15.1131 19.7064C14.8536 19.7859 14.6119 19.9149 14.4016 20.0864L14.0332 19.9741C13.957 19.9511 13.8901 19.9042 13.8426 19.8403C13.7951 19.7764 13.7695 19.6989 13.7695 19.6192V19.4867C13.9538 19.3144 14.1007 19.1062 14.2011 18.8748C14.3016 18.6435 14.3534 18.394 14.3535 18.1417V17.5681C14.4203 17.2824 14.4875 16.9965 14.5552 16.7105L14.5799 16.605C14.6287 16.3975 14.6343 16.1823 14.5965 15.9725C14.5587 15.7628 14.4783 15.5631 14.3601 15.3857C14.242 15.2083 14.0887 15.0571 13.9098 14.9413C13.7308 14.8256 13.5301 14.7478 13.3198 14.7129C13.172 14.6881 13.0252 14.6612 12.8801 14.6329V10.2696C13.912 10.2981 14.9383 10.4322 15.9428 10.6699V11.2224C15.9428 11.3118 15.9783 11.3975 16.0415 11.4607C16.1047 11.5238 16.1904 11.5593 16.2797 11.5593C16.3691 11.5593 16.4548 11.5238 16.518 11.4607C16.5812 11.3975 16.6167 11.3118 16.6167 11.2224V10.6317C17.6341 10.2319 18.7381 10.1038 19.82 10.2597C20.5078 10.3626 21.1734 10.5809 21.7885 10.9053V11.3132C21.7885 11.4025 21.824 11.4882 21.8872 11.5514C21.9504 11.6146 22.0361 11.6501 22.1254 11.6501C22.2148 11.6501 22.3005 11.6146 22.3637 11.5514C22.4268 11.4882 22.4623 11.4025 22.4623 11.3132V10.7166C22.4623 10.7126 22.4623 10.709 22.4623 10.7054C22.4623 8.28184 21.4224 6.0052 19.5339 4.29457C17.7289 2.66211 15.3624 1.73582 12.8342 1.66035L12.8315 1.33422C12.8307 1.24537 12.7949 1.16043 12.7318 1.09786C12.6687 1.03528 12.5835 1.00011 12.4946 1H12.4915C12.4473 1.00035 12.4035 1.00942 12.3628 1.02668C12.3221 1.04395 12.2852 1.06907 12.2542 1.10061C12.2232 1.13215 12.1987 1.1695 12.1822 1.21051C12.1656 1.25152 12.1573 1.29539 12.1577 1.33961L12.1604 1.66035C9.634 1.73717 7.26931 2.6648 5.47064 4.29367C3.58212 6.0043 2.54218 8.28094 2.54218 10.7031C2.54218 10.7067 2.54218 10.7099 2.54218 10.7135V11.3118C2.54218 11.4012 2.57768 11.4869 2.64086 11.5501C2.70405 11.6132 2.78974 11.6487 2.8791 11.6487C2.96845 11.6487 3.05415 11.6132 3.11733 11.5501C3.18051 11.4869 3.21601 11.4012 3.21601 11.3118V10.9048C3.83343 10.5844 4.49864 10.3661 5.18583 10.2584C6.28988 10.0907 7.41846 10.2069 8.46513 10.5962V11.1802C8.46513 11.2696 8.50063 11.3552 8.56381 11.4184C8.627 11.4816 8.71269 11.5171 8.80205 11.5171C8.8914 11.5171 8.9771 11.4816 9.04028 11.4184C9.10346 11.3552 9.13896 11.2696 9.13896 11.1802V10.6335C10.1444 10.4069 11.1703 10.2838 12.2008 10.266V14.5085C12.1027 14.497 12.004 14.4907 11.9052 14.4896H11.8805C11.6483 14.4894 11.419 14.5418 11.2099 14.6429C11.0009 14.7441 10.8175 14.8913 10.6735 15.0736C10.5259 15.258 10.4223 15.4737 10.3705 15.7041C10.3188 15.9346 10.3202 16.1739 10.3748 16.4037L10.651 17.5762V18.1417C10.6509 18.3893 10.7006 18.6344 10.7973 18.8623C10.8941 19.0903 11.0357 19.2964 11.2139 19.4683V19.6242C11.2143 19.7036 11.189 19.7811 11.1418 19.8451C11.0947 19.909 11.0281 19.956 10.952 19.979L10.6007 20.086C10.3905 19.9152 10.1494 19.7866 9.8905 19.7073L8.06757 19.1484C7.98325 19.1231 7.9064 19.0776 7.84375 19.0157C7.78111 18.9538 7.73456 18.8776 7.7082 18.7936C8.00905 18.3513 8.22253 17.8556 8.3371 17.3331C8.38502 17.0992 8.38913 16.8584 8.34923 16.6229C8.37351 16.5268 8.39181 16.4293 8.40404 16.3309L8.51589 15.8539C8.62931 15.3821 8.59351 14.8867 8.41344 14.4361C8.23336 13.9855 7.91789 13.6019 7.51054 13.3382C7.53142 13.2423 7.54197 13.1444 7.54199 13.0463C7.54228 12.8558 7.50242 12.6674 7.42502 12.4934C7.34761 12.3193 7.23439 12.1636 7.09273 12.0362C6.95108 11.9089 6.78418 11.8129 6.60291 11.7544C6.42165 11.6959 6.23009 11.6762 6.04072 11.6967C5.85136 11.7173 5.66845 11.7775 5.50392 11.8734C5.33938 11.9694 5.19692 12.0989 5.08583 12.2536C4.97473 12.4084 4.89749 12.5848 4.85915 12.7713C4.82081 12.9579 4.82222 13.1505 4.8633 13.3364C4.45579 13.6001 4.14005 13.9835 3.9596 14.4341C3.77914 14.8846 3.74284 15.38 3.8557 15.8521L3.96845 16.3291C3.98768 16.4947 4.02442 16.6578 4.07806 16.8156C4.07028 16.9562 4.0763 17.0972 4.09603 17.2366C4.16341 17.7132 4.37904 18.2698 4.66384 18.7113C4.64972 18.8136 4.60653 18.9097 4.5394 18.9881C4.47226 19.0666 4.38402 19.1241 4.28515 19.1538L3.35123 19.4404L3.34224 19.4431L2.48873 19.7046C2.05723 19.8335 1.67906 20.0987 1.41073 20.4604C1.1424 20.8221 0.998316 21.2609 1.00001 21.7112V23.6631C1.00001 23.7524 1.03551 23.8381 1.09869 23.9013C1.16188 23.9645 1.24757 24 1.33693 24C1.42628 24 1.51198 23.9645 1.57516 23.9013C1.63835 23.8381 1.67384 23.7524 1.67384 23.6631V21.7112C1.6727 21.4057 1.77031 21.108 1.95213 20.8625C2.13394 20.617 2.39023 20.4368 2.68279 20.3487L3.53046 20.0918L3.53945 20.0891L3.77484 20.0177C4.17464 20.408 4.99671 21.0365 6.20062 21.116C6.28477 21.1214 6.36743 21.1241 6.44859 21.1241C7.7064 21.1241 8.60214 20.4889 8.9997 20.1399L9.6924 20.351L9.70947 20.3568L9.50373 20.4197C9.14355 20.5276 8.82794 20.7492 8.60407 21.0513C8.3802 21.3534 8.26007 21.7198 8.26164 22.0958V23.6631C8.26164 23.7524 8.29713 23.8381 8.36032 23.9013C8.4235 23.9645 8.50919 24 8.59855 24C8.68791 24 8.7736 23.9645 8.83678 23.9013C8.89997 23.8381 8.93546 23.7524 8.93546 23.6631V22.094C8.93418 21.8624 9.00787 21.6366 9.14552 21.4504C9.28316 21.2642 9.47738 21.1275 9.69914 21.0608L10.5109 20.8137C11.0425 21.32 11.7336 21.6259 12.4659 21.6789C12.5346 21.6834 12.6006 21.6856 12.6689 21.6856C13.6824 21.6856 14.4105 21.1829 14.7457 20.8937L15.2964 21.0612C15.5182 21.1279 15.7124 21.2646 15.85 21.4508C15.9877 21.6371 16.0614 21.8628 16.0601 22.0944V23.6631C16.0601 23.7524 16.0956 23.8381 16.1588 23.9013C16.2219 23.9645 16.3076 24 16.397 24C16.4863 24 16.572 23.9645 16.6352 23.9013C16.6984 23.8381 16.7339 23.7524 16.7339 23.6631V22.0944C16.7354 21.7185 16.6153 21.3522 16.3916 21.0501C16.1678 20.748 15.8523 20.5264 15.4923 20.4184L15.2852 20.355L15.3031 20.3487L15.928 20.1583L16.8619 21.2256C16.9724 21.3525 17.1277 21.4316 17.2953 21.4463C17.4629 21.4609 17.6296 21.41 17.7604 21.3042L18.4746 20.7319V23.6182C18.4746 23.7075 18.5101 23.7932 18.5733 23.8564C18.6365 23.9196 18.7222 23.9551 18.8115 23.9551C18.9009 23.9551 18.9866 23.9196 19.0498 23.8564C19.113 23.7932 19.1485 23.7075 19.1485 23.6182V20.7562L19.8295 21.3047C19.9601 21.4106 20.1268 21.4616 20.2944 21.4471C20.4619 21.4326 20.6173 21.3537 20.7279 21.227L21.6713 20.1524L22.3186 20.3496C22.6108 20.4379 22.8668 20.6181 23.0483 20.8635C23.2299 21.1089 23.3273 21.4064 23.3262 21.7117V23.6631C23.3262 23.7524 23.3617 23.8381 23.4249 23.9013C23.4881 23.9645 23.5737 24 23.6631 24C23.7525 24 23.8382 23.9645 23.9013 23.9013C23.9645 23.8381 24 23.7524 24 23.6631V21.7117C24.0019 21.2616 23.8581 20.823 23.5902 20.4614C23.3223 20.0997 22.9446 19.8344 22.5135 19.705ZM6.18849 12.3652C6.36899 12.3654 6.54208 12.4371 6.66975 12.5647C6.79743 12.6923 6.86927 12.8653 6.86951 13.0458C6.67517 12.9904 6.47452 12.9602 6.2725 12.956H6.20556C5.9697 12.9512 5.73443 12.9814 5.50748 13.0458C5.50771 12.8653 5.57955 12.6923 5.70723 12.5647C5.83491 12.4371 6.00799 12.3654 6.18849 12.3652ZM4.51246 15.6948C4.45404 15.4445 4.45369 15.1842 4.51145 14.9337C4.5692 14.6832 4.68352 14.4493 4.84565 14.2498C5.00777 14.0504 5.2134 13.8907 5.44679 13.783C5.68017 13.6753 5.93512 13.6224 6.19209 13.6284H6.25812C6.50929 13.6334 6.75615 13.6946 6.98059 13.8075C7.20502 13.9203 7.40133 14.082 7.5551 14.2807C7.70887 14.4794 7.81619 14.7099 7.86919 14.9555C7.92219 15.2011 7.91952 15.4554 7.86138 15.6998V15.702C7.6489 15.5426 7.37802 15.5084 7.16959 15.4819C7.12466 15.4765 7.08468 15.4711 7.04425 15.4648C6.76753 15.4199 6.5308 15.326 6.37986 15.1953C6.33494 15.1571 6.16603 14.986 6.10224 14.9123L6.09281 14.8948C6.04846 14.8173 5.97518 14.7605 5.88903 14.7369C5.80289 14.7133 5.7109 14.7249 5.63326 14.769C5.14511 15.0487 4.77151 15.3573 4.51246 15.6948ZM7.67765 17.2024C7.54289 17.8673 6.94902 19.0568 6.23386 19.059H6.23117C5.80666 19.059 5.47423 18.7046 5.27029 18.4063C5.0139 18.0262 4.84161 17.5957 4.76492 17.1436C4.67507 16.5111 4.98279 15.9846 5.72804 15.5012C5.80216 15.5771 5.90414 15.6778 5.93873 15.7074C6.25318 15.977 6.65748 16.0879 6.94003 16.1319C6.98496 16.1391 7.03527 16.145 7.08468 16.1512C7.22753 16.1692 7.42295 16.1962 7.47236 16.2573C7.67496 16.5147 7.74773 16.8502 7.67765 17.2024ZM6.24599 20.4417C5.62171 20.3986 5.02472 20.1692 4.53222 19.7832C4.73676 19.7116 4.9184 19.5866 5.05826 19.4211C5.09229 19.3799 5.12365 19.3365 5.15214 19.2913C5.47962 19.5819 5.84529 19.7329 6.23027 19.7329H6.23566C6.58515 19.7329 6.92207 19.5941 7.23068 19.3317C7.25134 19.3605 7.27291 19.3892 7.29627 19.4166C7.44805 19.5954 7.6484 19.7263 7.87306 19.7935L8.20953 19.8964C7.78052 20.1816 7.09996 20.4983 6.24599 20.4417ZM21.7629 10.1438C21.1759 9.87371 20.5535 9.68842 19.9144 9.59355C18.7896 9.4298 17.6418 9.54472 16.5717 9.92822C16.3606 7.74143 15.8444 5.71141 15.1037 4.17014C14.7519 3.43791 14.3706 2.85482 13.9761 2.4348C18.1961 3.04619 21.4754 6.2316 21.7629 10.1438ZM8.50197 9.89453C7.40258 9.52027 6.22916 9.41656 5.08117 9.59221C4.44338 9.69164 3.82219 9.87784 3.23488 10.1456C3.52283 6.22666 6.81335 3.03496 11.0454 2.43166C10.6519 2.85348 10.2737 3.44061 9.92554 4.17777C9.2023 5.71096 8.70232 7.7275 8.50197 9.89453ZM9.1758 9.93451C9.36851 7.85104 9.84603 5.92254 10.5342 4.46348C11.1555 3.15041 11.9084 2.33193 12.5 2.32879H12.5063C12.9744 2.33104 13.7408 2.89166 14.4954 4.46213C15.2003 5.92838 15.6931 7.86945 15.8979 9.96955C13.6857 9.47483 11.3928 9.46349 9.1758 9.93631V9.93451ZM11.0998 16.538L11.0306 16.2451C10.9996 16.1145 10.9988 15.9786 11.0284 15.8477C11.0579 15.7167 11.1169 15.5942 11.2009 15.4896C11.2821 15.3866 11.3857 15.3035 11.5037 15.2465C11.6218 15.1894 11.7512 15.16 11.8823 15.1603H11.9012C12.1177 15.163 12.2754 15.1953 12.5139 15.2447L12.6366 15.2699C12.8221 15.3072 13.0126 15.3427 13.2035 15.3745C13.3227 15.3944 13.4366 15.4384 13.5381 15.504C13.6396 15.5696 13.7266 15.6553 13.7936 15.7559C13.8607 15.8564 13.9063 15.9697 13.9278 16.0886C13.9494 16.2075 13.9462 16.3296 13.9186 16.4473L13.8993 16.5304C13.7612 16.4609 13.61 16.4215 13.4555 16.4149C13.3144 16.401 13.2309 16.3902 13.141 16.3251C12.5476 15.8853 12.053 16.2591 11.8666 16.3997C11.8033 16.4473 11.7287 16.45 11.5908 16.4504C11.4529 16.4509 11.275 16.4531 11.1007 16.543L11.0998 16.538ZM11.3244 17.5142C11.3118 17.3345 11.3361 17.1997 11.3891 17.1503C11.4165 17.1261 11.4727 17.1234 11.5939 17.1229C11.7772 17.1229 12.0283 17.1229 12.2736 16.936C12.4151 16.8291 12.5018 16.7891 12.5714 16.7891C12.633 16.7891 12.681 16.821 12.7408 16.8655C12.9847 17.0452 13.2197 17.0686 13.3913 17.0856C13.526 17.0991 13.5669 17.1067 13.5993 17.1386C13.6599 17.1988 13.6891 17.3331 13.6761 17.5173C13.6761 17.5241 13.6761 17.5308 13.6761 17.5375V18.1363C13.6761 18.448 13.5523 18.7469 13.3319 18.9673C13.1115 19.1877 12.8126 19.3115 12.5009 19.3115C12.1892 19.3115 11.8903 19.1877 11.67 18.9673C11.4496 18.7469 11.3258 18.448 11.3258 18.1363V17.5407C11.3249 17.5312 11.3244 17.525 11.324 17.5173L11.3244 17.5142ZM12.513 21.0051C12.0697 20.9747 11.643 20.8236 11.2795 20.568C11.4224 20.5029 11.5486 20.4062 11.6487 20.2851C11.7488 20.1641 11.82 20.022 11.8572 19.8694C12.2664 20.0218 12.7164 20.024 13.1271 19.8757C13.1718 20.0488 13.2602 20.2075 13.3839 20.3366C13.5075 20.4657 13.6623 20.5608 13.8333 20.6129L13.9402 20.6457C13.5127 20.9098 13.0144 21.0364 12.5126 21.0082L12.513 21.0051ZM17.1849 14.6585L17.113 14.3283C17.072 14.1426 17.0728 13.9501 17.1154 13.7647C17.1579 13.5793 17.2412 13.4057 17.3592 13.2565C17.4508 13.1378 17.5682 13.0415 17.7026 12.9748C17.8369 12.9082 17.9846 12.873 18.1346 12.872H18.1593C18.4095 12.8755 18.5914 12.9169 18.8663 12.9784L19.0011 13.009C19.214 13.0539 19.4324 13.0988 19.6498 13.1388C19.7887 13.1657 19.9208 13.2205 20.038 13.2999C20.1552 13.3792 20.2551 13.4815 20.3317 13.6006C20.4255 13.7435 20.4898 13.9039 20.5206 14.0721C20.5515 14.2402 20.5484 14.4129 20.5114 14.5799L20.4885 14.6872C20.2836 14.5296 20.0653 14.5076 19.8865 14.4927C19.7378 14.4788 19.6206 14.4685 19.5029 14.3863C18.9391 13.9941 18.4737 14.2223 18.1314 14.4653C18.0465 14.5255 17.9495 14.5287 17.7851 14.5291C17.6207 14.5296 17.3925 14.5336 17.1831 14.6616L17.1849 14.6585ZM20.1861 15.8831V16.299C20.1861 17.0695 19.4948 18.1408 18.8138 18.1408C18.1328 18.1408 17.4414 17.0726 17.4414 16.3022V15.6665C17.4419 15.6583 17.4419 15.6501 17.4414 15.6418C17.427 15.4433 17.4553 15.3031 17.5214 15.2474C17.5663 15.2106 17.6368 15.2065 17.7909 15.2061C17.9895 15.2061 18.2612 15.2061 18.5245 15.0179C18.688 14.9024 18.7972 14.8526 18.8924 14.8526C18.9763 14.8576 19.0565 14.8891 19.1215 14.9424C19.3852 15.1257 19.6412 15.149 19.8286 15.167C19.9867 15.1814 20.0464 15.1904 20.0959 15.2362C20.1879 15.322 20.1969 15.5057 20.1879 15.6454C20.1879 15.6526 20.1879 15.6594 20.1879 15.6665V15.8844C20.1879 15.8844 20.1844 15.8858 20.1844 15.8862L20.1861 15.8831ZM17.3574 20.7656L16.6387 19.9427L17.1068 19.7998C17.2253 19.7638 17.3376 19.7097 17.4396 19.6394L18.1943 20.0931L17.3574 20.7656ZM18.7949 19.6691L17.8695 19.1125C17.9311 18.9687 17.9645 18.8143 17.9679 18.6579L17.98 18.5595C18.2224 18.7264 18.5093 18.8166 18.8036 18.8183C19.0978 18.8199 19.3858 18.7331 19.63 18.5689C19.63 18.591 19.63 18.6139 19.63 18.6332C19.6304 18.7305 19.6423 18.8275 19.6655 18.922C19.6813 18.9856 19.7024 19.0478 19.7284 19.108L18.7949 19.6691ZM20.2324 20.7661L19.396 20.0922L20.1596 19.6331C20.2612 19.7029 20.3729 19.7567 20.4907 19.7926L20.9593 19.9355L20.2324 20.7661Z" fill="#4D478B" stroke="#4D478B" stroke-width="0.3"/>
</g>
<defs>
<clipPath id="clip0_0_311">
<rect width="25" height="25" fill="white"/>
</clipPath>
</defs>
</svg>
