<svg width="22" height="22" viewBox="0 0 22 22" fill="none" xmlns="http://www.w3.org/2000/svg">
<g clip-path="url(#clip0_0_329)">
<path d="M21.4365 13.8505L20.3536 12.7677L20.3535 12.7675L20.3533 12.7674L18.7301 11.1443L18.729 11.1427L18.7274 11.1416L17.1058 9.5201L17.1045 9.51818L17.1026 9.51692L15.4793 7.89369C15.3118 7.72795 15.0971 7.61813 14.8647 7.57931C14.6323 7.54049 14.3936 7.57458 14.1814 7.67689L11.1503 4.64623C10.8342 4.32834 10.4585 4.07592 10.0447 3.90341C9.63092 3.73091 9.18717 3.64172 8.73886 3.64093C8.70553 2.93666 8.47801 2.25533 8.08148 1.67233C7.68495 1.08934 7.13487 0.627407 6.4921 0.337646C5.84933 0.0478844 5.13893 -0.0584093 4.43949 0.0305256C3.74006 0.119461 3.07887 0.400157 2.52906 0.841557C2.48708 0.875224 2.45266 0.917359 2.42805 0.965218C2.40344 1.01308 2.38918 1.06558 2.38622 1.11932C2.38326 1.17305 2.39165 1.22681 2.41085 1.27708C2.43005 1.32735 2.45963 1.37302 2.49766 1.4111L3.59261 2.50643C3.65543 2.56892 3.73791 2.60779 3.8261 2.61644C3.91428 2.62509 4.00275 2.603 4.07652 2.55391C4.3715 2.35937 4.72465 2.27276 5.07616 2.30874C5.42768 2.34473 5.75595 2.50109 6.0054 2.75136C6.24413 2.98872 6.39709 3.29877 6.4402 3.63264C6.4833 3.96652 6.41409 4.30525 6.24347 4.59545C5.8628 4.61762 5.50419 4.7814 5.23817 5.05459C4.97215 5.32779 4.81796 5.69062 4.80593 6.07175L4.67635 6.19104C4.38237 6.38555 4.03021 6.47249 3.67948 6.43716C3.32876 6.40183 3.00101 6.24639 2.75173 5.99715C2.50246 5.74792 2.34695 5.42021 2.31156 5.06949C2.27616 4.71877 2.36304 4.36659 2.55748 4.07257C2.60688 3.99893 2.62918 3.91044 2.62059 3.82219C2.612 3.73393 2.57305 3.6514 2.51038 3.58867L1.41541 2.49334C1.37825 2.4541 1.33274 2.42372 1.28225 2.40443C1.23176 2.38515 1.17758 2.37746 1.12372 2.38194C1.07004 2.38477 1.01757 2.39893 0.969748 2.42348C0.921927 2.44803 0.879839 2.48242 0.846248 2.52439C0.40312 3.07281 0.120915 3.73347 0.0310594 4.4328C-0.0587966 5.13213 0.047223 5.84267 0.337312 6.48531C0.627401 7.12794 1.09017 7.67745 1.6741 8.07263C2.25802 8.46781 2.94017 8.69315 3.64459 8.72357C3.64448 9.17367 3.73325 9.61936 3.90581 10.0351C4.07838 10.4508 4.33134 10.8283 4.65018 11.146L7.68112 14.177C7.5787 14.3892 7.54453 14.628 7.58329 14.8605C7.62206 15.093 7.73188 15.3078 7.89764 15.4753L13.8548 21.4322C14.0326 21.61 14.2436 21.751 14.4759 21.8472C14.7082 21.9434 14.9571 21.9929 15.2085 21.9929C15.46 21.9929 15.7089 21.9434 15.9412 21.8472C16.1735 21.751 16.3845 21.61 16.5623 21.4322C16.7401 21.2544 16.8811 21.0434 16.9773 20.8111C17.0735 20.5788 17.123 20.3299 17.123 20.0784C17.123 19.827 17.0735 19.5781 16.9773 19.3458C16.8811 19.1135 16.7401 18.9025 16.5623 18.7247L15.4798 17.642L15.4793 17.6413L15.4786 17.6409L13.8549 16.0169L13.8548 16.0169L13.8547 16.0168L12.2308 14.3926L12.2303 14.392L12.2297 14.3916L10.6059 12.7675C10.4381 12.6017 10.2231 12.4919 9.99035 12.4532C9.75764 12.4146 9.51867 12.449 9.3063 12.5517L6.27091 9.5163C6.05575 9.30045 5.93493 9.00811 5.93493 8.70333C5.93493 8.39856 6.05575 8.10621 6.27091 7.89036L6.53142 7.62985C6.86425 7.58611 7.17335 7.43377 7.41078 7.19645C7.6482 6.95914 7.80069 6.65011 7.84458 6.3173L7.89465 6.267C8.1105 6.05184 8.40284 5.93102 8.70762 5.93102C9.01239 5.93102 9.30474 6.05184 9.52059 6.267L12.556 9.30201C12.4532 9.5143 12.4188 9.75323 12.4574 9.9859C12.4961 10.2186 12.6059 10.4335 12.7718 10.6012L14.3956 12.2249L14.3963 12.226L14.3974 12.2268L16.0201 13.8494L16.0208 13.8505L16.0219 13.8513L18.729 16.5584C18.9067 16.7367 19.1178 16.8783 19.3503 16.9749C19.5827 17.0716 19.8319 17.1214 20.0837 17.1217C20.3354 17.1219 20.5847 17.0725 20.8173 16.9762C21.05 16.88 21.2613 16.7388 21.4393 16.5608C21.6173 16.3828 21.7585 16.1714 21.8547 15.9388C21.9509 15.7061 22.0003 15.4568 22 15.2051C21.9997 14.9533 21.9498 14.7041 21.8531 14.4717C21.7565 14.2393 21.6149 14.0282 21.4365 13.8505L21.4365 13.8505ZM1.66821 7.08108C1.18716 6.60114 0.879693 5.97463 0.794367 5.30048C0.709042 4.62633 0.850718 3.94297 1.19702 3.35831L1.76245 3.92411C1.54829 4.36813 1.48341 4.86949 1.57749 5.35339C1.67157 5.8373 1.91957 6.27783 2.28449 6.60926C2.64942 6.94069 3.11171 7.14527 3.60242 7.19247C4.09312 7.23967 4.58593 7.12697 5.00735 6.87118C5.13955 7.1036 5.33028 7.29738 5.56057 7.43325C5.10634 7.75034 4.57275 7.93466 4.01964 7.96552C3.5872 7.99538 3.15339 7.93185 2.74766 7.77924C2.34194 7.62664 1.97379 7.38853 1.66821 7.08108ZM16.0208 19.2662C16.1275 19.3728 16.2121 19.4995 16.2699 19.6388C16.3276 19.7782 16.3574 19.9276 16.3574 20.0784C16.3574 20.2293 16.3276 20.3787 16.2699 20.518C16.2121 20.6574 16.1275 20.784 16.0208 20.8907C15.8021 21.0998 15.5112 21.2166 15.2086 21.2166C14.9059 21.2166 14.615 21.0998 14.3963 20.8907L13.584 20.0784L15.2084 18.4537L16.0208 19.2662ZM14.667 17.9122L13.0426 19.537L11.9595 18.454L13.5841 16.8291L14.667 17.9122ZM13.0426 16.2876L11.418 17.9126L10.3348 16.8294L11.9595 15.2044L13.0426 16.2876ZM9.5221 13.309C9.59404 13.2372 9.69155 13.1968 9.79321 13.1968C9.89488 13.1968 9.99239 13.2372 10.0643 13.309L11.418 14.6629L9.79321 16.2879L8.4391 14.9339C8.36778 14.8624 8.32757 14.7656 8.32724 14.6647C8.32691 14.5637 8.36647 14.4667 8.43733 14.3947L8.4391 14.3935L8.44205 14.3891L9.5221 13.309ZM8.70988 13.0382L8.16764 13.5805L5.19169 10.6045C4.9415 10.3519 4.74477 10.0515 4.61324 9.72113C4.48171 9.39081 4.41808 9.03736 4.42615 8.6819C4.68668 8.64584 4.94267 8.5823 5.18982 8.49235C5.15619 8.77707 5.18725 9.06571 5.28068 9.33676C5.37411 9.60781 5.52751 9.85427 5.72945 10.0578L8.70988 13.0382ZM6.33298 6.884C6.18151 6.884 6.03344 6.83908 5.90749 6.75493C5.78154 6.67077 5.68338 6.55116 5.62541 6.41122C5.56745 6.27127 5.55228 6.11728 5.58183 5.96872C5.61138 5.82015 5.68432 5.68369 5.79143 5.57658C5.89854 5.46947 6.03501 5.39653 6.18357 5.36698C6.33213 5.33743 6.48613 5.35259 6.62607 5.41056C6.76601 5.46853 6.88563 5.56669 6.96978 5.69264C7.05394 5.81858 7.09885 5.96666 7.09885 6.11813C7.09865 6.32119 7.0179 6.51588 6.87431 6.65946C6.73073 6.80304 6.53604 6.8838 6.33298 6.884ZM7.61389 5.28275C7.46528 5.05816 7.26022 4.8766 7.0193 4.75626C7.20887 4.32713 7.26241 3.85022 7.17268 3.38974C7.08296 2.92926 6.85429 2.50733 6.51746 2.18077C6.18064 1.85422 5.75183 1.63871 5.2888 1.56328C4.82577 1.48785 4.35074 1.55611 3.92768 1.75888L3.36225 1.19308C3.9469 0.846601 4.63033 0.704793 5.30456 0.790055C5.97879 0.875317 6.6054 1.18279 7.0854 1.66389C7.54735 2.13222 7.84772 2.73579 7.94278 3.3867C8.03784 4.03762 7.92262 4.70188 7.61389 5.28275ZM10.0621 5.72547C9.85892 5.52356 9.61276 5.37013 9.342 5.27661C9.07123 5.18309 8.78285 5.15191 8.49836 5.18538C8.58782 4.93827 8.65101 4.68243 8.68688 4.42208C9.04224 4.41403 9.39559 4.47768 9.72581 4.60923C10.056 4.74077 10.3564 4.93752 10.6088 5.18771L13.585 8.1635L13.0428 8.70574L10.0621 5.72547ZM13.3133 10.0597C13.2778 10.0241 13.2496 9.98191 13.2303 9.93546C13.2111 9.889 13.2012 9.83921 13.2012 9.78893C13.2012 9.73865 13.2111 9.68886 13.2303 9.6424C13.2496 9.59595 13.2778 9.55374 13.3133 9.5182L14.3945 8.43703L14.3978 8.43483L14.3986 8.43372C14.4705 8.36278 14.5675 8.32313 14.6685 8.32342C14.7695 8.32371 14.8663 8.3639 14.9378 8.43525L16.2919 9.78931L14.6673 11.4137L13.3133 10.0597ZM15.2088 11.9551L16.8335 10.3307L17.9164 11.4137L16.2918 13.0381L15.2088 11.9551ZM16.8333 13.5796L18.458 11.9551L19.5413 13.0383L17.9168 14.6631L16.8333 13.5796ZM20.895 16.0168C20.6793 16.2317 20.3872 16.3523 20.0827 16.3523C19.7783 16.3523 19.4862 16.2317 19.2705 16.0168L18.4583 15.2046L20.0827 13.5798L20.895 14.392C21.1102 14.6076 21.231 14.8998 21.231 15.2044C21.231 15.509 21.1101 15.8012 20.895 16.0169L20.895 16.0168Z" fill="white"/>
</g>
<defs>
<clipPath id="clip0_0_329">
<rect width="22" height="22" fill="white"/>
</clipPath>
</defs>
</svg>
