<svg width="22" height="22" viewBox="0 0 22 22" fill="none" xmlns="http://www.w3.org/2000/svg">
<g clip-path="url(#clip0_0_315)">
<path d="M20.8573 14.5192C20.5041 14.2295 20.0907 14.0227 19.6474 13.9138C19.2041 13.8049 18.7421 13.7968 18.2953 13.89C18.1638 13.9193 18.035 13.9415 17.9046 13.9668C17.8515 13.7178 17.7852 13.4717 17.7058 13.2298C17.6045 12.9201 17.6057 12.5859 17.7092 12.2769L18.6807 9.39622C18.8628 8.85631 18.8936 8.27664 18.7697 7.7204C18.6458 7.16416 18.3719 6.6527 17.9778 6.24178C17.5838 5.83086 17.0848 5.53626 16.5352 5.3901C15.9856 5.24394 15.4066 5.25182 14.8612 5.41289L13.4425 5.83182C13.1664 5.91325 12.8727 5.91325 12.5966 5.83182L11.1786 5.41289C10.6332 5.25174 10.0541 5.2438 9.50443 5.38993C8.95481 5.53607 8.45576 5.83067 8.06172 6.24161C7.66768 6.65255 7.39378 7.16405 7.26987 7.72033C7.14597 8.27661 7.17683 8.85631 7.35908 9.39622L8.33058 12.2769C8.43755 12.5987 8.43424 12.9471 8.32118 13.2668C8.1896 13.672 8.09495 14.0884 8.0384 14.5107C7.5205 14.4678 7.05175 14.4204 6.60184 14.3654L6.06133 12.7568L7.03883 12.427C7.08169 12.4127 7.12132 12.3901 7.15543 12.3604C7.18953 12.3307 7.21744 12.2946 7.23753 12.254C7.25763 12.2135 7.26952 12.1694 7.27252 12.1242C7.27552 12.079 7.26957 12.0337 7.25501 11.9909L4.73151 4.4802L5.05756 4.37012C5.10043 4.35581 5.14006 4.33315 5.17418 4.30346C5.2083 4.27376 5.23625 4.23761 5.25641 4.19707C5.27657 4.15654 5.28856 4.11241 5.29168 4.06723C5.2948 4.02204 5.289 3.97668 5.2746 3.93375C5.2602 3.89081 5.2375 3.85114 5.20778 3.81702C5.17807 3.78289 5.14193 3.75498 5.10144 3.73488C5.06095 3.71477 5.01689 3.70288 4.9718 3.69987C4.92672 3.69686 4.88148 3.70279 4.83868 3.71734L4.18677 3.9374L3.82678 4.05891L2.72938 0.792891L3.08903 0.671461C3.13207 0.657283 3.17189 0.634712 3.20619 0.605046C3.2405 0.57538 3.26861 0.539206 3.28891 0.498606C3.3092 0.458005 3.32129 0.413781 3.32447 0.36848C3.32764 0.323179 3.32185 0.277695 3.30742 0.234648C3.29298 0.191601 3.2702 0.15184 3.24037 0.117655C3.21055 0.0834709 3.17427 0.0555378 3.13363 0.0354644C3.09299 0.015391 3.04879 0.00357387 3.00358 0.000693383C2.95836 -0.00218711 2.91303 0.00392596 2.87018 0.0186806L0.950129 0.667092H0.950019L0.949936 0.667133L0.264533 0.898596C0.187264 0.924631 0.121743 0.977351 0.0796757 1.04734C0.0376081 1.11733 0.021733 1.20003 0.0348859 1.28067C0.0480388 1.36131 0.0893631 1.43464 0.151478 1.48756C0.213592 1.54048 0.292451 1.56954 0.37397 1.56955C0.4112 1.56959 0.448179 1.56345 0.483406 1.55138L0.843477 1.42978L1.94077 4.69559L0.929208 5.03704C0.851938 5.06307 0.786418 5.11579 0.74435 5.18578C0.702283 5.25577 0.686408 5.33847 0.699561 5.41911C0.712714 5.49975 0.754038 5.57308 0.816152 5.626C0.878267 5.67892 0.957126 5.70798 1.03864 5.70799C1.07587 5.70803 1.11285 5.70189 1.14808 5.68982L1.47454 5.57962L2.02272 7.21153L2.02289 7.21275L2.02335 7.21339L2.68068 9.17014L2.68085 9.17144L2.68135 9.17213L3.99744 13.0898C4.01171 13.1328 4.03431 13.1725 4.06393 13.2066C4.09355 13.2408 4.12961 13.2687 4.17003 13.2888C4.21046 13.309 4.25446 13.3209 4.2995 13.3239C4.34454 13.327 4.38974 13.3211 4.43249 13.3065L5.4102 12.9765L5.84106 14.2588C5.10086 14.1528 4.38881 14.0343 3.69934 13.8893C3.2533 13.7965 2.79221 13.805 2.34983 13.914C1.90746 14.0229 1.49501 14.2297 1.1427 14.5192C0.785112 14.8099 0.496903 15.177 0.299185 15.5938C0.101466 16.0105 -0.000755884 16.4663 4.20795e-06 16.9278V21.6554C-2.20014e-05 21.7007 0.00885146 21.7455 0.0261172 21.7873C0.043383 21.8291 0.0687024 21.8671 0.100628 21.8991C0.132553 21.9311 0.170458 21.9565 0.212176 21.9738C0.253893 21.9911 0.298605 22 0.343754 22H21.6562C21.7014 22 21.7461 21.9911 21.7878 21.9738C21.8295 21.9565 21.8674 21.9311 21.8994 21.8991C21.9313 21.8671 21.9566 21.8291 21.9739 21.7873C21.9911 21.7455 22 21.7007 22 21.6554V16.9278C22.0008 16.4663 21.8985 16.0105 21.7008 15.5938C21.5031 15.177 21.2149 14.8099 20.8573 14.5192ZM8.01032 9.17549C7.8881 8.81204 7.85349 8.42475 7.90932 8.04532C7.96516 7.66588 8.10985 7.3051 8.33155 6.9925C8.55326 6.6799 8.84566 6.42438 9.18484 6.24685C9.52402 6.06932 9.90032 5.97483 10.2829 5.97112C10.5203 5.97153 10.7563 6.00609 10.9839 6.07376L12.4018 6.49268C12.4603 6.50991 12.52 6.51918 12.5792 6.53142C12.3594 6.80874 12.2047 7.13213 12.1266 7.47758C12.1069 7.56687 12.1235 7.66031 12.1726 7.73736C12.2217 7.8144 12.2993 7.86874 12.3884 7.88843C12.4127 7.89374 12.4374 7.89645 12.4623 7.89651C12.5405 7.89643 12.6164 7.86963 12.6774 7.82051C12.7385 7.77139 12.781 7.70289 12.7979 7.62631C12.855 7.37244 12.9698 7.13523 13.1335 6.93323C13.2972 6.73123 13.5052 6.56991 13.7414 6.4619L15.0558 6.07376C15.4805 5.94854 15.9313 5.94256 16.3591 6.05646C16.787 6.17036 17.1754 6.39978 17.4821 6.71971C17.7888 7.03964 18.002 7.43782 18.0985 7.87085C18.195 8.30389 18.1711 8.75516 18.0294 9.17551L17.0579 12.0562C16.9067 12.507 16.905 12.9947 17.0532 13.4465C17.327 14.2801 17.4307 15.1605 17.3582 16.0351C17.2856 16.9097 17.0383 17.7607 16.6309 18.5376L16.3429 19.0841C16.3232 19.1294 16.2896 19.1673 16.247 19.1922C16.2044 19.2171 16.155 19.2278 16.1059 19.2227C16.0572 19.2221 16.0096 19.2075 15.9689 19.1807C15.9282 19.1539 15.8961 19.1159 15.8763 19.0713L14.3422 15.7151C14.2261 15.4613 14.0399 15.2462 13.8055 15.0954C13.5711 14.9446 13.2984 14.8645 13.0199 14.8645C12.7413 14.8645 12.4687 14.9446 12.2343 15.0954C11.9999 15.2462 11.8136 15.4613 11.6976 15.7151L10.1621 19.0712C10.1426 19.1158 10.1107 19.1538 10.0702 19.1807C10.0298 19.2075 9.98241 19.2221 9.93386 19.2227C9.88473 19.2276 9.8353 19.2168 9.79263 19.1919C9.74995 19.167 9.71621 19.1293 9.69619 19.084L9.38937 18.5006C8.98659 17.7297 8.74308 16.8854 8.6734 16.018C8.60373 15.1506 8.70931 14.2781 8.98385 13.4526C9.13628 12.9995 9.13557 12.5088 8.98184 12.0562L8.01032 9.17549ZM1.49476 1.20984L2.07811 1.01283L3.1755 4.27877L2.88395 4.37719L2.59211 4.47569L1.49476 1.20984ZM4.53925 12.5434L4.10062 11.2376L4.42646 11.1274C4.51205 11.0976 4.58241 11.035 4.62222 10.9534C4.66204 10.8718 4.66809 10.7777 4.63906 10.6917C4.61003 10.6056 4.54826 10.5345 4.46721 10.4939C4.38615 10.4532 4.29236 10.4463 4.20624 10.4747L3.88125 10.5845L3.4425 9.2784L3.76783 9.16875C3.85404 9.13947 3.92515 9.07712 3.96557 8.99536C4.00598 8.91361 4.01241 8.81913 3.98344 8.73264C3.95447 8.64614 3.89246 8.57469 3.81102 8.53395C3.72957 8.49321 3.63533 8.4865 3.54896 8.5153L3.22309 8.62511L2.78434 7.31904L3.10987 7.20905C3.19547 7.17918 3.26583 7.11663 3.30564 7.03502C3.34546 6.95341 3.35151 6.85934 3.32247 6.77328C3.29344 6.68722 3.23168 6.61614 3.15062 6.5755C3.06957 6.53485 2.97578 6.52794 2.88966 6.55627L2.56496 6.666L2.12628 5.36006L4.08002 4.70021L6.49365 11.8839L4.53925 12.5434ZM21.3125 21.3109H0.687504V16.9278C0.687012 16.5687 0.76664 16.214 0.920561 15.8897C1.07448 15.5654 1.2988 15.2797 1.57709 15.0536C1.85018 14.8288 2.16996 14.6682 2.51301 14.5834C2.85607 14.4987 3.2137 14.4919 3.5597 14.5636C4.36948 14.7345 5.20296 14.873 6.08734 14.9916L6.72595 16.8922C6.75515 16.9785 6.81732 17.0497 6.89882 17.0902C6.98033 17.1306 7.07451 17.137 7.16072 17.108C7.24694 17.079 7.31814 17.0168 7.35872 16.9352C7.3993 16.8536 7.40595 16.7593 7.3772 16.6728L6.84475 15.0882C7.20156 15.1282 7.57552 15.164 7.97692 15.1975C7.9208 16.4558 8.19826 17.7064 8.78107 18.8222L9.0879 19.4057C9.1679 19.5589 9.28834 19.6872 9.43609 19.7766C9.58384 19.866 9.75323 19.9129 9.92579 19.9124L9.95398 19.9117C10.1308 19.9074 10.3028 19.8531 10.4501 19.7551C10.5975 19.6571 10.7144 19.5194 10.7872 19.3579L12.322 16.0018C12.3834 15.868 12.4817 15.7547 12.6054 15.6753C12.7291 15.5958 12.873 15.5536 13.0199 15.5536C13.1668 15.5536 13.3106 15.5958 13.4343 15.6753C13.558 15.7547 13.6564 15.868 13.7178 16.0018L15.2519 19.3579C15.325 19.5197 15.4421 19.6575 15.5899 19.7555C15.7376 19.8534 15.91 19.9076 16.0871 19.9118C16.2629 19.9114 16.4354 19.8644 16.5872 19.7755C16.739 19.6866 16.8646 19.559 16.9512 19.4057L17.2392 18.8592C17.9171 17.566 18.1889 16.0975 18.0188 14.6466C18.1595 14.6194 18.2999 14.5951 18.439 14.5637C18.7852 14.4914 19.1431 14.4978 19.4865 14.5826C19.8299 14.6674 20.1499 14.8284 20.4229 15.0536C20.7012 15.2798 20.9255 15.5654 21.0794 15.8897C21.2334 16.214 21.313 16.5687 21.3125 16.9278V21.3109Z" fill="white"/>
</g>
<defs>
<clipPath id="clip0_0_315">
<rect width="22" height="22" fill="white"/>
</clipPath>
</defs>
</svg>
