<svg width="22" height="22" viewBox="0 0 22 22" fill="none" xmlns="http://www.w3.org/2000/svg">
<path d="M21.8079 10.212C21.8411 10.0793 21.87 9.94795 21.8946 9.81795C21.9085 9.74475 21.9227 9.67148 21.9339 9.5992C21.9541 9.46686 21.968 9.33651 21.979 9.20718C21.9886 9.09634 21.9941 8.98713 21.997 8.87863C21.9998 8.76723 22.0018 8.65606 21.9975 8.54701C21.9963 8.51487 21.9996 8.481 21.9977 8.44905C21.9952 8.43329 21.9915 8.41773 21.9867 8.4025C21.9175 7.60124 21.6505 6.82969 21.2096 6.15707C20.7687 5.48445 20.1678 4.9318 19.4606 4.54872C18.4318 3.88893 17.2693 3.46594 16.0571 3.31032C14.8448 3.1547 13.6132 3.27033 12.4511 3.64887C12.3329 3.6905 12.2154 3.73414 12.0972 3.77848C11.6513 3.98008 11.1705 4.09299 10.6815 4.11089C10.0547 4.03747 9.44405 3.86213 8.87375 3.59178C8.22906 3.2905 7.53948 3.09655 6.83226 3.01759C5.36734 2.9117 3.90782 3.28607 2.67474 4.084C1.99423 4.51328 1.41212 5.08153 0.966564 5.75149C0.521005 6.42146 0.222053 7.17802 0.0893012 7.97159C0.0306444 8.32584 0.0023795 8.68447 0.00481528 9.04354C0.0040176 9.05353 -9.46092e-05 9.06279 1.66317e-06 9.07292C8.41824e-05 9.08667 0.00319241 9.10049 0.00335744 9.11426C0.00735467 9.41714 0.0318755 9.7194 0.0767514 10.019C0.0829403 10.0612 0.0912748 10.103 0.098282 10.1452C0.146585 10.4414 0.213479 10.7342 0.29857 11.022C0.30306 11.0369 0.305955 11.052 0.310535 11.067C0.40248 11.3622 0.512228 11.6516 0.639175 11.9335C0.666681 11.9955 0.695666 12.0567 0.724919 12.1182C0.858684 12.4044 1.00903 12.6825 1.17519 12.9511C2.23913 14.6574 3.71516 16.0688 5.46743 17.0552C7.2197 18.0417 9.19194 18.5716 11.2027 18.5961C11.5102 18.5961 11.8191 18.5834 12.1274 18.5572C14.2483 18.305 16.2563 17.4644 17.9244 16.1305C19.5925 14.7965 20.8541 13.0225 21.5666 11.009C21.6408 10.8056 21.7025 10.6059 21.7577 10.4082C21.7762 10.3423 21.7916 10.2774 21.8079 10.212ZM8.55007 7.30139C8.67842 7.32091 8.81126 7.33774 8.94158 7.35671V8.51151C8.9414 8.60264 8.90512 8.68999 8.84068 8.75443C8.77623 8.81887 8.68889 8.85516 8.59775 8.85534H7.22243C6.94896 8.85504 6.68677 8.74627 6.49339 8.55289C6.30001 8.35952 6.19124 8.09733 6.19094 7.82385V7.14437C6.26808 7.13887 6.34481 7.12574 6.42195 7.12209C7.13553 7.11064 7.84847 7.1707 8.55007 7.30139ZM10.3162 7.49412C10.9957 7.48322 11.6704 7.37905 12.3214 7.18454L12.3799 7.17019V7.82385C12.3796 8.09733 12.2708 8.35952 12.0775 8.55289C11.8841 8.74627 11.6219 8.85504 11.3484 8.85534H10.6607C10.3873 8.85504 10.1251 8.74627 9.9317 8.55289C9.73832 8.35952 9.62955 8.09733 9.62926 7.82385V7.44057C9.85647 7.46407 10.0839 7.48796 10.3162 7.49412ZM17.3399 7.2517C17.9213 7.38153 18.4946 7.54516 19.057 7.74176C18.9609 7.87251 18.8357 7.97908 18.6913 8.05301C18.5469 8.12694 18.3872 8.16621 18.225 8.16768H16.8497C16.7585 8.1675 16.6712 8.13121 16.6067 8.06677C16.5423 8.00233 16.506 7.91498 16.5058 7.82385V7.0904C16.8022 7.1416 17.0841 7.196 17.3399 7.2517ZM13.0675 7.82383V7.01115C13.381 6.94235 13.7003 6.90373 14.0211 6.89581C14.6216 6.88414 15.2221 6.91493 15.8182 6.98796V7.8239C15.8179 8.09738 15.7091 8.35957 15.5157 8.55295C15.3224 8.74633 15.0602 8.8551 14.7867 8.85539H13.4114C13.3202 8.85521 13.2329 8.81893 13.1684 8.75449C13.104 8.69005 13.0677 8.6027 13.0675 8.51156V7.82383ZM5.50328 7.21075V7.82383C5.5031 7.91496 5.46682 8.00231 5.40238 8.06675C5.33793 8.13119 5.25059 8.16748 5.15945 8.16766H3.78413C3.5233 8.16555 3.27325 8.06331 3.08564 7.88209C3.85993 7.55711 4.67228 7.33154 5.50328 7.21077V7.21075ZM2.43076 8.17095C2.58786 8.38212 2.79191 8.55388 3.02679 8.67265C3.26166 8.79143 3.52094 8.85397 3.78413 8.85534H5.15945C5.3661 8.85547 5.56796 8.79317 5.73857 8.67658C5.8877 8.93888 6.10346 9.15714 6.36402 9.30928C6.62459 9.46142 6.92071 9.54204 7.22243 9.543H8.59775C8.77214 9.54264 8.94357 9.49797 9.09596 9.41318C9.24834 9.32839 9.37668 9.20626 9.46891 9.05827C9.78798 9.36877 10.2155 9.54266 10.6607 9.543H11.3484C11.7936 9.54266 12.2211 9.36877 12.5402 9.05827C12.6324 9.20626 12.7608 9.32839 12.9132 9.41318C13.0656 9.49797 13.237 9.54264 13.4114 9.543H14.7867C15.0884 9.54204 15.3845 9.46142 15.6451 9.30928C15.9057 9.15714 16.1214 8.93888 16.2706 8.67658C16.4412 8.79317 16.643 8.85547 16.8497 8.85534H18.225C18.5274 8.85503 18.8244 8.77472 19.0857 8.62256C19.3471 8.4704 19.5635 8.2518 19.7131 7.98896C20.1678 8.16969 20.6184 8.36494 21.0589 8.58945C21.0365 8.62452 21.0148 8.65853 20.989 8.6981C20.9657 8.73377 20.9418 8.77004 20.9157 8.80912C20.8669 8.88219 20.8096 8.96491 20.7513 9.04881C20.7172 9.09792 20.6841 9.14581 20.6467 9.19828C20.5837 9.28675 20.5116 9.38374 20.4395 9.48075C20.3966 9.53829 20.3566 9.59327 20.3107 9.65346C20.2272 9.76262 20.1337 9.87922 20.0399 9.99591C19.9956 10.051 19.9557 10.1032 19.9091 10.1597C19.7645 10.3352 19.61 10.5166 19.4436 10.7025C19.4312 10.7164 19.4167 10.7308 19.4041 10.7447C19.25 10.9158 19.087 11.0894 18.9151 11.2655C18.8511 11.3308 18.7803 11.3966 18.7138 11.4621C18.5868 11.5873 18.4592 11.7126 18.3233 11.8378C18.2395 11.915 18.1494 11.9913 18.0622 12.0681C17.9336 12.1814 17.8042 12.2945 17.6684 12.406C17.5976 12.4641 17.5225 12.5203 17.4498 12.5778C17.1697 12.3927 16.8415 12.2939 16.5058 12.2937H15.8181C15.6115 12.2935 15.4096 12.3558 15.239 12.4724C15.0899 12.2101 14.8741 11.9919 14.6136 11.8397C14.353 11.6876 14.0569 11.6069 13.7552 11.606H13.0675C12.8934 11.6064 12.7223 11.6509 12.5701 11.7354C12.4179 11.8199 12.2896 11.9416 12.1972 12.0891C11.8777 11.779 11.4499 11.6057 11.0046 11.606C10.5594 11.6063 10.1318 11.7802 9.81271 12.0907C9.72047 11.9427 9.59214 11.8206 9.43975 11.7358C9.28737 11.651 9.11593 11.6064 8.94155 11.606H8.25389C7.95217 11.607 7.65606 11.6876 7.3955 11.8397C7.13495 11.9919 6.91919 12.2101 6.77006 12.4724C6.59945 12.3558 6.39759 12.2935 6.19094 12.2936H5.50328C5.06531 12.2912 4.64352 12.459 4.32691 12.7616C3.49088 12.134 2.72314 11.4202 2.03635 10.6321L2.02204 10.6153C1.89373 10.4672 1.7747 10.3233 1.6636 10.1842C1.63859 10.1526 1.6155 10.1225 1.5914 10.0915C1.50389 9.97986 1.42066 9.87094 1.34494 9.76748C1.30561 9.7135 1.27048 9.66301 1.23439 9.6116C1.18062 9.53534 1.12668 9.45899 1.08023 9.38903C1.03918 9.32707 1.00464 9.27144 0.969293 9.21497C0.935756 9.16138 0.899619 9.10535 0.871418 9.0572C0.8647 9.04579 0.860801 9.03747 0.854378 9.02635C1.1882 8.80607 1.95212 8.40759 2.43076 8.17095ZM10.9329 15.0711L10.9236 15.0718C10.7162 15.0744 10.5164 15.0581 10.3141 15.0476C10.2002 15.042 10.0853 15.0386 9.97305 15.0291V13.3251C9.97322 13.1211 10.0338 12.9217 10.1472 12.7521C10.2606 12.5826 10.4217 12.4504 10.6102 12.3723C10.7986 12.2942 11.006 12.2737 11.2061 12.3133C11.4062 12.353 11.5901 12.4511 11.7345 12.5952C11.8312 12.6903 11.9078 12.804 11.9596 12.9294C12.0114 13.0548 12.0374 13.1894 12.036 13.3251V14.9858C12.0272 14.987 12.0188 14.9893 12.0099 14.9904C11.6527 15.0375 11.2931 15.0644 10.9329 15.0711ZM9.28541 13.3251V14.9412C9.25591 14.9365 9.22565 14.9335 9.19626 14.9285C9.09923 14.9123 9.00017 14.9003 8.90457 14.8813C8.65224 14.8308 8.40611 14.7686 8.16352 14.7004C8.11088 14.6857 8.05687 14.6735 8.00467 14.658C7.73756 14.5782 7.47705 14.488 7.2224 14.3896V13.3251C7.2227 13.0517 7.33147 12.7895 7.52485 12.5961C7.71823 12.4027 7.98042 12.2939 8.25389 12.2936H8.94156C8.98684 12.2932 9.03176 12.3017 9.0737 12.3188C9.11563 12.3359 9.15372 12.3613 9.18575 12.3933C9.21777 12.4253 9.24308 12.4634 9.26019 12.5053C9.2773 12.5473 9.28586 12.5922 9.28539 12.6375L9.28541 13.3251ZM6.53477 14.0919C5.96893 13.8281 5.42411 13.5213 4.90511 13.1742C5.07929 13.0487 5.28858 12.9812 5.50328 12.9813H6.19094C6.23623 12.9808 6.28115 12.9894 6.32308 13.0065C6.36502 13.0236 6.40311 13.0489 6.43513 13.0809C6.46716 13.113 6.49247 13.1511 6.50957 13.193C6.52668 13.2349 6.53525 13.2798 6.53477 13.3251V14.0919ZM16.1708 13.4727C16.0515 13.546 15.9303 13.6174 15.807 13.6871C15.6985 13.7487 15.5858 13.806 15.4744 13.8647V13.3251C15.4739 13.2798 15.4824 13.2349 15.4996 13.193C15.5167 13.1511 15.542 13.113 15.574 13.0809C15.606 13.0489 15.6441 13.0236 15.686 13.0065C15.728 12.9894 15.7729 12.9808 15.8182 12.9813H16.5058C16.6151 12.9842 16.7232 13.0046 16.826 13.0416C16.7565 13.0904 16.6862 13.1387 16.6153 13.1866C16.4702 13.2843 16.322 13.3796 16.1708 13.4727ZM14.7867 14.1969C14.6668 14.2499 14.5458 14.3014 14.4228 14.3505C14.2894 14.4038 14.1569 14.4579 14.02 14.5061C13.8326 14.572 13.6389 14.6278 13.445 14.6834C13.3111 14.7219 13.1795 14.764 13.0424 14.7971C12.9387 14.8222 12.8293 14.8367 12.7237 14.8586V12.6375C12.7232 12.5922 12.7318 12.5473 12.7489 12.5053C12.766 12.4634 12.7913 12.4253 12.8234 12.3933C12.8554 12.3613 12.8935 12.3359 12.9354 12.3188C12.9773 12.3017 13.0223 12.2932 13.0675 12.2936H13.7552C14.0287 12.2939 14.2909 12.4027 14.4842 12.5961C14.6776 12.7895 14.7864 13.0517 14.7867 13.3251V14.1969ZM0.767561 8.08843C0.884877 7.38831 1.14896 6.72092 1.54246 6.13008C1.93597 5.53925 2.45 5.03833 3.05081 4.66022C4.03702 4.02012 5.18917 3.683 6.36487 3.6905C6.50522 3.6905 6.64625 3.69453 6.78794 3.70393C7.42137 3.77926 8.03843 3.9566 8.61519 4.22908C9.25492 4.52926 9.94002 4.72124 10.6426 4.7972C11.228 4.79419 11.8061 4.66645 12.3382 4.42248C12.4517 4.38018 12.5652 4.3379 12.6774 4.29825C13.7418 3.95363 14.8695 3.84951 15.9791 3.99339C17.0887 4.13728 18.1526 4.52559 19.0939 5.13032L19.0953 5.1317C19.6241 5.42035 20.087 5.81606 20.4543 6.29358C20.8217 6.7711 21.0854 7.31995 21.2288 7.9051C21.1286 7.85528 21.0259 7.8129 20.9251 7.76521C20.7891 7.70096 20.6532 7.63724 20.516 7.57689C20.3171 7.48938 20.1164 7.40825 19.915 7.32901C19.7842 7.27755 19.654 7.22429 19.5223 7.17635C19.2997 7.09534 19.0752 7.02307 18.8501 6.95217C18.737 6.91654 18.625 6.87687 18.5112 6.8438C18.172 6.74513 17.8308 6.6559 17.4869 6.58022C17.1163 6.49913 16.6723 6.41729 16.1791 6.34929C16.1731 6.349 16.1681 6.34586 16.162 6.34586L16.1595 6.34636C15.4484 6.24766 14.7309 6.20148 14.013 6.20819C13.3836 6.23755 12.7599 6.34124 12.1549 6.5171C11.5633 6.69607 10.9502 6.79344 10.3323 6.80653C9.98792 6.79376 9.64447 6.7627 9.3034 6.71349C9.2971 6.71315 9.29177 6.70983 9.28535 6.70983L9.28224 6.71047C9.07167 6.68209 8.86081 6.6528 8.6541 6.62119C7.90721 6.48003 7.14754 6.41791 6.38764 6.43585C6.22034 6.4437 6.05355 6.46813 5.88634 6.48408C5.87342 6.48063 5.8603 6.47797 5.84705 6.47614C5.80904 6.47729 5.77149 6.48485 5.73599 6.49851C4.59712 6.61917 3.48544 6.92413 2.44441 7.40145L2.36437 7.43838L2.34263 7.44854C2.30808 7.46461 2.26738 7.48378 2.22053 7.50604L2.19719 7.51708C2.08525 7.57025 1.94671 7.63737 1.79183 7.71477L1.75158 7.73504C1.68766 7.76711 1.62209 7.8005 1.55486 7.83522L1.50005 7.86356C1.42698 7.90154 1.35333 7.94051 1.27911 7.98046L1.24914 7.99645C1.17258 8.03796 1.09678 8.08011 1.02174 8.12291C0.990796 8.14049 0.961137 8.15798 0.930749 8.17566C0.886258 8.20156 0.84286 8.22729 0.800135 8.25318C0.779148 8.26586 0.756441 8.27863 0.736004 8.29125C0.745398 8.22342 0.755472 8.15559 0.767561 8.08844V8.08843ZM12.069 17.8722C11.8161 17.8932 11.5635 17.905 11.311 17.9074C9.39817 17.9027 7.51792 17.4119 5.84688 16.481C4.17584 15.5501 2.76885 14.2097 1.75809 12.5858C1.29435 11.851 0.970379 11.0368 0.80248 10.1843L0.819734 10.2068C0.843114 10.2385 0.870435 10.2725 0.894819 10.3048C0.948587 10.376 1.00264 10.4474 1.06119 10.5218C1.07508 10.5394 1.08646 10.5554 1.1006 10.5732C1.12197 10.6001 1.1466 10.6288 1.1686 10.656C1.21192 10.7098 1.25808 10.7644 1.30378 10.8195C1.34538 10.8697 1.38403 10.9181 1.42756 10.9692L1.45077 10.9973C1.49178 11.0452 1.5381 11.0951 1.5808 11.1437C1.63495 11.2054 1.68925 11.2664 1.74609 11.3291C1.84988 11.4435 1.95926 11.5591 2.07183 11.676C2.12727 11.7336 2.18015 11.7902 2.2377 11.8482C2.40548 12.0173 2.58043 12.1873 2.76591 12.3576L2.78219 12.3732C2.97165 12.5467 3.1724 12.7193 3.37977 12.8905C3.44478 12.9441 3.51324 12.9963 3.58001 13.0496C3.72889 13.1683 3.88061 13.2856 4.038 13.4012C4.08702 13.4373 4.13358 13.474 4.18339 13.5097C4.18989 13.5142 4.19363 13.5211 4.20058 13.5252C4.20453 13.5275 4.20906 13.5274 4.21305 13.5295C4.23676 13.5463 4.26265 13.562 4.28654 13.5787C4.35558 13.6273 4.42102 13.6776 4.49161 13.7253L4.49312 13.7264C4.58093 13.7857 4.67456 13.8411 4.76468 13.899C4.85043 13.9541 4.93508 14.0092 5.02289 14.0628C5.05705 14.0836 5.08908 14.106 5.12358 14.1266L5.14818 14.1422C5.2974 14.231 5.45385 14.3136 5.60891 14.3974C5.67388 14.4326 5.73591 14.47 5.80189 14.5042C5.81587 14.5114 5.82879 14.5196 5.84277 14.5268C6.09636 14.657 6.35826 14.7786 6.62629 14.8926C6.66398 14.9087 6.70281 14.923 6.74079 14.9387L6.75208 14.9428C6.77537 14.9524 6.80018 14.9598 6.82355 14.9693C6.98928 15.0363 7.15432 15.1043 7.32524 15.1641L7.34635 15.1724C7.39647 15.1898 7.4495 15.2027 7.50005 15.2195C7.60208 15.2533 7.7063 15.2829 7.81009 15.314C8.01437 15.375 8.22189 15.4304 8.43265 15.48C8.54551 15.5064 8.6585 15.5318 8.77325 15.5547C8.99468 15.5989 9.22042 15.6337 9.44878 15.6638C9.5533 15.6776 9.65587 15.6947 9.76184 15.7053C10.102 15.741 10.4437 15.7595 10.7858 15.7608H10.7865C10.8355 15.7608 10.8852 15.7601 10.9342 15.7594C11.305 15.752 11.6752 15.7245 12.043 15.6769C12.1581 15.6626 12.2691 15.641 12.3824 15.623C12.6277 15.5841 12.8698 15.5397 13.1063 15.4847C13.2297 15.4561 13.351 15.4249 13.472 15.3922C13.698 15.3311 13.9195 15.2633 14.1367 15.1889C14.2461 15.1516 14.3563 15.1163 14.4636 15.0759C14.5127 15.0574 14.5648 15.0431 14.6135 15.024C14.6273 15.0186 14.6401 15.0118 14.654 15.0063C14.8406 14.9322 15.0207 14.8497 15.2006 14.7672C15.2182 14.7591 15.2371 14.7527 15.2546 14.7446L15.273 14.7369C15.3103 14.7194 15.349 14.7039 15.386 14.6861C15.6836 14.5435 15.9708 14.3901 16.2493 14.2285C16.3251 14.1845 16.3962 14.1372 16.4707 14.0919C16.6723 13.9694 16.8702 13.8445 17.0612 13.7143C17.1525 13.652 17.2407 13.5887 17.3296 13.5249C17.4513 13.4377 17.5729 13.3511 17.6899 13.2617C17.6944 13.2574 17.7004 13.2558 17.7046 13.2512L17.7061 13.2489C17.7463 13.218 17.7844 13.1865 17.824 13.1554C17.9078 13.0899 17.991 13.0251 18.0723 12.9588C18.2413 12.8207 18.4034 12.6815 18.5617 12.541C18.6206 12.4888 18.682 12.4374 18.7394 12.3849C18.9512 12.1914 19.154 11.9975 19.3453 11.8045C19.3715 11.778 19.3945 11.7523 19.4204 11.7258C19.5845 11.5582 19.7407 11.3924 19.8891 11.2287C19.9448 11.1671 19.9961 11.108 20.0495 11.0473C20.1632 10.9184 20.2722 10.7924 20.3755 10.6685C20.4265 10.6074 20.4756 10.5481 20.5241 10.4885C20.6251 10.3641 20.7194 10.2451 20.8094 10.1285C20.8462 10.0807 20.8842 10.0327 20.9192 9.98652C21.0336 9.83509 21.1399 9.69083 21.2343 9.55791L21.2437 9.54494L21.2511 9.53486C21.1803 9.95715 21.0697 10.3718 20.9207 10.7732C20.2543 12.6644 19.0722 14.3314 17.5079 15.5859C15.9437 16.8404 14.0597 17.6324 12.069 17.8722Z" fill="white"/>
</svg>
