<svg width="22" height="22" viewBox="0 0 22 22" fill="none" xmlns="http://www.w3.org/2000/svg">
<path d="M21.4387 13.0914C21.1705 12.8473 20.832 12.6941 20.4716 12.6538C20.458 12.4362 20.4249 12.2202 20.3726 12.0085C20.3378 11.8778 20.2707 11.7579 20.1774 11.6599C20.0841 11.5619 19.9677 11.489 19.8388 11.4479H19.8381C18.5573 11.0319 17.1769 11.038 15.8998 11.4653C15.7723 11.5076 15.6573 11.5809 15.5652 11.6786C15.4731 11.7764 15.4067 11.8955 15.3721 12.0253C15.288 12.3805 15.2589 12.7464 15.2857 13.1105L14.8605 13.1525C14.5678 13.1794 14.2764 13.1921 13.9836 13.1921H13.5825C13.6194 12.7956 13.5907 12.3957 13.4976 12.0085C13.4628 11.8778 13.3956 11.7579 13.3024 11.6599C13.2091 11.5619 13.0927 11.489 12.9638 11.4479H12.9631C11.6823 11.0319 10.3018 11.038 9.02476 11.4653C8.89727 11.5076 8.78229 11.5809 8.69018 11.6786C8.59806 11.7764 8.53169 11.8955 8.49705 12.0253C8.40524 12.407 8.37689 12.8012 8.41312 13.1921H8.01633C7.72361 13.1921 7.43223 13.1789 7.14219 13.1525L6.70995 13.1099C6.73734 12.7404 6.70786 12.3689 6.62254 12.0084C6.58774 11.8777 6.52061 11.7579 6.42734 11.6599C6.33406 11.5619 6.21764 11.489 6.08878 11.4478H6.08809C4.80729 11.0319 3.4268 11.038 2.14974 11.4653C2.02225 11.5075 1.90727 11.5808 1.81516 11.6786C1.72304 11.7763 1.65667 11.8955 1.62203 12.0252C1.57114 12.2321 1.53876 12.4432 1.52526 12.6558C1.10574 12.7025 0.71817 12.9023 0.43675 13.2169C0.15533 13.5315 -0.00017506 13.9389 1.47893e-07 14.361V18.3484C0.00042246 18.8041 0.18164 19.241 0.503877 19.5632C0.826113 19.8855 1.26304 20.0667 1.71875 20.0671H20.2812C20.737 20.0667 21.1739 19.8855 21.4961 19.5632C21.8184 19.241 21.9996 18.8041 22 18.3484V14.361C21.9997 14.122 21.9496 13.8857 21.853 13.6671C21.7563 13.4486 21.6153 13.2525 21.4387 13.0914ZM16.0394 12.1918C16.0467 12.1727 16.0585 12.1557 16.0738 12.1422C16.0891 12.1288 16.1075 12.1193 16.1274 12.1146C17.262 11.7351 18.4886 11.7306 19.626 12.1018C19.644 12.1069 19.6606 12.1162 19.6743 12.1289C19.6881 12.1416 19.6987 12.1574 19.7052 12.175C19.8805 12.8776 19.7902 13.6203 19.4514 14.2603L19.3641 14.4255L19.0895 13.8266C18.9829 13.594 18.8117 13.3969 18.5963 13.2588C18.381 13.1206 18.1305 13.0472 17.8746 13.0472C17.6188 13.0472 17.3683 13.1206 17.1529 13.2588C16.9376 13.3969 16.7664 13.594 16.6598 13.8266L16.3858 14.4255L16.2892 14.2422C15.9563 13.6128 15.8674 12.8827 16.0394 12.1918H16.0394ZM9.16442 12.1918C9.17167 12.1727 9.18347 12.1557 9.1988 12.1422C9.21414 12.1288 9.23253 12.1193 9.25237 12.1146C10.387 11.7351 11.6136 11.7306 12.751 12.1018C12.769 12.1069 12.7856 12.1162 12.7993 12.1289C12.8131 12.1416 12.8237 12.1574 12.8302 12.175C13.0055 12.8776 12.9152 13.6203 12.5764 14.2603L12.4891 14.4255L12.2145 13.8266C12.1079 13.594 11.9367 13.3969 11.7213 13.2588C11.506 13.1206 11.2555 13.0472 10.9996 13.0472C10.7438 13.0472 10.4933 13.1206 10.2779 13.2588C10.0626 13.3969 9.8914 13.594 9.78475 13.8266L9.51083 14.4255L9.41415 14.2422C9.08133 13.6128 8.99241 12.8827 9.16443 12.1918H9.16442ZM2.28942 12.1918C2.29667 12.1727 2.30847 12.1557 2.32381 12.1422C2.33914 12.1288 2.35753 12.1193 2.37738 12.1146C3.51201 11.7351 4.7386 11.7306 5.87597 12.1018C5.89401 12.1069 5.91058 12.1162 5.92435 12.1289C5.93811 12.1416 5.94868 12.1574 5.95519 12.175C6.13054 12.8776 6.04016 13.6203 5.70141 14.2603L5.6141 14.4255L5.3395 13.8266C5.23286 13.594 5.06169 13.3969 4.84634 13.2588C4.63098 13.1206 4.3805 13.0472 4.12463 13.0472C3.86876 13.0472 3.61827 13.1206 3.40292 13.2588C3.18757 13.3969 3.0164 13.594 2.90975 13.8266L2.63583 14.4255L2.53915 14.2422C2.20633 13.6128 2.11741 12.8827 2.28943 12.1918H2.28942ZM21.3125 18.3484C21.3122 18.6218 21.2035 18.8839 21.0101 19.0772C20.8168 19.2706 20.5547 19.3793 20.2812 19.3796H1.71875C1.44534 19.3793 1.18321 19.2706 0.989876 19.0772C0.796544 18.8839 0.687799 18.6218 0.6875 18.3484V14.361C0.686394 14.1176 0.772659 13.8819 0.930613 13.6967C1.08857 13.5115 1.30773 13.3892 1.54825 13.3519C1.60241 13.7752 1.732 14.1855 1.9309 14.5631L2.0786 14.8431C2.13431 14.9472 2.21774 15.0338 2.31964 15.0934C2.42155 15.153 2.53796 15.1832 2.65599 15.1808C2.77467 15.178 2.89015 15.1418 2.98919 15.0764C3.08824 15.011 3.16682 14.9189 3.21593 14.8108L3.53485 14.1126C3.59153 14.0053 3.6764 13.9155 3.78033 13.8528C3.88426 13.7902 4.00331 13.7571 4.12466 13.7571C4.24601 13.7571 4.36506 13.7902 4.469 13.8528C4.57293 13.9155 4.6578 14.0053 4.71448 14.1126L5.03473 14.8115C5.08376 14.9194 5.16226 15.0114 5.26119 15.0767C5.36012 15.142 5.47547 15.1781 5.59399 15.1808H5.61145C5.72676 15.1812 5.83997 15.1499 5.93871 15.0903C6.03746 15.0308 6.11794 14.9452 6.17138 14.8431L6.30969 14.5812C6.43794 14.33 6.53639 14.0647 6.60305 13.7907L7.07776 13.8373C7.39062 13.8655 7.70349 13.8796 8.01635 13.8796H8.53689C8.60279 14.1161 8.69294 14.3451 8.80591 14.5631L8.95361 14.8431C9.00892 14.9478 9.09245 15.0349 9.19472 15.0946C9.29699 15.1542 9.41393 15.1841 9.5323 15.1807C9.65066 15.1774 9.76572 15.141 9.86445 15.0756C9.96318 15.0102 10.0416 14.9185 10.0909 14.8108L10.4099 14.1126C10.4665 14.0053 10.5514 13.9155 10.6553 13.8529C10.7593 13.7902 10.8783 13.7571 10.9997 13.7571C11.121 13.7571 11.2401 13.7902 11.344 13.8529C11.4479 13.9155 11.5328 14.0053 11.5895 14.1126L11.9097 14.8115C11.9588 14.9195 12.0373 15.0114 12.1362 15.0767C12.2351 15.142 12.3505 15.1781 12.469 15.1808H12.4865C12.6018 15.1812 12.715 15.1499 12.8137 15.0903C12.9125 15.0308 12.9929 14.9453 13.0464 14.8431L13.1847 14.5812C13.3002 14.3575 13.3921 14.1224 13.4589 13.8796H13.9836C14.2965 13.8796 14.6094 13.8655 14.9249 13.8373L15.3928 13.7912C15.4586 14.0588 15.5553 14.3178 15.6809 14.5631L15.8286 14.8431C15.8839 14.9478 15.9674 15.0349 16.0697 15.0946C16.172 15.1542 16.2889 15.1841 16.4073 15.1807C16.5256 15.1774 16.6407 15.141 16.7394 15.0756C16.8382 15.0102 16.9166 14.9185 16.9659 14.8108L17.2848 14.1126C17.3415 14.0053 17.4264 13.9155 17.5303 13.8529C17.6342 13.7902 17.7533 13.7571 17.8746 13.7571C17.996 13.7571 18.1151 13.7902 18.219 13.8529C18.3229 13.9155 18.4078 14.0053 18.4645 14.1126L18.7847 14.8115C18.8337 14.9195 18.9122 15.0114 19.0112 15.0767C19.1101 15.142 19.2255 15.1781 19.344 15.1808H19.3614C19.4767 15.1812 19.59 15.1499 19.6887 15.0904C19.7874 15.0308 19.8679 14.9453 19.9214 14.8431L20.0597 14.5812C20.262 14.1966 20.3936 13.7788 20.4483 13.3477C20.6446 13.3797 20.8275 13.4674 20.9754 13.6003C21.0822 13.6961 21.1674 13.8134 21.2255 13.9446C21.2836 14.0757 21.3132 14.2176 21.3125 14.361V18.3484ZM17.9683 6.31712C17.9232 6.3171 17.8785 6.32597 17.8367 6.34324C17.795 6.3605 17.7571 6.38582 17.7252 6.41775C17.6933 6.44967 17.6679 6.48758 17.6507 6.52929C17.6334 6.57101 17.6245 6.61572 17.6246 6.66087V8.58507L17.2392 8.19969C17.1745 8.13631 17.0874 8.10101 16.9969 8.10147C16.9063 8.10192 16.8196 8.1381 16.7556 8.20213C16.6915 8.26617 16.6554 8.35288 16.6549 8.44344C16.6544 8.534 16.6897 8.62108 16.7531 8.68575L17.7253 9.65792C17.7572 9.68984 17.7951 9.71517 17.8368 9.73244C17.8785 9.74972 17.9232 9.75862 17.9683 9.75862C18.0135 9.75862 18.0582 9.74972 18.0999 9.73244C18.1416 9.71517 18.1794 9.68984 18.2114 9.65792L19.1842 8.68575C19.2476 8.62108 19.2829 8.534 19.2824 8.44344C19.2819 8.35288 19.2458 8.26617 19.1817 8.20213C19.1177 8.1381 19.031 8.10192 18.9404 8.10147C18.8499 8.10101 18.7628 8.13631 18.6981 8.19969L18.3121 8.58538V6.66087C18.3121 6.61572 18.3032 6.57101 18.286 6.5293C18.2687 6.48758 18.2434 6.44967 18.2114 6.41775C18.1795 6.38582 18.1416 6.3605 18.0999 6.34324C18.0582 6.32597 18.0135 6.3171 17.9683 6.31712ZM15.4533 4.58562C15.4724 4.64218 15.5059 4.69279 15.5506 4.73247C15.5952 4.77214 15.6494 4.79951 15.7078 4.81188L16.0958 4.89378C16.6811 5.01857 17.2779 5.08158 17.8763 5.08177C18.4778 5.0816 19.0775 5.01791 19.6656 4.89177L20.0422 4.81188C20.1006 4.79939 20.1547 4.77198 20.1993 4.73233C20.2439 4.69267 20.2775 4.64212 20.2967 4.58562L20.7633 3.20525C20.8613 2.91555 20.8779 2.6045 20.8112 2.30603C20.7446 2.00755 20.5972 1.73311 20.3853 1.51264C20.1733 1.29217 19.9049 1.13413 19.6093 1.05576C19.3137 0.977393 19.0022 0.981705 18.7089 1.06823L18.0281 1.26898C17.9282 1.29717 17.8225 1.29717 17.7226 1.26898L17.0411 1.06823C16.7478 0.981705 16.4363 0.977393 16.1407 1.05576C15.8451 1.13413 15.5767 1.29217 15.3647 1.51264C15.1528 1.73311 15.0054 2.00755 14.9388 2.30603C14.8721 2.6045 14.8887 2.91555 14.9867 3.20525L15.4533 4.58562ZM15.8602 1.9887C15.9841 1.85782 16.142 1.76405 16.3162 1.71792C16.4904 1.67179 16.674 1.67512 16.8464 1.72753L17.3827 1.88535C17.3331 1.98189 17.2957 2.08428 17.2714 2.19012C17.2517 2.27914 17.2681 2.37236 17.3171 2.44927C17.3661 2.52619 17.4436 2.58052 17.5326 2.60033C17.5571 2.60563 17.5821 2.60833 17.6071 2.60839C17.6853 2.60839 17.7612 2.58171 17.8223 2.53277C17.8833 2.48382 17.9258 2.41553 17.9428 2.33917C17.964 2.24535 18.0065 2.15767 18.067 2.08288C18.1275 2.00809 18.2043 1.94819 18.2916 1.9078L18.9036 1.72753C19.0762 1.67655 19.2595 1.67397 19.4334 1.72007C19.6074 1.76617 19.7654 1.85918 19.8901 1.98894C20.0148 2.1187 20.1014 2.28023 20.1406 2.45589C20.1797 2.63156 20.1699 2.8146 20.1121 2.98504L19.7079 4.18008L19.5226 4.21902C18.4402 4.45198 17.3208 4.45267 16.2382 4.22103L16.0421 4.17943L15.638 2.98504C15.5783 2.81477 15.5675 2.63122 15.6068 2.45514C15.6461 2.27906 15.7338 2.11749 15.8602 1.9887ZM1.70331 4.58562C1.72242 4.64218 1.75594 4.69279 1.80056 4.73247C1.84517 4.77214 1.89936 4.79951 1.95777 4.81188L2.34583 4.89378C2.93113 5.01857 3.52792 5.08158 4.12637 5.08177C4.72782 5.0816 5.32756 5.01791 5.91562 4.89177L6.29223 4.81189C6.35059 4.79941 6.40472 4.772 6.44932 4.73234C6.49392 4.69268 6.52747 4.64213 6.54669 4.58563L7.0133 3.20526C7.11131 2.91556 7.12789 2.60451 7.06123 2.30604C6.99456 2.00756 6.84722 1.73312 6.63527 1.51265C6.42332 1.29218 6.15489 1.13414 5.85928 1.05577C5.56366 0.977407 5.2522 0.981718 4.95886 1.06824L4.27808 1.26899C4.1782 1.29719 4.07247 1.29719 3.97259 1.26899L3.29114 1.06824C2.9978 0.981718 2.68634 0.977407 2.39072 1.05577C2.09511 1.13414 1.82668 1.29218 1.61473 1.51265C1.40278 1.73312 1.25544 2.00756 1.18877 2.30604C1.12211 2.60451 1.13869 2.91556 1.2367 3.20526L1.70331 4.58562ZM2.11017 1.9887C2.23406 1.85782 2.39197 1.76405 2.56618 1.71792C2.74039 1.67179 2.92401 1.67512 3.09644 1.72753L3.63275 1.88535C3.58306 1.98189 3.54566 2.08428 3.52142 2.19012C3.50171 2.27914 3.51814 2.37236 3.56711 2.44927C3.61608 2.52619 3.69358 2.58052 3.78259 2.60033C3.80708 2.60563 3.83206 2.60833 3.85712 2.60839C3.93535 2.60839 4.01124 2.58171 4.07227 2.53277C4.1333 2.48382 4.17582 2.41553 4.19281 2.33917C4.21404 2.24535 4.25653 2.15767 4.31701 2.08288C4.37749 2.00809 4.45433 1.94819 4.54163 1.90779L5.15355 1.72752C5.32616 1.67654 5.50944 1.67396 5.68341 1.72006C5.85738 1.76616 6.01534 1.85917 6.14004 1.98893C6.26475 2.1187 6.35141 2.28023 6.39056 2.45589C6.42971 2.63155 6.41985 2.81459 6.36205 2.98503L5.95788 4.18008L5.77257 4.21902C4.69023 4.45198 3.57078 4.45267 2.48815 4.22103L2.29213 4.17943L1.88795 2.98504C1.82833 2.81477 1.81754 2.63122 1.85681 2.45514C1.89608 2.27906 1.98385 2.11749 2.11017 1.9887ZM4.21833 6.31713C4.17318 6.3171 4.12847 6.32598 4.08675 6.34324C4.04503 6.36051 4.00713 6.38583 3.9752 6.41775C3.94328 6.44968 3.91796 6.48758 3.90069 6.5293C3.88343 6.57102 3.87455 6.61573 3.87458 6.66088V8.58508L3.4892 8.1997C3.42452 8.13631 3.33744 8.10102 3.24689 8.10147C3.15633 8.10193 3.06961 8.13811 3.00558 8.20214C2.94155 8.26617 2.90537 8.35289 2.90491 8.44345C2.90446 8.534 2.93975 8.62108 3.00314 8.68576L3.9753 9.65793C4.00721 9.68985 4.0451 9.71517 4.0868 9.73245C4.1285 9.74973 4.1732 9.75862 4.21833 9.75862C4.26347 9.75862 4.30817 9.74973 4.34987 9.73245C4.39157 9.71517 4.42946 9.68985 4.46137 9.65793L5.43418 8.68576C5.49756 8.62108 5.53286 8.534 5.5324 8.44345C5.53195 8.35289 5.49577 8.26617 5.43174 8.20214C5.3677 8.13811 5.28098 8.10193 5.19043 8.10147C5.09987 8.10102 5.01279 8.13631 4.94812 8.1997L4.56207 8.58538V6.66087C4.5621 6.61572 4.55322 6.57101 4.53596 6.52929C4.51869 6.48758 4.49337 6.44967 4.46145 6.41775C4.42952 6.38582 4.39162 6.3605 4.3499 6.34324C4.30818 6.32597 4.26347 6.3171 4.21832 6.31712L4.21833 6.31713ZM8.57832 4.58563C8.59743 4.64219 8.63094 4.6928 8.67556 4.73247C8.72018 4.77215 8.77436 4.79952 8.83277 4.81188L9.22083 4.89379C9.80613 5.01858 10.4029 5.08158 11.0013 5.08178C11.6028 5.08161 12.2025 5.01792 12.7906 4.89178L13.1672 4.81188C13.2256 4.7994 13.2797 4.77199 13.3243 4.73233C13.3689 4.69268 13.4025 4.64213 13.4217 4.58563L13.8883 3.20526C13.9863 2.91556 14.0029 2.60451 13.9362 2.30603C13.8696 2.00756 13.7222 1.73312 13.5103 1.51265C13.2983 1.29217 13.0299 1.13414 12.7343 1.05577C12.4387 0.9774 12.1272 0.981712 11.8339 1.06823L11.1531 1.26898C11.0532 1.29718 10.9475 1.29718 10.8476 1.26898L10.1661 1.06823C9.87281 0.981712 9.56135 0.9774 9.26573 1.05577C8.97011 1.13414 8.70169 1.29217 8.48974 1.51265C8.27779 1.73312 8.13044 2.00756 8.06378 2.30603C7.99712 2.60451 8.01369 2.91556 8.1117 3.20526L8.57832 4.58563ZM8.98518 1.98871C9.10912 1.8579 9.26703 1.76418 9.44122 1.71805C9.61542 1.67193 9.79901 1.67521 9.97145 1.72754L10.5078 1.88535C10.4581 1.9819 10.4207 2.08428 10.3964 2.19012C10.3767 2.27915 10.3931 2.37236 10.4421 2.44928C10.4911 2.5262 10.5686 2.58053 10.6576 2.60034C10.6821 2.60564 10.7071 2.60834 10.7321 2.6084C10.8104 2.60839 10.8862 2.58172 10.9473 2.53277C11.0083 2.48383 11.0508 2.41554 11.0678 2.33917C11.089 2.24536 11.1315 2.15768 11.192 2.08289C11.2525 2.0081 11.3294 1.9482 11.4166 1.90781L12.0286 1.72754C12.2012 1.67656 12.3845 1.67398 12.5584 1.72008C12.7324 1.76618 12.8904 1.85918 13.0151 1.98895C13.1398 2.11871 13.2264 2.28024 13.2656 2.4559C13.3047 2.63156 13.2949 2.81461 13.2371 2.98504L12.8329 4.18008L12.6476 4.21902C11.5652 4.45198 10.4458 4.45267 9.36315 4.22103L9.16712 4.17943L8.76295 2.98504C8.70333 2.81477 8.69254 2.63122 8.73181 2.45514C8.77108 2.27906 8.85885 2.11749 8.98517 1.9887L8.98518 1.98871ZM11.0933 6.31714C11.0482 6.31711 11.0035 6.32598 10.9618 6.34325C10.92 6.36052 10.8821 6.38583 10.8502 6.41776C10.8183 6.44969 10.793 6.48759 10.7757 6.52931C10.7584 6.57103 10.7496 6.61574 10.7496 6.66089V8.58508L10.3642 8.1997C10.2995 8.13632 10.2125 8.10102 10.1219 8.10148C10.0313 8.10194 9.94462 8.13811 9.88059 8.20215C9.81655 8.26618 9.78038 8.3529 9.77992 8.44345C9.77946 8.53401 9.81476 8.62109 9.87814 8.68577L10.8503 9.65793C10.8822 9.68986 10.9201 9.71518 10.9618 9.73246C11.0035 9.74974 11.0482 9.75863 11.0933 9.75863C11.1385 9.75863 11.1832 9.74974 11.2249 9.73246C11.2666 9.71518 11.3045 9.68986 11.3364 9.65793L12.3092 8.68577C12.3726 8.62109 12.4079 8.53401 12.4074 8.44345C12.407 8.3529 12.3708 8.26618 12.3067 8.20215C12.2427 8.13811 12.156 8.10194 12.0654 8.10148C11.9749 8.10102 11.8878 8.13632 11.8231 8.1997L11.4371 8.58539V6.66087C11.4371 6.61572 11.4282 6.57101 11.411 6.52929C11.3937 6.48757 11.3684 6.44967 11.3365 6.41774C11.3045 6.38582 11.2666 6.3605 11.2249 6.34323C11.1832 6.32597 11.1385 6.3171 11.0933 6.31712L11.0933 6.31714Z" fill="white"/>
</svg>
