<svg width="25" height="25" viewBox="0 0 25 25" fill="none" xmlns="http://www.w3.org/2000/svg">
<g clip-path="url(#clip0_0_303)">
<path d="M4.87747 4.87616C6.90102 2.85772 9.64221 1.72424 12.5 1.72424C15.3578 1.72424 18.099 2.85772 20.1226 4.87616C20.4642 5.22098 20.7823 5.58821 21.075 5.97541H19.5717C19.4764 5.97541 19.385 6.01327 19.3176 6.08067C19.2502 6.14807 19.2124 6.23949 19.2124 6.3348C19.2124 6.43012 19.2502 6.52154 19.3176 6.58894C19.385 6.65634 19.4764 6.6942 19.5717 6.6942H22.0469C22.0941 6.69423 22.1408 6.68495 22.1844 6.6669C22.2281 6.64885 22.2677 6.62237 22.301 6.589C22.3344 6.55562 22.3609 6.51599 22.3789 6.47237C22.397 6.42875 22.4063 6.38201 22.4062 6.3348V3.85903C22.4062 3.76372 22.3684 3.6723 22.301 3.6049C22.2336 3.5375 22.1422 3.49964 22.0469 3.49964C21.9516 3.49964 21.8602 3.5375 21.7928 3.6049C21.7254 3.6723 21.6876 3.76372 21.6876 3.85903V5.59271C21.3642 5.1604 21.011 4.75115 20.6307 4.36795C18.6561 2.39346 16.0308 1.20494 13.2445 1.02414C10.4583 0.843346 7.70141 1.68262 5.48832 3.38538C3.27523 5.08813 1.75708 7.53806 1.21712 10.278C0.677158 13.018 1.15227 15.8609 2.55382 18.2763C2.60166 18.3588 2.68029 18.4189 2.77242 18.4434C2.86456 18.4678 2.96264 18.4547 3.04509 18.4069C3.12755 18.359 3.18762 18.2804 3.2121 18.1882C3.23657 18.0961 3.22345 17.998 3.17561 17.9155C1.98294 15.8583 1.50321 13.4646 1.81097 11.1065C2.11874 8.74847 3.19677 6.55818 4.87747 4.87616ZM18.0775 9.42477C18.2561 8.89665 18.2863 8.32964 18.1648 7.78554C18.0433 7.24144 17.7748 6.74114 17.3886 6.33919C17.0024 5.93724 16.5132 5.64905 15.9745 5.50606C15.4358 5.36306 14.8681 5.37074 14.3334 5.52826L12.9551 5.93469C12.6913 6.01331 12.4104 6.01331 12.1466 5.93469L10.7683 5.52826C10.2336 5.37074 9.66595 5.36306 9.12722 5.50606C8.58849 5.64905 8.09934 5.93724 7.71311 6.33919C7.32687 6.74114 7.05838 7.24144 6.93689 7.78554C6.81541 8.32964 6.84559 8.89665 7.02416 9.42477L7.96886 12.2185C8.07073 12.5257 8.06752 12.8581 7.95973 13.1633C7.66833 14.0488 7.55787 14.9838 7.6349 15.9128C7.71194 16.8418 7.9749 17.7458 8.40816 18.5711L8.70712 19.1369C8.78798 19.2945 8.91218 19.4258 9.06511 19.5152C9.21803 19.6046 9.39332 19.6485 9.57033 19.6416C9.7472 19.6374 9.91927 19.5833 10.0668 19.4855C10.2143 19.3878 10.3312 19.2504 10.4041 19.0892L11.8954 15.8342C11.9584 15.7151 12.0528 15.6153 12.1683 15.5457C12.2838 15.4762 12.416 15.4394 12.5509 15.4394C12.6857 15.4394 12.818 15.4762 12.9334 15.5457C13.0489 15.6153 13.1433 15.7151 13.2063 15.8342L14.6977 19.0892C14.7705 19.2504 14.8875 19.3878 15.035 19.4855C15.1824 19.5833 15.3545 19.6374 15.5314 19.6416H15.5581C15.7303 19.6421 15.8994 19.5953 16.0469 19.5063C16.1944 19.4173 16.3147 19.2895 16.3946 19.1369L16.6746 18.6069C17.114 17.7707 17.3807 16.8546 17.4589 15.9132C17.5372 14.9717 17.4254 14.0242 17.1301 13.1269C17.0331 12.8317 17.0341 12.5131 17.1329 12.2185L18.0775 9.42477ZM16.448 13.3529C16.7131 14.1582 16.8134 15.0087 16.7432 15.8537C16.6729 16.6987 16.4333 17.5209 16.0388 18.2714L15.7588 18.8014C15.7389 18.839 15.709 18.8703 15.6723 18.8917C15.6356 18.9132 15.5936 18.9239 15.5511 18.9228C15.5085 18.9223 15.467 18.9096 15.4315 18.886C15.396 18.8625 15.3681 18.8292 15.3511 18.7901L13.859 15.5352C13.7444 15.2845 13.5601 15.0721 13.3282 14.9231C13.0963 14.7742 12.8265 14.695 12.5509 14.695C12.2753 14.695 12.0055 14.7742 11.7736 14.9231C11.5417 15.0721 11.3574 15.2845 11.2427 15.5352L9.75073 18.7901C9.73373 18.8292 9.70581 18.8625 9.67032 18.886C9.63483 18.9096 9.59329 18.9223 9.55071 18.9228C9.50818 18.9241 9.46614 18.9134 9.4294 18.892C9.39266 18.8705 9.36271 18.8391 9.34299 18.8014L9.04403 18.2356C8.65411 17.4908 8.41839 16.675 8.35098 15.837C8.28358 14.999 8.38586 14.156 8.65173 13.3585C8.80088 12.9138 8.80014 12.4325 8.64962 11.9883L7.705 9.19453C7.56864 8.79112 7.54559 8.358 7.63838 7.94239C7.73116 7.52678 7.93622 7.14461 8.23121 6.83754C8.5262 6.53047 8.8998 6.31027 9.31129 6.20096C9.72278 6.09164 10.1564 6.09738 10.5648 6.21758L11.9432 6.624C11.9889 6.6376 12.0359 6.64413 12.0821 6.65454C11.8775 6.91895 11.7329 7.2247 11.6582 7.5506C11.6378 7.64368 11.6551 7.74108 11.7064 7.82137C11.7578 7.90167 11.8389 7.95829 11.9319 7.97879C11.9573 7.98432 11.9832 7.98715 12.0091 7.98721C12.091 7.98716 12.1704 7.95917 12.2342 7.90786C12.298 7.85655 12.3424 7.78499 12.36 7.70503C12.4146 7.4629 12.5243 7.23664 12.6806 7.04389C12.8369 6.85113 13.0356 6.69709 13.2613 6.59377L14.537 6.21761C14.9454 6.09742 15.379 6.09167 15.7905 6.20099C16.202 6.31031 16.5756 6.5305 16.8706 6.83757C17.1656 7.14465 17.3706 7.52681 17.4634 7.94243C17.5562 8.35804 17.5332 8.79115 17.3968 9.19457L16.4522 11.9883C16.3042 12.4309 16.3027 12.9094 16.448 13.3529ZM22.8357 7.4544C22.7937 7.36906 22.7195 7.30388 22.6295 7.27314C22.5395 7.24241 22.4409 7.24862 22.3555 7.29043C22.27 7.33223 22.2046 7.40621 22.1736 7.49616C22.1426 7.58611 22.1485 7.68468 22.1901 7.77028C23.3083 10.0634 23.5775 12.6788 22.9497 15.1516C22.322 17.6245 20.8379 19.7946 18.7614 21.2764C16.6849 22.7581 14.1504 23.4554 11.6083 23.2444C9.06628 23.0334 6.68137 21.9277 4.87747 20.1238C4.8044 20.0508 4.73882 19.9731 4.66829 19.8985H6.37018C6.46548 19.8985 6.55687 19.8607 6.62426 19.7933C6.69164 19.7259 6.7295 19.6344 6.7295 19.5391C6.7295 19.4438 6.69164 19.3524 6.62426 19.285C6.55687 19.2176 6.46548 19.1797 6.37018 19.1797H3.89495C3.84776 19.1797 3.80102 19.189 3.75741 19.207C3.71381 19.2251 3.67418 19.2515 3.64081 19.2849C3.60744 19.3183 3.58097 19.3579 3.56293 19.4016C3.54488 19.4452 3.5356 19.4919 3.53563 19.5391V22.0149C3.53563 22.1102 3.57349 22.2016 3.64087 22.269C3.70826 22.3364 3.79965 22.3743 3.89495 22.3743C3.99025 22.3743 4.08164 22.3364 4.14903 22.269C4.21641 22.2016 4.25427 22.1102 4.25427 22.0149V20.5081C4.2938 20.5488 4.3291 20.5918 4.36937 20.6321C6.29356 22.5562 8.83751 23.7355 11.5491 23.9606C14.2606 24.1856 16.9641 23.4418 19.1791 21.8612C21.394 20.2806 22.9769 17.9657 23.6464 15.3279C24.3159 12.6901 24.0287 9.90034 22.8357 7.4544Z" fill="#4D478B" stroke="#4D478B" stroke-width="0.8"/>
</g>
<defs>
<clipPath id="clip0_0_303">
<rect width="25" height="25" fill="white"/>
</clipPath>
</defs>
</svg>
