<svg width="20" height="20" viewBox="0 0 20 20" fill="none" xmlns="http://www.w3.org/2000/svg">
<path d="M14.2043 0.000187621C13.7126 0.000767699 13.2264 0.102877 12.7761 0.300118C11.8455 0.690376 10.8465 0.891371 9.83746 0.891371C8.82838 0.891371 7.82941 0.690376 6.89886 0.300118C6.44889 0.101683 5.9624 -0.000479465 5.47062 0.000187621C4.55875 9.30304e-05 3.68348 0.358877 3.03403 0.998972C2.38458 1.63907 2.01313 2.50904 2 3.42082V9.6408C2.01357 10.3571 2.24982 11.0513 2.67597 11.6272C3.10211 12.2031 3.697 12.632 4.37802 12.8543V17.7103C4.37915 18.0342 4.45062 18.3538 4.58749 18.6473C4.72435 18.9408 4.92334 19.201 5.17069 19.41C5.59196 19.7659 6.12594 19.9608 6.67748 19.9598C6.80581 19.9703 6.93478 19.9703 7.06311 19.9598C7.60262 19.8594 8.08977 19.5728 8.43954 19.15C8.78932 18.7271 8.97951 18.1948 8.97695 17.6461V13.0329C8.97695 12.8009 9.06911 12.5783 9.23317 12.4143C9.39722 12.2502 9.61973 12.1581 9.85174 12.1581C10.0838 12.1581 10.3063 12.2502 10.4703 12.4143C10.6344 12.5783 10.7265 12.8009 10.7265 13.0329V17.7461C10.7277 18.0699 10.7991 18.3895 10.936 18.683C11.0729 18.9765 11.2719 19.2367 11.5192 19.4457C11.8568 19.7347 12.2707 19.92 12.7112 19.9793C13.1516 20.0387 13.5998 19.9695 14.0019 19.7802C14.404 19.5908 14.7428 19.2894 14.9776 18.912C15.2124 18.5347 15.3332 18.0976 15.3255 17.6532V12.8543C16.0078 12.6332 16.6043 12.2048 17.0318 11.6289C17.4593 11.0529 17.6966 10.358 17.7106 9.6408V3.42082C17.6975 2.50283 17.3211 1.62746 16.6639 0.986351C16.0068 0.345247 15.1223 -0.00935223 14.2043 0.000187621ZM16.2824 9.6408C16.2773 10.1273 16.0956 10.5954 15.7711 10.958C15.4467 11.3206 15.0015 11.5529 14.5185 11.6118C14.3469 11.636 14.19 11.7218 14.077 11.8532C13.964 11.9846 13.9027 12.1526 13.9044 12.3259V17.6532C13.91 17.8213 13.8673 17.9874 13.7813 18.1319C13.6954 18.2764 13.5697 18.3932 13.4193 18.4684C13.2689 18.5436 13.1001 18.5741 12.9329 18.5561C12.7657 18.5382 12.6072 18.4727 12.4761 18.3673C12.3856 18.2925 12.3124 18.1987 12.2618 18.0926C12.2113 17.9866 12.1845 17.8707 12.1833 17.7532V13.04C12.1833 12.4292 11.9407 11.8434 11.5088 11.4115C11.0769 10.9796 10.4911 10.737 9.88031 10.737C9.2695 10.737 8.68372 10.9796 8.25181 11.4115C7.81991 11.8434 7.57727 12.4292 7.57727 13.04V17.6532C7.58347 17.8641 7.51535 18.0705 7.38481 18.2363C7.25428 18.4021 7.06963 18.5167 6.86315 18.5601C6.73674 18.5799 6.60756 18.5723 6.48435 18.5378C6.36114 18.5033 6.24678 18.4428 6.14903 18.3602C6.05845 18.2853 5.98532 18.1916 5.93475 18.0855C5.88418 17.9794 5.85738 17.8636 5.85624 17.7461V12.3187C5.85795 12.1455 5.79659 11.9775 5.68359 11.8461C5.5706 11.7147 5.41369 11.6289 5.2421 11.6046C4.7513 11.5573 4.29509 11.331 3.96053 10.9687C3.62598 10.6065 3.43649 10.1338 3.42824 9.6408V3.42082C3.44135 2.88162 3.66722 2.3695 4.05655 1.99623C4.44588 1.62295 4.96705 1.41884 5.50633 1.42843C5.7964 1.43027 6.08308 1.49101 6.34899 1.60696C7.45787 2.07341 8.64875 2.31369 9.85174 2.31369C11.0547 2.31369 12.2456 2.07341 13.3545 1.60696C13.6226 1.49006 13.9118 1.4293 14.2043 1.42843C14.7436 1.41884 15.2647 1.62295 15.6541 1.99623C16.0434 2.3695 16.2693 2.88162 16.2824 3.42082V9.6408Z" fill="#83828E"/>
</svg>
