<svg width="22" height="22" viewBox="0 0 22 22" fill="none" xmlns="http://www.w3.org/2000/svg">
<g clip-path="url(#clip0_0_317)">
<path d="M19.25 16.0044V14.0938C19.2495 13.6381 19.0682 13.2012 18.746 12.879C18.4238 12.5568 17.9869 12.3755 17.5312 12.375H16.1562C15.734 12.3764 15.3272 12.5344 15.0148 12.8185C14.8948 12.4879 14.6762 12.2021 14.3885 11.9999C14.1008 11.7976 13.7579 11.6885 13.4062 11.6875H12.0312C11.7634 11.6882 11.4995 11.7518 11.2607 11.873C11.0219 11.9942 10.8149 12.1698 10.6562 12.3856C10.4976 12.1698 10.2906 11.9942 10.0518 11.873C9.81299 11.7518 9.54907 11.6882 9.28125 11.6875H7.90625C7.55456 11.6885 7.21168 11.7976 6.92398 11.9999C6.63629 12.2021 6.41767 12.4879 6.29769 12.8185C5.98525 12.5344 5.57852 12.3764 5.15625 12.375H3.78125C3.32557 12.3755 2.88871 12.5568 2.5665 12.879C2.24429 13.2012 2.06304 13.6381 2.0625 14.0938V16.0044C1.4605 16.2149 0.938717 16.6072 0.569254 17.127C0.19979 17.6468 0.000877773 18.2685 0 18.9062V20.2812C0.000534933 20.7369 0.181789 21.1738 0.504001 21.496C0.826213 21.8182 1.26307 21.9995 1.71875 22H19.5938C20.0494 21.9995 20.4863 21.8182 20.8085 21.496C21.1307 21.1738 21.312 20.7369 21.3125 20.2812V18.9062C21.3116 18.2685 21.1127 17.6468 20.7432 17.127C20.3738 16.6072 19.852 16.2149 19.25 16.0044ZM15.125 14.0938C15.1253 13.8203 15.234 13.5582 15.4274 13.3649C15.6207 13.1715 15.8828 13.0628 16.1562 13.0625H17.5312C17.8047 13.0628 18.0668 13.1715 18.2601 13.3649C18.4535 13.5582 18.5622 13.8203 18.5625 14.0938L18.564 15.125H17.875V14.7812C17.875 14.7361 17.8662 14.6914 17.8489 14.6497C17.8316 14.608 17.8063 14.57 17.7744 14.5381C17.7425 14.5062 17.7045 14.4809 17.6628 14.4636C17.6211 14.4463 17.5764 14.4375 17.5312 14.4375H16.1562C16.1111 14.4375 16.0664 14.4463 16.0247 14.4636C15.983 14.4809 15.945 14.5062 15.9131 14.5381C15.8812 14.57 15.8559 14.608 15.8386 14.6497C15.8213 14.6914 15.8125 14.7361 15.8125 14.7812V15.125H15.125V14.0938ZM17.1875 15.125V15.8125H16.5V15.125H17.1875ZM15.125 15.8125H15.8125V16.1562C15.8125 16.2014 15.8213 16.2461 15.8386 16.2878C15.8559 16.3295 15.8812 16.3675 15.9131 16.3994C15.945 16.4313 15.983 16.4566 16.0247 16.4739C16.0664 16.4912 16.1111 16.5 16.1562 16.5H17.5312C17.5764 16.5 17.6211 16.4912 17.6628 16.4739C17.7045 16.4566 17.7425 16.4313 17.7744 16.3994C17.8063 16.3675 17.8316 16.3295 17.8489 16.2878C17.8662 16.2461 17.875 16.2014 17.875 16.1562V15.8125H18.565L18.5655 16.164C18.5601 16.1863 18.5569 16.2091 18.5561 16.2321C18.538 16.6741 18.3496 17.0919 18.0305 17.3981C17.7113 17.7043 17.2861 17.8752 16.8438 17.875C16.3881 17.8745 15.9512 17.6932 15.629 17.371C15.3068 17.0488 15.1255 16.6119 15.125 16.1562V15.8125ZM11 13.4062C11.0003 13.1328 11.109 12.8707 11.3024 12.6774C11.4957 12.484 11.7578 12.3753 12.0312 12.375H13.4062C13.6797 12.3753 13.9418 12.484 14.1351 12.6774C14.3285 12.8707 14.4372 13.1328 14.4375 13.4062V15.125H13.75V14.7812C13.75 14.7361 13.7412 14.6914 13.7239 14.6497C13.7066 14.608 13.6813 14.57 13.6494 14.5381C13.6175 14.5062 13.5795 14.4809 13.5378 14.4636C13.4961 14.4463 13.4514 14.4375 13.4062 14.4375H12.0312C11.9861 14.4375 11.9414 14.4463 11.8997 14.4636C11.858 14.4809 11.82 14.5062 11.7881 14.5381C11.7562 14.57 11.7309 14.608 11.7136 14.6497C11.6963 14.6914 11.6875 14.7361 11.6875 14.7812V15.125H11V13.4062ZM13.0625 15.125V15.8125H12.375V15.125H13.0625ZM11 15.8125H11.6875V16.1562C11.6875 16.2014 11.6963 16.2461 11.7136 16.2878C11.7309 16.3295 11.7562 16.3675 11.7881 16.3994C11.82 16.4313 11.858 16.4566 11.8997 16.4739C11.9414 16.4912 11.9861 16.5 12.0312 16.5H13.4062C13.4514 16.5 13.4961 16.4912 13.5378 16.4739C13.5795 16.4566 13.6175 16.4313 13.6494 16.3994C13.6813 16.3675 13.7066 16.3295 13.7239 16.2878C13.7412 16.2461 13.75 16.2014 13.75 16.1562V15.8125H14.4375V16.1562C14.4375 16.6121 14.2564 17.0493 13.9341 17.3716C13.6118 17.6939 13.1746 17.875 12.7188 17.875C12.2629 17.875 11.8257 17.6939 11.5034 17.3716C11.1811 17.0493 11 16.6121 11 16.1562V15.8125ZM6.875 13.4062C6.8753 13.1328 6.98404 12.8707 7.17738 12.6774C7.37071 12.484 7.63284 12.3753 7.90625 12.375H9.28125C9.55466 12.3753 9.81679 12.484 10.0101 12.6774C10.2035 12.8707 10.3122 13.1328 10.3125 13.4062V15.125H9.625V14.7812C9.62503 14.7361 9.61615 14.6914 9.59889 14.6497C9.58162 14.608 9.5563 14.57 9.52438 14.5381C9.49245 14.5062 9.45455 14.4809 9.41283 14.4636C9.37111 14.4463 9.3264 14.4375 9.28125 14.4375H7.90625C7.8611 14.4375 7.81639 14.4463 7.77467 14.4636C7.73295 14.4809 7.69505 14.5062 7.66312 14.5381C7.6312 14.57 7.60588 14.608 7.58861 14.6497C7.57135 14.6914 7.56247 14.7361 7.5625 14.7812V15.125H6.875V13.4062ZM8.9375 15.125V15.8125H8.25V15.125H8.9375ZM6.875 15.8125H7.5625V16.1562C7.56247 16.2014 7.57135 16.2461 7.58861 16.2878C7.60588 16.3295 7.6312 16.3675 7.66312 16.3994C7.69505 16.4313 7.73295 16.4566 7.77467 16.4739C7.81639 16.4912 7.8611 16.5 7.90625 16.5H9.28125C9.3264 16.5 9.37111 16.4912 9.41283 16.4739C9.45455 16.4566 9.49245 16.4313 9.52438 16.3994C9.5563 16.3675 9.58162 16.3295 9.59889 16.2878C9.61615 16.2461 9.62503 16.2014 9.625 16.1562V15.8125H10.3125V16.1562C10.3125 16.6121 10.1314 17.0493 9.80909 17.3716C9.48676 17.6939 9.04959 17.875 8.59375 17.875C8.13791 17.875 7.70074 17.6939 7.37841 17.3716C7.05608 17.0493 6.875 16.6121 6.875 16.1562V15.8125ZM2.75 14.0938C2.7503 13.8203 2.85904 13.5582 3.05238 13.3649C3.24571 13.1715 3.50784 13.0628 3.78125 13.0625H5.15625C5.42966 13.0628 5.69179 13.1715 5.88512 13.3649C6.07846 13.5582 6.1872 13.8203 6.1875 14.0938V15.125H5.5V14.7812C5.50003 14.7361 5.49115 14.6914 5.47389 14.6497C5.45662 14.608 5.4313 14.57 5.39938 14.5381C5.36745 14.5062 5.32955 14.4809 5.28783 14.4636C5.24611 14.4463 5.2014 14.4375 5.15625 14.4375H3.78125C3.7361 14.4375 3.69139 14.4463 3.64967 14.4636C3.60795 14.4809 3.57005 14.5062 3.53812 14.5381C3.5062 14.57 3.48088 14.608 3.46361 14.6497C3.44635 14.6914 3.43747 14.7361 3.4375 14.7812V15.125H2.75V14.0938ZM4.8125 15.125V15.8125H4.125V15.125H4.8125ZM2.75 15.8125H3.4375V16.1562C3.43747 16.2014 3.44635 16.2461 3.46361 16.2878C3.48088 16.3295 3.5062 16.3675 3.53812 16.3994C3.57005 16.4313 3.60795 16.4566 3.64967 16.4739C3.69139 16.4912 3.7361 16.5 3.78125 16.5H5.15625C5.2014 16.5 5.24611 16.4912 5.28783 16.4739C5.32955 16.4566 5.36745 16.4313 5.39938 16.3994C5.4313 16.3675 5.45662 16.3295 5.47389 16.2878C5.49115 16.2461 5.50003 16.2014 5.5 16.1562V15.8125H6.1875V16.1562C6.1881 16.6052 6.01274 17.0366 5.69905 17.3578C5.38535 17.679 4.95828 17.8645 4.50942 17.8745C4.06055 17.8845 3.62564 17.7182 3.29793 17.4113C2.97022 17.1044 2.77581 16.6813 2.75638 16.2328C2.75662 16.2071 2.75448 16.1815 2.75 16.1562V15.8125ZM20.625 20.2812C20.6247 20.5547 20.516 20.8168 20.3226 21.0101C20.1293 21.2035 19.8672 21.3122 19.5938 21.3125H1.71875C1.44534 21.3122 1.18321 21.2035 0.989876 21.0101C0.796544 20.8168 0.687798 20.5547 0.6875 20.2812V18.9062C0.687429 18.4385 0.824124 17.9809 1.08076 17.5898C1.3374 17.1987 1.70278 16.8912 2.13194 16.7051C2.23588 17.1753 2.47964 17.603 2.8312 17.9321C3.18275 18.2612 3.62565 18.4762 4.10167 18.5489C4.5777 18.6216 5.06458 18.5486 5.49833 18.3394C5.93208 18.1303 6.2924 17.7948 6.53194 17.377C6.74197 17.7378 7.04298 18.0371 7.4049 18.2451C7.76682 18.4532 8.17699 18.5626 8.59443 18.5625C9.01187 18.5623 9.42198 18.4527 9.78378 18.2445C10.1456 18.0363 10.4464 17.7367 10.6562 17.3759C10.8642 17.7393 11.1644 18.0414 11.5266 18.2516C11.8887 18.4617 12.3 18.5724 12.7187 18.5726C13.1374 18.5727 13.5488 18.4622 13.9111 18.2522C14.2734 18.0423 14.5738 17.7404 14.7819 17.3771C15.0244 17.7906 15.3854 18.1219 15.8182 18.328C16.251 18.5342 16.7357 18.6057 17.2096 18.5334C17.6835 18.4611 18.1248 18.2482 18.4765 17.9223C18.8281 17.5965 19.0739 17.1726 19.182 16.7056C19.6108 16.8919 19.9758 17.1994 20.2322 17.5904C20.4886 17.9814 20.6251 18.4387 20.625 18.9062V20.2812ZM19.5938 0H1.71875C1.26307 0.000534933 0.826213 0.181789 0.504001 0.504001C0.181789 0.826213 0.000534933 1.26307 0 1.71875V3.09375C0.000877773 3.73149 0.19979 4.35321 0.569254 4.87303C0.938717 5.39284 1.4605 5.78509 2.0625 5.99557V7.90625C2.06304 8.36193 2.24429 8.79879 2.5665 9.121C2.88871 9.44321 3.32557 9.62446 3.78125 9.625H5.15625C5.57852 9.6236 5.98525 9.46557 6.29769 9.18151C6.41767 9.5121 6.63629 9.79787 6.92398 10.0001C7.21168 10.2024 7.55456 10.3115 7.90625 10.3125H9.28125C9.54907 10.3118 9.81299 10.2482 10.0518 10.127C10.2906 10.0058 10.4976 9.83018 10.6562 9.61438C10.8149 9.83018 11.0219 10.0058 11.2607 10.127C11.4995 10.2482 11.7634 10.3118 12.0312 10.3125H13.4062C13.7579 10.3115 14.1008 10.2024 14.3885 10.0001C14.6762 9.79787 14.8948 9.5121 15.0148 9.18151C15.3272 9.46557 15.734 9.6236 16.1562 9.625H17.5312C17.9869 9.62446 18.4238 9.44321 18.746 9.121C19.0682 8.79879 19.2495 8.36193 19.25 7.90625V5.99557C19.852 5.78509 20.3738 5.39284 20.7432 4.87303C21.1127 4.35321 21.3116 3.73149 21.3125 3.09375V1.71875C21.312 1.26307 21.1307 0.826213 20.8085 0.504001C20.4863 0.181789 20.0494 0.000534933 19.5938 0V0ZM6.1875 7.90625C6.1872 8.17966 6.07846 8.44179 5.88512 8.63512C5.69179 8.82846 5.42966 8.9372 5.15625 8.9375H3.78125C3.50784 8.9372 3.24571 8.82846 3.05238 8.63512C2.85904 8.44179 2.7503 8.17966 2.75 7.90625V6.875H3.4375V7.21875C3.43747 7.2639 3.44635 7.30861 3.46361 7.35033C3.48088 7.39205 3.5062 7.42995 3.53812 7.46188C3.57005 7.4938 3.60795 7.51912 3.64967 7.53639C3.69139 7.55365 3.7361 7.56253 3.78125 7.5625H5.15625C5.2014 7.56253 5.24611 7.55365 5.28783 7.53639C5.32955 7.51912 5.36745 7.4938 5.39938 7.46188C5.4313 7.42995 5.45662 7.39205 5.47389 7.35033C5.49115 7.30861 5.50003 7.2639 5.5 7.21875V6.875H6.1875V7.90625ZM4.125 6.875V6.1875H4.8125V6.875H4.125ZM6.1875 6.1875H5.5V5.84375C5.50003 5.7986 5.49115 5.75389 5.47389 5.71217C5.45662 5.67045 5.4313 5.63255 5.39938 5.60062C5.36745 5.5687 5.32955 5.54338 5.28783 5.52611C5.24611 5.50885 5.2014 5.49997 5.15625 5.5H3.78125C3.7361 5.49997 3.69139 5.50885 3.64967 5.52611C3.60795 5.54338 3.57005 5.5687 3.53812 5.60062C3.5062 5.63255 3.48088 5.67045 3.46361 5.71217C3.44635 5.75389 3.43747 5.7986 3.4375 5.84375V6.1875H2.75V5.84375C2.75 5.38791 2.93108 4.95074 3.25341 4.62841C3.57574 4.30608 4.01291 4.125 4.46875 4.125C4.92459 4.125 5.36176 4.30608 5.68409 4.62841C6.00642 4.95074 6.1875 5.38791 6.1875 5.84375V6.1875ZM10.3125 8.59375C10.3122 8.86716 10.2035 9.12929 10.0101 9.32262C9.81679 9.51596 9.55466 9.6247 9.28125 9.625H7.90625C7.63284 9.6247 7.37071 9.51596 7.17738 9.32262C6.98404 9.12929 6.8753 8.86716 6.875 8.59375V6.875H7.5625V7.21875C7.56247 7.2639 7.57135 7.30861 7.58861 7.35033C7.60588 7.39205 7.6312 7.42995 7.66312 7.46188C7.69505 7.4938 7.73295 7.51912 7.77467 7.53639C7.81639 7.55365 7.8611 7.56253 7.90625 7.5625H9.28125C9.3264 7.56253 9.37111 7.55365 9.41283 7.53639C9.45455 7.51912 9.49245 7.4938 9.52438 7.46188C9.5563 7.42995 9.58162 7.39205 9.59889 7.35033C9.61615 7.30861 9.62503 7.2639 9.625 7.21875V6.875H10.3125V8.59375ZM8.25 6.875V6.1875H8.9375V6.875H8.25ZM10.3125 6.1875H9.625V5.84375C9.62503 5.7986 9.61615 5.75389 9.59889 5.71217C9.58162 5.67045 9.5563 5.63255 9.52438 5.60062C9.49245 5.5687 9.45455 5.54338 9.41283 5.52611C9.37111 5.50885 9.3264 5.49997 9.28125 5.5H7.90625C7.8611 5.49997 7.81639 5.50885 7.77467 5.52611C7.73295 5.54338 7.69505 5.5687 7.66312 5.60062C7.6312 5.63255 7.60588 5.67045 7.58861 5.71217C7.57135 5.75389 7.56247 5.7986 7.5625 5.84375V6.1875H6.875V5.84375C6.875 5.38791 7.05608 4.95074 7.37841 4.62841C7.70074 4.30608 8.13791 4.125 8.59375 4.125C9.04959 4.125 9.48676 4.30608 9.80909 4.62841C10.1314 4.95074 10.3125 5.38791 10.3125 5.84375V6.1875ZM14.4375 8.59375C14.4372 8.86716 14.3285 9.12929 14.1351 9.32262C13.9418 9.51596 13.6797 9.6247 13.4062 9.625H12.0312C11.7578 9.6247 11.4957 9.51596 11.3024 9.32262C11.109 9.12929 11.0003 8.86716 11 8.59375V6.875H11.6875V7.21875C11.6875 7.2639 11.6963 7.30861 11.7136 7.35033C11.7309 7.39205 11.7562 7.42995 11.7881 7.46188C11.82 7.4938 11.858 7.51912 11.8997 7.53639C11.9414 7.55365 11.9861 7.56253 12.0312 7.5625H13.4062C13.4514 7.56253 13.4961 7.55365 13.5378 7.53639C13.5795 7.51912 13.6175 7.4938 13.6494 7.46188C13.6813 7.42995 13.7066 7.39205 13.7239 7.35033C13.7412 7.30861 13.75 7.2639 13.75 7.21875V6.875H14.4375V8.59375ZM12.375 6.875V6.1875H13.0625V6.875H12.375ZM14.4375 6.1875H13.75V5.84375C13.75 5.7986 13.7412 5.75389 13.7239 5.71217C13.7066 5.67045 13.6813 5.63255 13.6494 5.60062C13.6175 5.5687 13.5795 5.54338 13.5378 5.52611C13.4961 5.50885 13.4514 5.49997 13.4062 5.5H12.0312C11.9861 5.49997 11.9414 5.50885 11.8997 5.52611C11.858 5.54338 11.82 5.5687 11.7881 5.60062C11.7562 5.63255 11.7309 5.67045 11.7136 5.71217C11.6963 5.75389 11.6875 5.7986 11.6875 5.84375V6.1875H11V5.84375C11 5.38791 11.1811 4.95074 11.5034 4.62841C11.8257 4.30608 12.2629 4.125 12.7188 4.125C13.1746 4.125 13.6118 4.30608 13.9341 4.62841C14.2564 4.95074 14.4375 5.38791 14.4375 5.84375V6.1875ZM18.5625 7.90625C18.5622 8.17966 18.4535 8.44179 18.2601 8.63512C18.0668 8.82846 17.8047 8.9372 17.5312 8.9375H16.1562C15.8828 8.9372 15.6207 8.82846 15.4274 8.63512C15.234 8.44179 15.1253 8.17966 15.125 7.90625V6.875H15.8125V7.21875C15.8125 7.2639 15.8213 7.30861 15.8386 7.35033C15.8559 7.39205 15.8812 7.42995 15.9131 7.46188C15.945 7.4938 15.983 7.51912 16.0247 7.53639C16.0664 7.55365 16.1111 7.56253 16.1562 7.5625H17.5312C17.5764 7.56253 17.6211 7.55365 17.6628 7.53639C17.7045 7.51912 17.7425 7.4938 17.7744 7.46188C17.8063 7.42995 17.8316 7.39205 17.8489 7.35033C17.8662 7.30861 17.875 7.2639 17.875 7.21875V6.875H18.5625V7.90625ZM16.5 6.875V6.1875H17.1875V6.875H16.5ZM18.5625 6.1875H17.875V5.84375C17.875 5.7986 17.8662 5.75389 17.8489 5.71217C17.8316 5.67045 17.8063 5.63255 17.7744 5.60062C17.7425 5.5687 17.7045 5.54338 17.6628 5.52611C17.6211 5.50885 17.5764 5.49997 17.5312 5.5H16.1562C16.1111 5.49997 16.0664 5.50885 16.0247 5.52611C15.983 5.54338 15.945 5.5687 15.9131 5.60062C15.8812 5.63255 15.8559 5.67045 15.8386 5.71217C15.8213 5.75389 15.8125 5.7986 15.8125 5.84375V6.1875H15.125V5.84375C15.125 5.38791 15.3061 4.95074 15.6284 4.62841C15.9507 4.30608 16.3879 4.125 16.8438 4.125C17.2996 4.125 17.7368 4.30608 18.0591 4.62841C18.3814 4.95074 18.5625 5.38791 18.5625 5.84375V6.1875ZM20.625 3.09375C20.6251 3.56146 20.4884 4.01899 20.2318 4.41005C19.9752 4.80111 19.61 5.10864 19.1809 5.29481C19.0734 4.82729 18.828 4.40285 18.4763 4.07654C18.1247 3.75023 17.6831 3.53711 17.2089 3.46482C16.7347 3.39252 16.2497 3.4644 15.8168 3.67112C15.3839 3.87784 15.0231 4.20986 14.7812 4.62413C14.5714 4.26314 14.2704 3.96355 13.9085 3.75532C13.5466 3.54708 13.1363 3.43749 12.7188 3.43749C12.3012 3.43749 11.8909 3.54708 11.529 3.75532C11.1671 3.96355 10.8661 4.26314 10.6562 4.62413C10.4464 4.26314 10.1454 3.96355 9.7835 3.75532C9.42156 3.54708 9.01131 3.43749 8.59375 3.43749C8.17619 3.43749 7.76594 3.54708 7.404 3.75532C7.04207 3.96355 6.74112 4.26314 6.53125 4.62413C6.28937 4.20986 5.92859 3.87784 5.49571 3.67112C5.06283 3.4644 4.57782 3.39252 4.10359 3.46481C3.62936 3.5371 3.18779 3.75022 2.83616 4.07653C2.48453 4.40284 2.23907 4.82728 2.13161 5.2948C1.70254 5.10863 1.33726 4.8011 1.08069 4.41004C0.824115 4.01899 0.687448 3.56146 0.6875 3.09375V1.71875C0.687798 1.44534 0.796544 1.18321 0.989876 0.989876C1.18321 0.796544 1.44534 0.687798 1.71875 0.6875H19.5938C19.8672 0.687798 20.1293 0.796544 20.3226 0.989876C20.516 1.18321 20.6247 1.44534 20.625 1.71875V3.09375Z" fill="white"/>
</g>
<defs>
<clipPath id="clip0_0_317">
<rect width="22" height="22" fill="white"/>
</clipPath>
</defs>
</svg>
