<svg width="22" height="22" viewBox="0 0 22 22" fill="none" xmlns="http://www.w3.org/2000/svg">
<g clip-path="url(#clip0_0_325)">
<path d="M18.2188 12.9338H15.0562V12.8651C15.0562 12.7963 14.9875 12.6588 14.9875 12.5901C14.9875 12.4526 14.9875 12.2463 15.0562 12.1088L15.125 11.9713C15.2625 11.5588 15.1937 11.1463 14.9875 10.7338C14.7125 10.3901 14.3688 10.1838 13.8875 10.1838H13.1313C13.2 9.90882 13.1312 9.63382 12.9937 9.42757L12.7188 9.01507C12.5125 8.67132 12.1687 8.46507 11.7563 8.46507H10.5875C9.96875 8.46507 9.41875 9.01507 9.41875 9.63382V10.2526H8.1125C7.425 10.2526 6.80625 10.8713 6.80625 11.5588C6.80625 11.6963 6.80625 11.8338 6.875 11.9713C6.94375 12.1776 6.94375 12.3838 6.875 12.5901C6.875 12.6588 6.875 12.7276 6.80625 12.7963L6.7375 13.0026H3.78125C1.71875 13.0026 0 14.7213 0 16.7838V19.5338C0 20.4963 0.75625 21.2526 1.71875 21.2526H20.2812C21.2437 21.2526 22 20.4963 22 19.5338V16.7838C22 14.6526 20.2812 12.9338 18.2188 12.9338ZM10.0375 9.63382C10.0375 9.35882 10.2438 9.15257 10.5188 9.15257H11.6875C11.825 9.15257 12.0312 9.22132 12.1 9.35882L12.375 9.77132C12.5125 9.90882 12.4438 10.1151 12.375 10.3213L11.9625 10.8713C11.8938 10.9401 11.8938 11.0088 11.825 11.0088L11 11.4901C10.8625 11.5588 10.6562 11.5588 10.45 11.4213L10.175 11.2151C10.0375 11.1463 9.96875 11.0088 9.96875 10.8713V9.63382H10.0375ZM7.425 11.6963C7.425 11.6276 7.425 11.5588 7.425 11.4901C7.425 11.1463 7.7 10.8713 8.04375 10.8713H9.35C9.35 11.2151 9.4875 11.4901 9.7625 11.7651L10.0375 11.9713C10.2438 12.1776 10.5188 12.2463 10.7937 12.2463C11 12.2463 11.2063 12.1776 11.3438 12.1088L12.1688 11.6276C12.3063 11.5588 12.4437 11.4213 12.5812 11.2838L12.8563 10.8713H13.9562C14.1625 10.8713 14.3687 10.9401 14.4375 11.1463C14.575 11.2838 14.575 11.5588 14.5063 11.6963L14.4375 11.9026C14.3687 12.1776 14.3 12.4526 14.3 12.6588C14.3 12.7963 14.3 13.0026 14.3687 13.1401C14.3687 13.2088 14.4375 13.3463 14.4375 13.4151C14.575 13.8963 14.6437 14.3088 14.6437 14.7901C14.6437 15.7526 14.3687 16.7151 13.9562 17.5401L13.6812 18.0213C13.6125 18.0901 13.5438 18.0901 13.5438 18.0901C13.475 18.0901 13.4062 18.0901 13.4062 17.9526L12.1 14.9963C11.8938 14.5151 11.4125 14.2401 10.9312 14.1713C10.3812 14.1713 9.96875 14.4463 9.69375 14.9276L8.25 17.8151C8.18125 17.8838 8.1125 17.8838 8.1125 17.8838C8.1125 17.8838 7.975 17.8838 7.975 17.8151C7.5625 16.9901 7.2875 15.6838 7.2875 14.4463C7.2875 14.1026 7.2875 13.6901 7.35625 13.3463L7.425 12.9338C7.425 12.8651 7.49375 12.7276 7.49375 12.6588C7.5625 12.3838 7.5625 12.0401 7.425 11.6963ZM21.3125 19.4651C21.3125 20.0151 20.8312 20.4963 20.2812 20.4963H1.71875C1.16875 20.4963 0.6875 20.0151 0.6875 19.4651V16.7151C0.6875 14.9963 2.0625 13.6213 3.78125 13.6213H6.6C6.6 13.8963 6.53125 14.1713 6.53125 14.4463C6.53125 15.7526 6.80625 17.1963 7.2875 18.0901C7.425 18.3651 7.76875 18.5713 8.04375 18.5713C8.3875 18.5713 8.6625 18.3651 8.8 18.0901L10.2437 15.2026C10.3812 14.9963 10.5188 14.8588 10.7937 14.8588C11.0687 14.8588 11.275 14.9963 11.3438 15.2026L12.65 18.1588C12.7875 18.4338 13.0625 18.6401 13.4062 18.7088C13.4062 18.7088 13.4062 18.7088 13.475 18.7088C13.8188 18.7088 14.0938 18.5713 14.2313 18.2963L14.5063 17.8151C15.0563 16.8526 15.3312 15.8213 15.3312 14.7213C15.3312 14.3776 15.2625 13.9651 15.1938 13.6213H18.2188C19.9375 13.6213 21.3125 14.9963 21.3125 16.7151V19.4651ZM6.25625 4.40882C6.325 4.61507 6.39375 4.75257 6.53125 4.89007C6.66875 5.09632 6.80625 5.23382 7.0125 5.30257C7.8375 5.85257 9.2125 6.47132 11 6.47132H11.0688C12.8562 6.47132 14.2312 5.85257 15.0562 5.30257C15.4 5.09632 15.675 4.82132 15.7437 4.40882L15.95 3.79007C16.2938 2.82757 16.0875 1.72757 15.4 0.971322C14.7125 0.215072 13.6125 -0.0599282 12.65 0.215072L11.4813 0.558822H11.4125C11.2063 0.627572 10.9313 0.627572 10.725 0.558822L9.4875 0.146322C8.45625 -0.197428 7.425 0.0775718 6.66875 0.833822C5.9125 1.59007 5.6375 2.62132 5.98125 3.58382L6.25625 4.40882ZM11.0688 5.78382C11 5.78382 11 5.78382 11.0688 5.78382C9.41875 5.78382 8.18125 5.23382 7.35625 4.75257C7.975 4.47757 9.2125 4.06507 11 4.06507C12.7188 4.06507 13.9563 4.40882 14.575 4.75257C13.8188 5.23382 12.5813 5.78382 11.0688 5.78382ZM7.15 1.24632C7.5625 0.833822 8.04375 0.627572 8.59375 0.627572C8.8 0.627572 9.00625 0.627572 9.2125 0.696322L10.45 1.10882H10.5188C10.3125 1.31507 10.175 1.59007 10.1062 1.86507C10.175 2.14007 10.2437 2.34632 10.45 2.34632H10.5188C10.6562 2.34632 10.7937 2.20882 10.8625 2.07132C11 1.65882 11.275 1.31507 11.6875 1.10882L12.8563 0.765072C13.6125 0.558822 14.3688 0.765072 14.9188 1.38382C15.4688 1.93382 15.6062 2.75882 15.3312 3.51507L15.125 4.20257C14.4375 3.85882 13.0625 3.37757 11.0688 3.37757H11C9.075 3.37757 7.7 3.79007 7.0125 4.20257L6.66875 3.37757C6.39375 2.62132 6.6 1.86507 7.15 1.24632Z" fill="white"/>
</g>
<defs>
<clipPath id="clip0_0_325">
<rect width="22" height="22" fill="white"/>
</clipPath>
</defs>
</svg>
