<svg width="22" height="22" viewBox="0 0 22 22" fill="none" xmlns="http://www.w3.org/2000/svg">
<path d="M18.6761 1.41412C18.084 0.803167 17.3279 0.3654 16.4934 0.150283C15.6588 -0.0648343 14.779 -0.0487274 13.9533 0.196784L11.8344 0.806289L11.7212 0.835489C11.2503 0.968617 10.7501 0.968856 10.279 0.836176L8.04547 0.196791C7.21982 -0.0486873 6.34002 -0.0647773 5.50546 0.150338C4.6709 0.365454 3.91484 0.803201 3.32271 1.41412C2.71639 2.01681 2.29594 2.77265 2.10904 3.59589C1.92215 4.41914 1.9763 5.27683 2.26535 6.07166L4.20955 10.7594L4.21115 10.7618C4.22733 10.7979 4.24984 10.8311 4.27769 10.8598C4.28144 10.8638 4.28321 10.8697 4.28714 10.8735C4.35865 10.9275 4.44359 10.962 4.53332 10.9737L4.5375 10.9746H5.34355V12.693C5.34385 12.9663 5.45568 13.2284 5.65449 13.4217C5.8533 13.615 6.12286 13.7237 6.40402 13.724H6.81559L8.17837 20.349L8.181 20.3549L8.18148 20.3591L8.18497 20.3638C8.19596 20.4088 8.21622 20.4511 8.24451 20.4883C8.27281 20.5254 8.30855 20.5566 8.34959 20.58L10.824 21.9547C10.8774 21.9844 10.9379 22 10.9994 22C11.0609 22 11.1213 21.9844 11.1747 21.9547L13.6492 20.58C13.693 20.5556 13.731 20.5224 13.7605 20.4825C13.7901 20.4427 13.8105 20.3972 13.8204 20.349L14.6577 16.2787L14.66 16.2673L15.1832 13.724H15.5948C15.8759 13.7237 16.1455 13.615 16.3443 13.4217C16.5431 13.2284 16.6549 12.9663 16.6552 12.693V10.9746H17.4613C17.5232 10.9731 17.5835 10.9554 17.6359 10.9233C17.6481 10.9164 17.6598 10.9088 17.671 10.9004C17.7221 10.8651 17.7625 10.817 17.7878 10.7612L17.7892 10.7594L19.7404 6.05321C20.0255 5.26038 20.077 4.40581 19.8889 3.58605C19.7008 2.76628 19.2807 2.01398 18.6761 1.41412ZM7.54216 13.7516H14.2811L7.95115 15.7398L7.54216 13.7516ZM13.1587 20.0607L10.9994 21.2606L9.36273 20.3511L13.3555 19.1036L13.1587 20.0607ZM13.5143 18.332L8.78827 19.8086L8.50348 18.4243L13.8402 16.7479L13.5143 18.332ZM13.999 15.976L8.36393 17.746L8.09074 16.4181L14.3099 14.4647L13.999 15.976ZM15.9483 12.693C15.9482 12.7841 15.9109 12.8715 15.8447 12.9359C15.7784 13.0003 15.6885 13.0366 15.5948 13.0366H6.40402C6.31029 13.0366 6.22041 13.0003 6.15413 12.9359C6.08785 12.8715 6.05059 12.7841 6.05053 12.693V10.9745H15.9483V12.693ZM19.0776 5.81457L17.2226 10.2872H4.77616L2.92811 5.83302C2.68572 5.15922 2.64196 4.43294 2.80179 3.73624C2.96161 3.03953 3.31864 2.40017 3.83255 1.89037C4.33588 1.3715 4.97832 0.999714 5.6874 0.816941C6.39648 0.634167 7.14399 0.647684 7.8456 0.855966L10.0808 1.49603C10.2729 1.54781 10.4694 1.58269 10.6679 1.60024C10.2252 2.05043 9.91675 2.60923 9.77564 3.21679C9.75544 3.3058 9.77242 3.39897 9.82285 3.47581C9.87327 3.55266 9.95302 3.60689 10.0446 3.62659C10.0697 3.63189 10.0954 3.63459 10.1212 3.63465C10.2016 3.63456 10.2796 3.60781 10.3423 3.55882C10.405 3.50982 10.4487 3.4415 10.4661 3.36514C10.5626 2.94781 10.7574 2.55795 11.0351 2.22618C11.3128 1.89441 11.6659 1.62978 12.0666 1.45309L14.1536 0.855966C14.8551 0.647669 15.6026 0.634147 16.3116 0.816925C17.0206 0.999702 17.663 1.3715 18.1662 1.89038C18.6785 2.39736 19.0351 3.03319 19.1961 3.72642C19.3571 4.41964 19.316 5.14279 19.0776 5.81457Z" fill="white"/>
</svg>
