<svg width="26" height="30" viewBox="0 0 26 30" fill="none" xmlns="http://www.w3.org/2000/svg">
<path d="M20.5 5.56183V14.6855M4 16.9664C2.85615 17.6359 1.96218 18.6693 1.45672 19.9063C0.951275 21.1433 0.862598 22.5149 1.20445 23.8082C1.5463 25.1015 2.29957 26.2444 3.34743 27.0595C4.3953 27.8746 5.6792 28.3164 7 28.3164C8.32081 28.3164 9.6047 27.8746 10.6526 27.0595C11.7004 26.2444 12.4537 25.1015 12.7956 23.8082C13.1374 22.5149 13.0487 21.1433 12.5433 19.9063C12.0378 18.6693 11.1439 17.6359 10 16.9664V4.04122C10 3.23464 9.68393 2.46109 9.12132 1.89075C8.55871 1.32041 7.79565 1 7 1C6.20435 1 5.44129 1.32041 4.87868 1.89075C4.31607 2.46109 4 3.23464 4 4.04122V16.9664ZM4 10.1237H10H4ZM16 10.1237H25H16Z" stroke="#211F2B" stroke-width="2" stroke-linecap="round" stroke-linejoin="round"/>
</svg>
