<svg width="20" height="20" viewBox="0 0 20 20" fill="none" xmlns="http://www.w3.org/2000/svg">
<path d="M9.14312 3.57083C9.14298 2.89507 8.95113 2.23322 8.58986 1.66214C8.22858 1.09106 7.71271 0.634186 7.10214 0.34459C6.49158 0.0549942 5.81139 -0.0554441 5.14057 0.0261019C4.46975 0.107648 3.83582 0.377832 3.31242 0.805274C2.78903 1.23272 2.39763 1.79987 2.1837 2.44088C1.96977 3.08188 1.94208 3.77042 2.10384 4.42654C2.26561 5.08265 2.6102 5.67941 3.09758 6.1475C3.58496 6.61559 4.19514 6.93581 4.85725 7.07096V9.28533H4.14294C3.76404 9.28533 3.40066 9.43584 3.13275 9.70376C2.86483 9.97168 2.71431 10.3351 2.71431 10.7139V17.1428C2.71431 17.9005 3.01534 18.6273 3.55118 19.1631C4.08702 19.699 4.81377 20 5.57156 20C6.32935 20 7.0561 19.699 7.59194 19.1631C8.12778 18.6273 8.42881 17.9005 8.42881 17.1428V10.7139C8.42881 10.3351 8.27829 9.97168 8.01037 9.70376C7.74245 9.43584 7.37908 9.28533 7.00018 9.28533H6.28587V7.07096C7.09259 6.90629 7.81764 6.46795 8.33831 5.83013C8.85898 5.19231 9.14329 4.39419 9.14312 3.57083ZM5.57156 18.5714C5.19266 18.5714 4.82929 18.4209 4.56137 18.1529C4.29345 17.885 4.14294 17.5216 4.14294 17.1428V13.5712H7.00018V17.1428C7.00018 17.5216 6.84967 17.885 6.58175 18.1529C6.31383 18.4209 5.95045 18.5714 5.57156 18.5714ZM7.00018 12.1426H4.14294V10.7139H7.00018V12.1426ZM3.42862 3.57083C3.42862 3.147 3.5543 2.73268 3.78977 2.38028C4.02524 2.02788 4.35992 1.75321 4.75149 1.59102C5.14306 1.42882 5.57394 1.38639 5.98962 1.46907C6.40531 1.55176 6.78715 1.75585 7.08684 2.05555C7.38654 2.35524 7.59063 2.73708 7.67332 3.15277C7.756 3.56845 7.71357 3.99933 7.55137 4.3909C7.38918 4.78247 7.11451 5.11715 6.76211 5.35262C6.40971 5.58809 5.99539 5.71377 5.57156 5.71377C5.00322 5.71377 4.45815 5.48799 4.05627 5.08612C3.6544 4.68424 3.42862 4.13917 3.42862 3.57083ZM15.5719 6.42808H14.8576V5.27804L16.8148 3.1351C16.8836 3.05932 16.9353 2.96964 16.9663 2.87215C16.9974 2.77466 17.0072 2.67163 16.995 2.57003C16.9828 2.46843 16.9489 2.37064 16.8957 2.28327C16.8424 2.1959 16.771 2.121 16.6862 2.06363L13.829 0.134992C13.7511 0.0824617 13.6637 0.0457806 13.5717 0.0270436C13.4796 0.00830649 13.3848 0.00788033 13.2926 0.0257894C13.2004 0.0436985 13.1126 0.0795921 13.0343 0.131421C12.956 0.18325 12.8886 0.249999 12.8361 0.327856C12.7836 0.405714 12.7469 0.493157 12.7282 0.585191C12.7094 0.677225 12.709 0.772048 12.7269 0.864247C12.7448 0.956445 12.7807 1.04421 12.8325 1.12254C12.8844 1.20087 12.9511 1.26822 13.029 1.32075L15.1719 2.78509L13.6147 4.52087C13.4956 4.65187 13.4295 4.82242 13.429 4.99945V6.42808H12.7147C12.3358 6.42808 11.9724 6.57859 11.7045 6.84651C11.4366 7.11443 11.2861 7.47781 11.2861 7.8567V17.1428C11.2861 17.9005 11.5871 18.6273 12.1229 19.1631C12.6588 19.699 13.3855 20 14.1433 20C14.9011 20 15.6278 19.699 16.1637 19.1631C16.6995 18.6273 17.0005 17.9005 17.0005 17.1428V7.8567C17.0005 7.47781 16.85 7.11443 16.5821 6.84651C16.3142 6.57859 15.9508 6.42808 15.5719 6.42808ZM12.7147 7.8567H15.5719V9.28533H12.7147V7.8567ZM15.5719 17.1428C15.5719 17.5216 15.4214 17.885 15.1535 18.1529C14.8856 18.4209 14.5222 18.5714 14.1433 18.5714C13.7644 18.5714 13.401 18.4209 13.1331 18.1529C12.8652 17.885 12.7147 17.5216 12.7147 17.1428V10.7139H15.5719V17.1428Z" fill="#83828E"/>
</svg>
