<svg width="22" height="22" viewBox="0 0 22 22" fill="none" xmlns="http://www.w3.org/2000/svg">
<path d="M21.6463 2.88642L19.1052 2.60407C19.0456 2.59705 18.9851 2.60372 18.9285 2.62359C18.8719 2.64346 18.8205 2.676 18.7784 2.71872L16.2361 5.26101L16.2342 5.25906C16.1644 5.18867 16.0708 5.14693 15.9718 5.14202C15.8728 5.13712 15.7755 5.1694 15.6991 5.23255L10.7468 9.28338L9.77295 8.3095C9.59463 8.14574 9.37193 8.03827 9.13277 8.00059C8.89362 7.96291 8.64866 7.99669 8.42863 8.09769L6.04652 5.71559C6.34295 5.24173 6.50191 4.69484 6.50567 4.13592C6.48893 3.28923 6.13716 2.48373 5.52748 1.89598C4.9178 1.30823 4.09996 0.986198 3.25323 1.00046C2.40638 0.986035 1.58836 1.30799 0.978525 1.89575C0.368686 2.48351 0.0167942 3.28911 0 4.13592C0.0167942 4.98272 0.368685 5.78831 0.978522 6.37607C1.58836 6.96383 2.40637 7.28579 3.25322 7.27136C4.11004 7.27438 4.93452 6.94444 5.55271 6.35116L7.8518 8.65024C7.74271 8.87342 7.70625 9.12516 7.74753 9.37012C7.78882 9.61507 7.90577 9.84095 8.08198 10.0161L8.93507 10.8665L2.6961 17.1113C2.69215 17.115 2.68693 17.1161 2.68308 17.12C2.67922 17.1238 2.67805 17.129 2.6744 17.133L0.709773 19.0995C0.560764 19.2474 0.442597 19.4233 0.362128 19.6172C0.281659 19.8111 0.24049 20.019 0.24101 20.2289C0.24256 20.6521 0.411002 21.0577 0.709765 21.3575C0.857471 21.505 1.03287 21.6219 1.22588 21.7014C1.4189 21.7809 1.62572 21.8215 1.83447 21.8208C2.2588 21.8212 2.66621 21.6545 2.96853 21.3567L11.1956 13.1219L19.3828 21.3099C19.6081 21.5342 19.9132 21.6597 20.2311 21.659C20.5489 21.6582 20.8535 21.5313 21.0777 21.306C21.3019 21.0807 21.4275 20.7756 21.4268 20.4578C21.426 20.1399 21.2991 19.8354 21.0738 19.6111L12.7758 11.3131L16.8277 6.36115C16.8905 6.2846 16.9226 6.18741 16.9177 6.08851C16.9128 5.98961 16.8713 5.89607 16.8012 5.8261L16.8008 5.82571L19.2074 3.41914L21.5574 3.68043C21.6625 3.69184 21.7678 3.66112 21.8503 3.59501C21.9328 3.52891 21.9858 3.43279 21.9975 3.32773C22.0093 3.22268 21.9789 3.11724 21.9131 3.03452C21.8473 2.9518 21.7513 2.89854 21.6463 2.88642L21.6463 2.88642ZM3.25323 6.47268C2.61818 6.48716 2.00328 6.24936 1.54322 5.81137C1.08315 5.37338 0.815428 4.77091 0.798682 4.13592C0.815428 3.50092 1.08315 2.89845 1.54322 2.46046C2.00328 2.02247 2.61818 1.78467 3.25323 1.79915C3.8882 1.7847 4.503 2.02253 4.96293 2.46054C5.42287 2.89854 5.69043 3.501 5.70699 4.13592C5.69043 4.77083 5.42287 5.37329 4.96293 5.81129C4.503 6.2493 3.8882 6.48713 3.25323 6.47268ZM2.40541 20.7905C2.29395 20.9026 2.15174 20.9791 1.99678 21.0104C1.84182 21.0416 1.68106 21.0262 1.53485 20.9661C1.38865 20.906 1.26355 20.8039 1.17541 20.6726C1.08726 20.5414 1.04002 20.387 1.03966 20.2289C1.03954 20.1237 1.0603 20.0196 1.10074 19.9225C1.14117 19.8255 1.20047 19.7374 1.27521 19.6634L2.96773 17.9694L4.09637 19.0979L2.40541 20.7905ZM4.66077 18.533L3.53218 17.4044L9.50065 11.4303L10.3423 12.2694L10.6309 12.5572L4.66077 18.533ZM10.7705 11.2782L10.6238 11.4238L8.64668 9.45136C8.57323 9.37716 8.53132 9.27741 8.52974 9.17301C8.52816 9.06861 8.56702 8.96764 8.6382 8.89125C8.64171 8.88799 8.64639 8.88696 8.64981 8.88355L8.65117 8.88156C8.72777 8.81098 8.82727 8.77042 8.93137 8.76734C9.03746 8.76767 9.13936 8.80871 9.21606 8.882L11.1925 10.8592L10.925 11.1248L10.7705 11.2782ZM20.5091 20.1759C20.5834 20.252 20.6249 20.3542 20.6249 20.4605C20.6249 20.5669 20.5834 20.6691 20.5091 20.7452C20.4345 20.8194 20.3336 20.861 20.2283 20.861C20.1231 20.861 20.0222 20.8194 19.9476 20.7452L11.474 12.2709L11.1901 11.987L11.4553 11.7237L11.7573 11.424L11.9553 11.622L20.5091 20.1759ZM12.208 10.7445L12.0411 10.5776L11.3149 9.85141L12.3448 9.00874L13.0508 9.7147L12.208 10.7445ZM13.5592 9.09365L12.9661 8.50054L15.9253 6.07959L15.9807 6.13497L13.5592 9.09365Z" fill="white"/>
</svg>
