<svg width="78" height="66" viewBox="0 0 78 66" fill="none" xmlns="http://www.w3.org/2000/svg">
<path d="M6.95026 30.543C7.01963 30.7979 7.05487 31.0608 7.05507 31.325C7.05424 31.7659 6.95423 32.201 6.76247 32.5981C5.07511 36.0959 4.20371 39.9311 4.21396 43.8146C4.22139 47.8944 5.18958 51.915 7.04013 55.5509C8.89067 59.1868 11.5715 62.3358 14.8656 64.7427C15.0471 64.875 15.259 64.9596 15.4817 64.9887C15.7045 65.0178 15.9309 64.9905 16.1404 64.9093C16.3498 64.8281 16.5355 64.6956 16.6804 64.524C16.8253 64.3524 16.9248 64.1471 16.9698 63.927C19.2692 52.68 24.5477 45.1234 30.1073 45.1234C35.6668 45.1234 40.9465 52.68 43.2449 63.927C43.2899 64.147 43.3894 64.3523 43.5343 64.5238C43.6792 64.6954 43.8649 64.8279 44.0743 64.909C44.2837 64.9902 44.5102 65.0175 44.7329 64.9884C44.9556 64.9593 45.1674 64.8748 45.3489 64.7425C50.2525 61.172 53.7485 55.9949 55.2285 50.1125L52.626 49.4622C51.4741 54.0425 48.9525 58.1625 45.3978 61.2721C44.1486 56.1793 42.2878 51.816 39.9658 48.5604C37.1107 44.5568 33.7014 42.4407 30.1073 42.4407C26.5131 42.4407 23.104 44.5568 20.2487 48.5604C17.9271 51.8156 16.0661 56.1787 14.8169 61.2712C12.3339 59.0899 10.3435 56.4052 8.97795 53.3954C7.61237 50.3857 6.90288 47.1199 6.8966 43.8148C6.88716 40.335 7.66761 36.8983 9.17915 33.7639C9.5827 32.9289 9.77311 32.0069 9.73339 31.0804C9.69367 30.1538 9.42504 29.2516 8.95151 28.4542C3.2049 18.8101 2.05615 10.0125 6.0257 6.04123C9.52406 2.54459 16.6294 2.94335 25.0342 7.10701C26.6128 7.88329 28.3485 8.28697 30.1076 8.28697C31.8668 8.28697 33.6025 7.88329 35.1811 7.10701C43.5851 2.94335 50.6908 2.54497 54.188 6.04104C56.7613 8.61408 56.7703 12.6354 56.3246 15.5556L58.9766 15.9603C59.7495 10.8947 58.7497 6.80866 56.0849 4.14383C53.8395 1.90018 50.5241 0.822329 46.5003 1.02391C42.7977 1.21036 38.4715 2.48251 33.9896 4.70297C32.7814 5.29702 31.4531 5.60593 30.1068 5.60593C28.7605 5.60593 27.4321 5.29702 26.2239 4.70297C21.742 2.48231 17.4158 1.21016 13.713 1.02391C9.68905 0.822138 6.37406 1.90037 4.12888 4.14421C-0.812368 9.08795 0.152237 18.9289 6.64482 29.8244C6.77784 30.0494 6.88054 30.2911 6.95026 30.543Z" fill="#FF8412" stroke="#FF8412" stroke-width="2"/>
<path d="M14.2038 12.2092C14.2038 11.8534 14.0624 11.5122 13.8109 11.2607C13.5594 11.0091 13.2182 10.8678 12.8624 10.8678C12.5067 10.8678 12.1655 11.0091 11.914 11.2607C11.6624 11.5122 11.5211 11.8534 11.5211 12.2092V18.1493C11.5211 18.505 11.6624 18.8462 11.914 19.0978C12.1655 19.3493 12.5067 19.4906 12.8624 19.4906C13.2182 19.4906 13.5594 19.3493 13.8109 19.0978C14.0624 18.8462 14.2038 18.505 14.2038 18.1493V12.2092ZM12.8624 21.4068C12.5067 21.4068 12.1655 21.5481 11.914 21.7997C11.6624 22.0512 11.5211 22.3924 11.5211 22.7481V25.4308C11.5211 25.7865 11.6624 26.1277 11.914 26.3792C12.1655 26.6308 12.5067 26.7721 12.8624 26.7721C13.2182 26.7721 13.5594 26.6308 13.8109 26.3792C14.0624 26.1277 14.2038 25.7865 14.2038 25.4308V22.7481C14.2038 22.3924 14.0624 22.0512 13.8109 21.7997C13.5594 21.5481 13.2182 21.4068 12.8624 21.4068Z" fill="#FF8412" stroke="#FF8412" stroke-width="2"/>
<path d="M53.6194 51.0932C56.1717 51.6956 58.8226 51.7511 61.3979 51.2562C63.9731 50.7612 66.4145 49.7269 68.5617 48.2213C70.7088 46.7157 72.5131 44.7728 73.8559 42.5203C75.1988 40.2678 76.0498 37.7567 76.3532 35.1519C76.6565 32.5471 76.4053 29.9076 75.616 27.4068C74.8267 24.906 73.5172 22.6005 71.7735 20.6418C70.0299 18.683 67.8915 17.1154 65.4989 16.0419C63.1063 14.9684 60.5136 14.4133 57.8912 14.413C57.7979 14.413 57.7043 14.413 57.6108 14.4172C54.133 14.4698 50.7397 15.4972 47.8167 17.3825C44.8938 19.2679 42.5585 21.9356 41.0765 25.0824C39.5944 28.2291 39.0251 31.7285 39.4332 35.1827C39.8413 38.637 41.2104 41.9074 43.3849 44.6221C45.9824 47.8567 49.5835 50.1336 53.6194 51.0932ZM46.5719 21.8271C49.4998 18.8459 53.4895 17.146 57.6677 17.0995C57.6831 17.0995 57.6984 17.0995 57.7135 17.0979C57.7572 17.0958 57.8007 17.0956 57.8444 17.0956H57.8912C60.5814 17.095 63.2278 17.7768 65.583 19.077C67.9381 20.3773 69.9249 22.2537 71.3577 24.5307C72.7905 26.8076 73.6223 29.4108 73.7755 32.0966C73.9287 34.7825 73.3981 37.4633 72.2335 39.8884C71.0688 42.3135 69.3081 44.4035 67.1161 45.9631C64.9241 47.5227 62.3723 48.5008 59.6994 48.8061C57.0266 49.1113 54.3199 48.7336 51.8327 47.7084C49.3455 46.6831 47.159 45.0438 45.4776 42.9437C43.0412 39.9012 41.8067 36.07 42.0084 32.1774C42.2101 28.2848 43.8341 24.6018 46.5719 21.8274V21.8271Z" fill="#FF8412" stroke="#FF8412" stroke-width="2"/>
<path d="M54.2595 39.044C54.5001 39.305 54.8344 39.4599 55.189 39.4748C55.5437 39.4898 55.8898 39.3635 56.1515 39.1237L67.3638 28.853C67.4937 28.7341 67.5989 28.5907 67.6734 28.431C67.7478 28.2714 67.7901 28.0986 67.7979 27.9227C67.8056 27.7467 67.7785 27.5709 67.7183 27.4053C67.6581 27.2398 67.5659 27.0877 67.4469 26.9579C67.3279 26.828 67.1845 26.7228 67.0248 26.6483C66.8652 26.5738 66.6925 26.5315 66.5165 26.5238C66.1611 26.5082 65.814 26.6345 65.5517 26.8748L55.3247 36.2426L50.3098 30.8047C50.1904 30.6752 50.0467 30.5705 49.8868 30.4966C49.7269 30.4227 49.554 30.381 49.378 30.3738C49.202 30.3667 49.0263 30.3944 48.861 30.4552C48.6957 30.5159 48.5439 30.6087 48.4145 30.7281C48.285 30.8475 48.1803 30.9913 48.1064 31.1512C48.0324 31.3111 47.9907 31.484 47.9836 31.66C47.9765 31.836 48.0042 32.0116 48.0649 32.177C48.1257 32.3423 48.2185 32.494 48.3379 32.6235L54.2595 39.044Z" fill="#FF8412" stroke="#FF8412" stroke-width="2"/>
</svg>
