<svg width="17" height="16" viewBox="0 0 17 16" fill="none" xmlns="http://www.w3.org/2000/svg">
<path d="M14.0577 8.82548C13.8805 8.82548 13.6953 8.76911 13.5182 8.72885C13.1594 8.6498 12.8069 8.54484 12.4633 8.41481C12.0898 8.27892 11.6792 8.28598 11.3105 8.43463C10.9419 8.58328 10.6412 8.86303 10.4664 9.22004L10.2892 9.58239C9.50496 9.1461 8.78428 8.60423 8.14736 7.97194C7.51508 7.33503 6.97321 6.61434 6.53692 5.83006L6.87511 5.60459C7.23212 5.42979 7.51187 5.12913 7.66052 4.76047C7.80917 4.39181 7.81623 3.9812 7.68033 3.60765C7.55248 3.26335 7.44757 2.91097 7.3663 2.55281C7.32604 2.37566 7.29383 2.19046 7.26967 2.00526C7.17189 1.43807 6.87481 0.924441 6.43193 0.556856C5.98906 0.18927 5.42949 -0.00811167 4.85401 0.000255499H2.43834C2.09132 -0.00300286 1.74767 0.0685491 1.43078 0.21004C1.11389 0.351531 0.831211 0.559639 0.601981 0.820198C0.372751 1.08076 0.202353 1.38765 0.102388 1.71998C0.00242266 2.05231 -0.0247633 2.40228 0.0226808 2.74606C0.451653 6.11944 1.99227 9.25376 4.40119 11.6539C6.81011 14.0541 9.95002 15.5833 13.3249 16H13.6309C14.2247 16.0009 14.798 15.783 15.2414 15.388C15.4961 15.1602 15.6996 14.8809 15.8384 14.5686C15.9772 14.2563 16.0482 13.918 16.0466 13.5763V11.1606C16.0367 10.6013 15.833 10.0627 15.4703 9.63687C15.1076 9.211 14.6083 8.92422 14.0577 8.82548ZM14.4603 13.6568C14.4601 13.7711 14.4357 13.8841 14.3885 13.9882C14.3412 14.0924 14.2724 14.1853 14.1865 14.2607C14.0968 14.3388 13.9916 14.3971 13.8779 14.4318C13.7641 14.4665 13.6443 14.4768 13.5262 14.462C10.5106 14.0754 7.70951 12.6958 5.56479 10.5408C3.42007 8.3859 2.05378 5.57829 1.68144 2.56086C1.66862 2.44291 1.67985 2.32358 1.71445 2.2101C1.74905 2.09661 1.8063 1.99132 1.88274 1.90058C1.9582 1.81469 2.05108 1.74585 2.15521 1.69864C2.25934 1.65144 2.37233 1.62695 2.48666 1.6268H4.90232C5.08957 1.62264 5.27242 1.68388 5.41939 1.79998C5.56636 1.91609 5.66825 2.0798 5.70754 2.26293C5.73975 2.48302 5.78001 2.70043 5.82832 2.91516C5.92134 3.33962 6.04514 3.75676 6.19873 4.16325L5.07142 4.68664C4.97503 4.73087 4.88833 4.79369 4.81629 4.87152C4.74425 4.94934 4.68829 5.04063 4.65163 5.14014C4.61497 5.23965 4.59833 5.34542 4.60265 5.45138C4.60698 5.55734 4.6322 5.6614 4.67686 5.75759C5.83573 8.23988 7.83111 10.2353 10.3134 11.3941C10.5094 11.4747 10.7293 11.4747 10.9254 11.3941C11.0258 11.3582 11.1181 11.3027 11.1969 11.2308C11.2757 11.1589 11.3394 11.0721 11.3843 10.9754L11.8836 9.84811C12.2999 9.99698 12.7247 10.1207 13.1558 10.2185C13.3706 10.2668 13.588 10.3071 13.8081 10.3393C13.9912 10.3786 14.1549 10.4805 14.271 10.6274C14.3871 10.7744 14.4484 10.9573 14.4442 11.1445L14.4603 13.6568Z" fill="#83828E"/>
</svg>
