<svg width="18" height="14" viewBox="0 0 18 14" fill="none" xmlns="http://www.w3.org/2000/svg">
<path d="M14.7273 13H3.27273C2.67018 12.9993 2.09251 12.747 1.66645 12.2985C1.24038 11.8501 1.00071 11.2421 1 10.6079V3.39212C1.00071 2.75792 1.24038 2.14991 1.66645 1.70146C2.09251 1.25301 2.67018 1.00074 3.27273 1H14.7273C15.3298 1.00074 15.9075 1.25301 16.3336 1.70146C16.7596 2.14991 16.9993 2.75792 17 3.39212V10.6079C16.9993 11.2421 16.7596 11.8501 16.3336 12.2985C15.9075 12.747 15.3298 12.9993 14.7273 13ZM3.27273 1.84428C2.8827 1.84428 2.50865 2.00735 2.23286 2.29763C1.95708 2.58791 1.80214 2.98161 1.80214 3.39212V10.6079C1.80214 11.0184 1.95708 11.4121 2.23286 11.7024C2.50865 11.9926 2.8827 12.1557 3.27273 12.1557H14.7273C15.1173 12.1557 15.4913 11.9926 15.7671 11.7024C16.0429 11.4121 16.1979 11.0184 16.1979 10.6079V3.39212C16.1979 2.98161 16.0429 2.58791 15.7671 2.29763C15.4913 2.00735 15.1173 1.84428 14.7273 1.84428H3.27273Z" fill="#83828E"/>
<path d="M9.00002 8.71108C8.50525 8.7119 8.02371 8.54295 7.62836 8.22984L1.38504 3.25986C1.34093 3.22727 1.30351 3.18567 1.27502 3.13752C1.24652 3.08937 1.22754 3.03568 1.2192 2.97964C1.21087 2.9236 1.21334 2.86636 1.22649 2.81136C1.23963 2.75635 1.26318 2.70469 1.29571 2.65947C1.32825 2.61425 1.36911 2.5764 1.41586 2.54817C1.4626 2.51994 1.51427 2.50192 1.56778 2.49518C1.62129 2.48844 1.67554 2.49312 1.7273 2.50894C1.77905 2.52476 1.82724 2.55139 1.869 2.58725L8.11232 7.56286C8.3687 7.7643 8.68007 7.87314 9.00002 7.87314C9.31996 7.87314 9.63133 7.7643 9.88772 7.56286L16.131 2.58725C16.1728 2.55139 16.221 2.52476 16.2727 2.50894C16.3245 2.49312 16.3787 2.48844 16.4323 2.49518C16.4858 2.50192 16.5374 2.51994 16.5842 2.54817C16.6309 2.5764 16.6718 2.61425 16.7043 2.65947C16.7369 2.70469 16.7604 2.75635 16.7735 2.81136C16.7867 2.86636 16.7892 2.9236 16.7808 2.97964C16.7725 3.03568 16.7535 3.08937 16.725 3.13752C16.6965 3.18567 16.6591 3.22727 16.615 3.25986L10.3717 8.22984C9.97632 8.54295 9.49478 8.7119 9.00002 8.71108Z" fill="#83828E"/>
<path d="M1.55885 11.8237C1.4775 11.8238 1.39805 11.7979 1.33102 11.7494C1.26399 11.7009 1.21256 11.632 1.18356 11.552C1.15455 11.4721 1.14934 11.3847 1.16861 11.3015C1.18788 11.2183 1.23073 11.1433 1.29147 11.0863L6.21126 6.46812C6.29068 6.39348 6.39502 6.35511 6.50132 6.36144C6.60763 6.36777 6.70719 6.4183 6.7781 6.50189C6.84901 6.58549 6.88547 6.69531 6.87946 6.8072C6.87344 6.91909 6.82544 7.02387 6.74602 7.09851L1.82623 11.7167C1.75317 11.7867 1.65762 11.8249 1.55885 11.8237ZM16.4412 11.8237C16.3424 11.8249 16.2469 11.7867 16.1738 11.7167L11.254 7.09851C11.1746 7.02387 11.1266 6.91909 11.1206 6.8072C11.1146 6.69531 11.151 6.58549 11.222 6.50189C11.2929 6.4183 11.3924 6.36777 11.4987 6.36144C11.605 6.35511 11.7094 6.39348 11.7888 6.46812L16.7059 11.0863C16.7666 11.1433 16.8095 11.2183 16.8288 11.3015C16.848 11.3847 16.8428 11.4721 16.8138 11.552C16.7848 11.632 16.7334 11.7009 16.6664 11.7494C16.5993 11.7979 16.5199 11.8238 16.4385 11.8237H16.4412Z" fill="#83828E"/>
<path d="M14.7273 13H3.27273C2.67018 12.9993 2.09251 12.747 1.66645 12.2985C1.24038 11.8501 1.00071 11.2421 1 10.6079V3.39212C1.00071 2.75792 1.24038 2.14991 1.66645 1.70146C2.09251 1.25301 2.67018 1.00074 3.27273 1H14.7273C15.3298 1.00074 15.9075 1.25301 16.3336 1.70146C16.7596 2.14991 16.9993 2.75792 17 3.39212V10.6079C16.9993 11.2421 16.7596 11.8501 16.3336 12.2985C15.9075 12.747 15.3298 12.9993 14.7273 13ZM3.27273 1.84428C2.8827 1.84428 2.50865 2.00735 2.23286 2.29763C1.95708 2.58791 1.80214 2.98161 1.80214 3.39212V10.6079C1.80214 11.0184 1.95708 11.4121 2.23286 11.7024C2.50865 11.9926 2.8827 12.1557 3.27273 12.1557H14.7273C15.1173 12.1557 15.4913 11.9926 15.7671 11.7024C16.0429 11.4121 16.1979 11.0184 16.1979 10.6079V3.39212C16.1979 2.98161 16.0429 2.58791 15.7671 2.29763C15.4913 2.00735 15.1173 1.84428 14.7273 1.84428H3.27273Z" stroke="#83828E" stroke-width="0.5"/>
<path d="M9.00002 8.71108C8.50525 8.7119 8.02371 8.54295 7.62836 8.22984L1.38504 3.25986C1.34093 3.22727 1.30351 3.18567 1.27502 3.13752C1.24652 3.08937 1.22754 3.03568 1.2192 2.97964C1.21087 2.9236 1.21334 2.86636 1.22649 2.81136C1.23963 2.75635 1.26318 2.70469 1.29571 2.65947C1.32825 2.61425 1.36911 2.5764 1.41586 2.54817C1.4626 2.51994 1.51427 2.50192 1.56778 2.49518C1.62129 2.48844 1.67554 2.49312 1.7273 2.50894C1.77905 2.52476 1.82724 2.55139 1.869 2.58725L8.11232 7.56286C8.3687 7.7643 8.68007 7.87314 9.00002 7.87314C9.31996 7.87314 9.63133 7.7643 9.88772 7.56286L16.131 2.58725C16.1728 2.55139 16.221 2.52476 16.2727 2.50894C16.3245 2.49312 16.3787 2.48844 16.4323 2.49518C16.4858 2.50192 16.5374 2.51994 16.5842 2.54817C16.6309 2.5764 16.6718 2.61425 16.7043 2.65947C16.7369 2.70469 16.7604 2.75635 16.7735 2.81136C16.7867 2.86636 16.7892 2.9236 16.7808 2.97964C16.7725 3.03568 16.7535 3.08937 16.725 3.13752C16.6965 3.18567 16.6591 3.22727 16.615 3.25986L10.3717 8.22984C9.97632 8.54295 9.49478 8.7119 9.00002 8.71108Z" stroke="#83828E" stroke-width="0.5"/>
<path d="M1.55885 11.8237C1.4775 11.8238 1.39805 11.7979 1.33102 11.7494C1.26399 11.7009 1.21256 11.632 1.18356 11.552C1.15455 11.4721 1.14934 11.3847 1.16861 11.3015C1.18788 11.2183 1.23073 11.1433 1.29147 11.0863L6.21126 6.46812C6.29068 6.39348 6.39502 6.35511 6.50132 6.36144C6.60763 6.36777 6.70719 6.4183 6.7781 6.50189C6.84901 6.58549 6.88547 6.69531 6.87946 6.8072C6.87344 6.91909 6.82544 7.02387 6.74602 7.09851L1.82623 11.7167C1.75317 11.7867 1.65762 11.8249 1.55885 11.8237ZM16.4412 11.8237C16.3424 11.8249 16.2469 11.7867 16.1738 11.7167L11.254 7.09851C11.1746 7.02387 11.1266 6.91909 11.1206 6.8072C11.1146 6.69531 11.151 6.58549 11.222 6.50189C11.2929 6.4183 11.3924 6.36777 11.4987 6.36144C11.605 6.35511 11.7094 6.39348 11.7888 6.46812L16.7059 11.0863C16.7666 11.1433 16.8095 11.2183 16.8288 11.3015C16.848 11.3847 16.8428 11.4721 16.8138 11.552C16.7848 11.632 16.7334 11.7009 16.6664 11.7494C16.5993 11.7979 16.5199 11.8238 16.4385 11.8237H16.4412Z" stroke="#83828E" stroke-width="0.5"/>
</svg>
