<svg width="17" height="20" viewBox="0 0 17 20" fill="none" xmlns="http://www.w3.org/2000/svg">
<path fill-rule="evenodd" clip-rule="evenodd" d="M5.36585 9.02439C5.36585 7.54265 6.56702 6.34146 8.04878 6.34146C9.53054 6.34146 10.7317 7.54265 10.7317 9.02439C10.7317 10.5061 9.53054 11.7073 8.04878 11.7073C6.56702 11.7073 5.36585 10.5061 5.36585 9.02439ZM8.04878 7.80488C7.37522 7.80488 6.82927 8.35083 6.82927 9.02439C6.82927 9.69795 7.37522 10.2439 8.04878 10.2439C8.72234 10.2439 9.26829 9.69795 9.26829 9.02439C9.26829 8.35083 8.72234 7.80488 8.04878 7.80488Z" fill="#83828E"/>
<path d="M5.36585 15.8803C5.36585 15.0362 5.9254 14.2945 6.73698 14.0626C7.59434 13.8176 8.50322 13.8176 9.36058 14.0626C10.1722 14.2945 10.7317 15.0362 10.7317 15.8803V16.3414C10.7317 16.7455 11.0593 17.0731 11.4634 17.0731C11.8675 17.0731 12.1951 16.7455 12.1951 16.3414V15.8803C12.1951 14.3829 11.2024 13.0669 9.76263 12.6554C8.64244 12.3354 7.45512 12.3354 6.33493 12.6554C4.89512 13.0669 3.90244 14.3829 3.90244 15.8803V16.3414C3.90244 16.7455 4.23004 17.0731 4.63415 17.0731C5.03825 17.0731 5.36585 16.7455 5.36585 16.3414V15.8803Z" fill="#83828E"/>
<path fill-rule="evenodd" clip-rule="evenodd" d="M7.28488 1.99388e-06C6.97005 -2.72744e-05 6.68107 -4.68008e-05 6.44156 0.0243142C6.18166 0.0507532 5.90014 0.111807 5.63683 0.287739C5.45041 0.412304 5.29035 0.572363 5.16579 0.758792C4.98985 1.02209 4.9288 1.30358 4.90236 1.56348C4.89021 1.68288 4.88413 1.81457 4.88108 1.95563C4.29362 1.96283 3.78348 1.98174 3.34265 2.03144C2.60678 2.11439 1.97408 2.29081 1.43137 2.70725C1.17771 2.90188 0.950664 3.12893 0.75603 3.38259C0.339591 3.9253 0.163171 4.558 0.0802054 5.29387C-1.89468e-05 6.00556 -9.24492e-06 6.8979 5.11175e-07 8.00462V13.4682C-1.9001e-05 14.8024 -3.85791e-05 15.8779 0.113678 16.7237C0.231747 17.6019 0.484322 18.3412 1.07156 18.9285C1.6588 19.5157 2.39819 19.7683 3.27634 19.8863C4.12217 20 5.1976 20 6.5318 20H9.56576C10.9 20 11.9754 20 12.8213 19.8863C13.6994 19.7683 14.4387 19.5157 15.026 18.9285C15.6133 18.3412 15.8659 17.6019 15.9839 16.7237C16.0976 15.8779 16.0976 14.8024 16.0976 13.4682V8.00468C16.0976 6.89797 16.0976 6.00556 16.0174 5.29387C15.9344 4.558 15.758 3.9253 15.3416 3.38259C15.1469 3.12893 14.9199 2.90188 14.6662 2.70725C14.1235 2.29081 13.4908 2.11439 12.7549 2.03144C12.314 1.98174 11.8039 1.96283 11.2165 1.95563C11.2135 1.81457 11.2073 1.68288 11.1952 1.56348C11.1688 1.30358 11.1077 1.02209 10.9318 0.758792C10.8072 0.572363 10.6471 0.412304 10.4607 0.287739C10.1975 0.111807 9.9159 0.0507532 9.656 0.0243142C9.41649 -4.68008e-05 9.12751 -2.72744e-05 8.81268 1.99388e-06H7.28488ZM11.1827 3.41885C11.7504 3.42546 12.207 3.44235 12.5909 3.48564C13.1963 3.55388 13.5299 3.67987 13.7753 3.86826C13.9275 3.98504 14.0637 4.12126 14.1805 4.27346C14.3689 4.51896 14.4949 4.85245 14.5631 5.45782C14.6331 6.07792 14.6341 6.88758 14.6341 8.04878V13.4146C14.6341 14.815 14.6326 15.7917 14.5336 16.5287C14.4373 17.2446 14.2613 17.6236 13.9912 17.8937C13.7212 18.1637 13.3421 18.3397 12.6262 18.436C11.8893 18.535 10.9126 18.5366 9.5122 18.5366H6.58537C5.18497 18.5366 4.20826 18.535 3.47134 18.436C2.75546 18.3397 2.37636 18.1637 2.10635 17.8937C1.83634 17.6236 1.66029 17.2446 1.56405 16.5287C1.46497 15.7917 1.46341 14.815 1.46341 13.4146V8.04878C1.46341 6.88758 1.46451 6.07792 1.53441 5.45782C1.60266 4.85245 1.72865 4.51896 1.91703 4.27346C2.03381 4.12126 2.17004 3.98504 2.32223 3.86826C2.56774 3.67987 2.90123 3.55388 3.5066 3.48564C3.89054 3.44235 4.34714 3.42546 4.91487 3.41885C4.94698 3.64869 5.01314 3.89083 5.16579 4.11927C5.29035 4.30569 5.45041 4.46576 5.63683 4.59032C5.90014 4.76625 6.18166 4.82731 6.44156 4.85375C6.68107 4.87811 6.97005 4.87808 7.28488 4.87806H8.81268C9.12751 4.87808 9.41649 4.87811 9.656 4.85375C9.9159 4.82731 10.1975 4.76625 10.4607 4.59032C10.6471 4.46576 10.8072 4.30569 10.9318 4.11927C11.0844 3.89083 11.1506 3.64869 11.1827 3.41885ZM6.58966 1.48022C6.49668 1.48967 6.45766 1.50208 6.44683 1.50644C6.42205 1.52343 6.40117 1.5446 6.3842 1.56937C6.3799 1.58026 6.36771 1.61861 6.35824 1.71158C6.34234 1.86799 6.34146 2.08125 6.34146 2.43903C6.34146 2.79681 6.34234 3.01007 6.35824 3.16648C6.36771 3.25946 6.3799 3.29781 6.3842 3.30869C6.40127 3.33347 6.42263 3.35489 6.44741 3.37188C6.45834 3.37623 6.49668 3.38838 6.58966 3.39785C6.74605 3.41376 6.95932 3.41464 7.31707 3.41464H8.78049C9.13824 3.41464 9.35151 3.41376 9.5079 3.39785C9.60088 3.38838 9.63922 3.37623 9.65015 3.37188C9.67493 3.35489 9.69639 3.33347 9.71337 3.30869C9.71766 3.29781 9.72985 3.25946 9.73932 3.16648C9.75522 3.01007 9.7561 2.79681 9.7561 2.43903C9.7561 2.08125 9.75522 1.86799 9.73932 1.71158C9.72985 1.61861 9.71766 1.58026 9.71337 1.56937C9.69639 1.5446 9.67493 1.52317 9.65015 1.50619C9.63922 1.50183 9.60088 1.48967 9.5079 1.48022C9.35151 1.4643 9.13824 1.46342 8.78049 1.46342H7.31707C6.95932 1.46342 6.74605 1.4643 6.58966 1.48022Z" fill="#83828E"/>
</svg>
