<svg width="34" height="34" viewBox="0 0 34 34" fill="none" xmlns="http://www.w3.org/2000/svg">
<path d="M26.9167 15.5833H10.115L15.2575 9.40665C15.498 9.11734 15.6136 8.74436 15.5791 8.36976C15.5446 7.99515 15.3626 7.64961 15.0733 7.40915C14.784 7.16869 14.411 7.053 14.0364 7.08754C13.6618 7.12208 13.3163 7.30401 13.0758 7.59332L5.99249 16.0933C5.94483 16.1609 5.90222 16.232 5.86499 16.3058C5.86499 16.3766 5.86499 16.4192 5.76582 16.49C5.70161 16.6524 5.66799 16.8253 5.66666 17C5.66799 17.1746 5.70161 17.3475 5.76582 17.51C5.76582 17.5808 5.76582 17.6233 5.86499 17.6941C5.90222 17.768 5.94483 17.839 5.99249 17.9067L13.0758 26.4066C13.209 26.5666 13.3758 26.6952 13.5644 26.7833C13.7529 26.8715 13.9585 26.917 14.1667 26.9166C14.4977 26.9173 14.8184 26.802 15.0733 26.5908C15.2168 26.4719 15.3354 26.3258 15.4223 26.161C15.5092 25.9962 15.5627 25.8158 15.5798 25.6303C15.5969 25.4447 15.5773 25.2576 15.522 25.0797C15.4666 24.9017 15.3768 24.7365 15.2575 24.5933L10.115 18.4166H26.9167C27.2924 18.4166 27.6527 18.2674 27.9184 18.0017C28.1841 17.736 28.3333 17.3757 28.3333 17C28.3333 16.6243 28.1841 16.2639 27.9184 15.9982C27.6527 15.7326 27.2924 15.5833 26.9167 15.5833Z" fill="#211F2B"/>
</svg>
