<svg width="20" height="19" viewBox="0 0 20 19" fill="none" xmlns="http://www.w3.org/2000/svg">
<path d="M17.5211 10.4803C17.3003 10.4803 17.0694 10.4133 16.8487 10.3655C16.4015 10.2716 15.9621 10.147 15.5339 9.99259C15.0683 9.83121 14.5566 9.8396 14.0971 10.0161C13.6376 10.1926 13.2629 10.5248 13.045 10.9488L12.8242 11.3791C11.8467 10.861 10.9485 10.2175 10.1546 9.46668C9.36656 8.71035 8.69119 7.85453 8.14742 6.92319L8.56893 6.65545C9.01389 6.44788 9.36256 6.09085 9.54784 5.65306C9.73312 5.21528 9.74191 4.72767 9.57253 4.28408C9.41318 3.87523 9.28243 3.45677 9.18113 3.03146C9.13095 2.82109 9.0908 2.60117 9.0607 2.38124C8.93882 1.70771 8.56855 1.09777 8.01657 0.661266C7.46458 0.224759 6.76716 -0.0096326 6.04989 0.000303405H3.03908C2.60656 -0.0035659 2.17824 0.081402 1.78328 0.249423C1.38832 0.417443 1.036 0.664572 0.750291 0.973985C0.464586 1.2834 0.252207 1.64783 0.127613 2.04247C0.00301953 2.43712 -0.0308643 2.8527 0.0282687 3.26095C0.562926 7.26683 2.48311 10.9888 5.48551 13.839C8.48792 16.6892 12.4014 18.5052 16.6078 19H16.9892C17.7292 19.001 18.4438 18.7423 18.9964 18.2733C19.3139 18.0027 19.5675 17.671 19.7405 17.3002C19.9135 16.9293 20.0019 16.5277 20 16.1218V13.2532C19.9877 12.589 19.7338 11.9495 19.2817 11.4438C18.8296 10.9381 18.2073 10.5975 17.5211 10.4803ZM18.0229 16.2175C18.0227 16.3532 17.9922 16.4874 17.9333 16.611C17.8745 16.7347 17.7887 16.845 17.6816 16.9346C17.5698 17.0274 17.4387 17.0966 17.2969 17.1378C17.1551 17.179 17.0058 17.1912 16.8587 17.1737C13.1001 16.7145 9.6089 15.0762 6.93578 12.5172C4.26267 9.95826 2.55977 6.62422 2.09569 3.04102C2.07972 2.90095 2.09372 2.75926 2.13684 2.62449C2.17996 2.48972 2.25132 2.36469 2.34659 2.25694C2.44064 2.15494 2.55641 2.07319 2.68619 2.01714C2.81597 1.96108 2.9568 1.932 3.09929 1.93183H6.1101C6.34349 1.92688 6.57138 1.9996 6.75456 2.13748C6.93774 2.27535 7.06474 2.46976 7.11371 2.68723C7.15385 2.94859 7.20403 3.20676 7.26425 3.46175C7.38018 3.9658 7.53448 4.46115 7.7259 4.94386L6.32086 5.56539C6.20073 5.6179 6.09266 5.69251 6.00288 5.78493C5.91309 5.87734 5.84335 5.98575 5.79765 6.10391C5.75196 6.22208 5.73121 6.34768 5.73661 6.47351C5.74201 6.59934 5.77343 6.72291 5.82909 6.83713C7.27348 9.78486 9.76045 12.1544 12.8543 13.5305C13.0987 13.6262 13.3727 13.6262 13.6171 13.5305C13.7422 13.4879 13.8572 13.422 13.9554 13.3366C14.0536 13.2512 14.1331 13.1482 14.1891 13.0333L14.8113 11.6946C15.3302 11.8714 15.8597 12.0183 16.397 12.1345C16.6647 12.1919 16.9356 12.2397 17.21 12.2779C17.4382 12.3246 17.6422 12.4456 17.787 12.6201C17.9317 12.7946 18.008 13.0117 18.0028 13.2341L18.0229 16.2175Z" fill="white"/>
</svg>
