<svg width="20" height="19" viewBox="0 0 20 19" fill="none" xmlns="http://www.w3.org/2000/svg">
<path d="M16.0014 19H3.99862C3.46807 19 2.95924 18.7948 2.58409 18.4296C2.20893 18.0644 1.99816 17.5691 1.99816 17.0526V9.26319H0.664525C0.530966 9.26274 0.400623 9.22326 0.290381 9.14987C0.180139 9.07647 0.0950788 8.97254 0.0462201 8.85153C-0.00263857 8.73053 -0.0130442 8.59803 0.0163512 8.47121C0.0457467 8.34438 0.113589 8.22907 0.211088 8.14021L8.66636 0.519533C9.03628 0.185569 9.52216 0 10.0267 0C10.5312 0 11.0171 0.185569 11.387 0.519533L19.7889 8.14021C19.8864 8.22907 19.9543 8.34438 19.9836 8.47121C20.013 8.59803 20.0026 8.73053 19.9538 8.85153C19.9049 8.97254 19.8199 9.07647 19.7096 9.14987C19.5994 9.22326 19.469 9.26274 19.3355 9.26319H18.0018V17.0526C18.0018 17.5691 17.7911 18.0644 17.4159 18.4296C17.0408 18.7948 16.5319 19 16.0014 19V19ZM2.36492 7.96495H2.66498C2.84184 7.96495 3.01144 8.03334 3.1365 8.15507C3.26155 8.2768 3.3318 8.44191 3.3318 8.61407V17.0526C3.3318 17.2248 3.40206 17.3899 3.52711 17.5116C3.65216 17.6334 3.82177 17.7018 3.99862 17.7018H16.0014C16.1782 17.7018 16.3478 17.6334 16.4729 17.5116C16.5979 17.3899 16.6682 17.2248 16.6682 17.0526V8.61407C16.6682 8.44191 16.7384 8.2768 16.8635 8.15507C16.9886 8.03334 17.1582 7.96495 17.335 7.96495H17.6351L10.4534 1.47374C10.3301 1.36242 10.1682 1.30056 10 1.30056C9.83183 1.30056 9.66987 1.36242 9.54656 1.47374L2.36492 7.96495Z" fill="white"/>
</svg>
