<svg width="24" height="22" viewBox="0 0 24 22" fill="none" xmlns="http://www.w3.org/2000/svg">
<path fill-rule="evenodd" clip-rule="evenodd" d="M22.0526 11.9009C21.8683 13.7963 21.1195 15.6025 19.894 17.1084C18.6684 18.6142 17.0168 19.7573 15.1323 20.404C13.2479 21.0506 11.2086 21.174 9.25297 20.7598C7.29737 20.3455 5.50641 19.4108 4.08964 18.0648C2.67287 16.7189 1.68889 15.0175 1.25284 13.1597C0.816794 11.3019 0.946708 9.3645 1.62738 7.57428C2.30806 5.78405 3.51135 4.215 5.09644 3.05074C6.68154 1.88648 8.58288 1.17516 10.578 1C9.40992 2.50126 8.84783 4.35094 8.99397 6.21263C9.14011 8.07432 9.98476 9.82434 11.3743 11.1444C12.7639 12.4645 14.606 13.2669 16.5657 13.4057C18.5253 13.5446 20.4724 13.0106 22.0526 11.9009V11.9009Z" stroke="white" stroke-width="2" stroke-linecap="round" stroke-linejoin="round"/>
</svg>
