<svg width="25" height="26" viewBox="0 0 25 26" fill="none" xmlns="http://www.w3.org/2000/svg">
<path d="M23.4375 11.6744H21.875C21.8203 11.6744 21.775 11.7009 21.7203 11.7056C21.4907 10.3017 20.9395 8.96943 20.1094 7.81203C20.1484 7.77935 20.1969 7.7669 20.2344 7.72955L21.3391 6.62934C21.95 6.02088 21.95 5.03738 21.3391 4.42891C20.7281 3.82045 19.7391 3.82045 19.1297 4.42891L18.0234 5.52757C17.9875 5.56336 17.9734 5.61316 17.9406 5.65207C16.779 4.82444 15.4411 4.27535 14.0313 4.04765C14.0359 3.99319 14.0625 3.94806 14.0625 3.89359V2.33742C14.0625 1.9247 13.8979 1.52888 13.6049 1.23704C13.3118 0.945203 12.9144 0.78125 12.5 0.78125C12.0856 0.78125 11.6882 0.945203 11.3951 1.23704C11.1021 1.52888 10.9375 1.9247 10.9375 2.33742V3.89359C10.9375 3.94806 10.9641 3.99319 10.9688 4.04765C9.55892 4.27535 8.22099 4.82444 7.05938 5.65207C7.02656 5.61316 7.0125 5.56492 6.97656 5.52757L5.87187 4.42736C5.72681 4.28277 5.55456 4.16806 5.36498 4.08978C5.1754 4.01149 4.97219 3.97116 4.76696 3.97109C4.56173 3.97101 4.35849 4.0112 4.16885 4.08935C3.97922 4.16751 3.80689 4.2821 3.66172 4.42658C3.51655 4.57106 3.40137 4.74261 3.32276 4.93142C3.24416 5.12024 3.20366 5.32262 3.20359 5.52702C3.20352 5.73142 3.24387 5.93384 3.32234 6.1227C3.40081 6.31157 3.51587 6.4832 3.66094 6.62778L4.76719 7.728C4.80312 7.76534 4.85 7.77935 4.89063 7.81203C4.0599 8.96908 3.5086 10.3015 3.27969 11.7056C3.225 11.7009 3.17969 11.6744 3.125 11.6744H1.5625C1.1481 11.6744 0.750671 11.8384 0.457646 12.1302C0.16462 12.4221 0 12.8179 0 13.2306C0 13.6433 0.16462 14.0392 0.457646 14.331C0.750671 14.6228 1.1481 14.7868 1.5625 14.7868H3.125C3.17969 14.7868 3.225 14.7619 3.27969 14.7557C3.50929 16.1595 4.06052 17.4918 4.89063 18.6492C4.85156 18.6819 4.80312 18.6943 4.76719 18.7317L3.66094 19.8319C3.51587 19.9765 3.40081 20.1481 3.32234 20.337C3.24387 20.5258 3.20352 20.7283 3.20359 20.9327C3.20366 21.1371 3.24416 21.3394 3.32276 21.5283C3.40137 21.7171 3.51655 21.8886 3.66172 22.0331C3.80689 22.1776 3.97922 22.2922 4.16885 22.3703C4.35849 22.4485 4.56173 22.4887 4.76696 22.4886C4.97219 22.4885 5.1754 22.4482 5.36498 22.3699C5.55456 22.2916 5.72681 22.1769 5.87187 22.0323L6.97656 20.9321C7.0125 20.8963 7.02656 20.8465 7.05938 20.8076C8.22124 21.6351 9.55901 22.1846 10.9688 22.4136C10.9641 22.468 10.9375 22.5132 10.9375 22.5676V24.1238C10.9375 24.9844 11.6359 25.68 12.5 25.68C13.3641 25.68 14.0625 24.9844 14.0625 24.1238V22.5676C14.0625 22.5132 14.0359 22.468 14.0313 22.4136C15.4409 22.1844 16.7786 21.6348 17.9406 20.8076C17.9734 20.8465 17.9859 20.8963 18.0234 20.9321L19.1297 22.0323C19.2747 22.177 19.4469 22.2917 19.6364 22.37C19.826 22.4483 20.0292 22.4886 20.2344 22.4886C20.4396 22.4886 20.6428 22.4483 20.8323 22.37C21.0219 22.2917 21.1941 22.177 21.3391 22.0323C21.4843 21.8879 21.5995 21.7164 21.6781 21.5276C21.7567 21.3389 21.7972 21.1365 21.7972 20.9321C21.7972 20.7277 21.7567 20.5254 21.6781 20.3366C21.5995 20.1478 21.4843 19.9763 21.3391 19.8319L20.2344 18.7317C20.1969 18.6959 20.1484 18.6834 20.1094 18.6492C20.9395 17.4918 21.4907 16.1595 21.7203 14.7557C21.775 14.7619 21.8203 14.7868 21.875 14.7868H23.4375C23.8519 14.7868 24.2493 14.6228 24.5424 14.331C24.8354 14.0392 25 13.6433 25 13.2306C25 12.8179 24.8354 12.4221 24.5424 12.1302C24.2493 11.8384 23.8519 11.6744 23.4375 11.6744ZM12.5 19.4553C9.04844 19.4553 6.25 16.6682 6.25 13.2306C6.25 9.79304 9.04844 7.00593 12.5 7.00593C15.9516 7.00593 18.75 9.79304 18.75 13.2306C18.75 16.6682 15.9516 19.4553 12.5 19.4553Z" fill="#211F2B"/>
</svg>
