<svg width="20" height="20" viewBox="0 0 20 20" fill="none" xmlns="http://www.w3.org/2000/svg">
<path d="M14.5818 12.01C14.382 11.9101 13.0836 11.3109 12.8839 11.211C12.6841 11.1111 12.4844 11.1111 12.2846 11.3109C12.0849 11.5106 11.6854 12.1099 11.4856 12.3096C11.3858 12.5094 11.186 12.5094 10.9863 12.4095C10.2871 12.1099 9.58801 11.7104 8.98876 11.211C8.48939 10.7116 7.99001 10.1124 7.59051 9.51311C7.49064 9.31336 7.59051 9.11361 7.69039 9.01373C7.79026 8.91386 7.89014 8.71411 8.08989 8.61423C8.18976 8.51436 8.28964 8.31461 8.28964 8.21473C8.38951 8.11486 8.38951 7.91511 8.28964 7.81523C8.18976 7.71536 7.69039 6.51685 7.49064 6.01748C7.39076 5.31835 7.19101 5.31835 6.99126 5.31835H6.49189C6.29213 5.31835 5.99251 5.5181 5.89263 5.61798C5.29338 6.21723 4.99376 6.91635 4.99376 7.71536C5.09363 8.61423 5.39326 9.51311 5.99251 10.3121C7.09114 11.9101 8.48939 13.2085 10.1873 14.0075C10.6866 14.2072 11.0861 14.407 11.5855 14.5069C12.0849 14.7066 12.5843 14.7066 13.1835 14.6067C13.8826 14.5069 14.4819 14.0075 14.8814 13.4082C15.0811 13.0087 15.0811 12.6092 14.9813 12.2097L14.5818 12.01ZM17.0787 2.92135C13.1835 -0.973783 6.89139 -0.973783 2.99625 2.92135C-0.19975 6.11735 -0.799001 11.0112 1.39825 14.9064L0 20L5.29338 18.6017C6.79151 19.4007 8.38951 19.8002 9.98752 19.8002C15.4806 19.8002 19.8752 15.4057 19.8752 9.91261C19.975 7.31585 18.8764 4.81898 17.0787 2.92135ZM14.382 16.9039C13.0836 17.7029 11.5855 18.2022 9.98752 18.2022C8.48939 18.2022 7.09114 17.8027 5.79276 17.1036L5.49313 16.9039L2.397 17.7029L3.196 14.7066L2.99625 14.407C0.599251 10.412 1.79775 5.41823 5.69288 2.92135C9.58802 0.424469 14.5818 1.72285 16.9788 5.5181C19.3758 9.41323 18.2772 14.5069 14.382 16.9039Z" fill="white"/>
</svg>
