<svg width="15" height="15" viewBox="0 0 15 15" fill="none" xmlns="http://www.w3.org/2000/svg">
<path d="M11.9031 4.62561C12.1394 4.38936 12.2694 4.07561 12.2694 3.74186C12.2694 3.40811 12.1394 3.09436 11.9031 2.85811L10.9119 1.86686C10.6756 1.63061 10.3619 1.50061 10.0281 1.50061C9.69438 1.50061 9.38062 1.63061 9.145 1.86624L2.5 8.49061V11.25H5.25813L11.9031 4.62561ZM10.0281 2.75061L11.02 3.74124L10.0262 4.73124L9.035 3.74061L10.0281 2.75061ZM3.75 9.99999V9.00936L8.15 4.62311L9.14125 5.61436L4.74187 9.99999H3.75ZM2.5 12.5H12.5V13.75H2.5V12.5Z" fill="#211F2B"/>
</svg>
