<svg width="23" height="21" viewBox="0 0 23 21" fill="none" xmlns="http://www.w3.org/2000/svg">
<path d="M17.112 2.61918H18.8419C19.9861 2.61918 21.0259 3.08511 21.7791 3.83521C22.5322 4.58532 23 5.62127 23 6.76059V16.0795C23 17.2191 22.5323 18.2547 21.7792 19.0048C21.0261 19.755 19.9861 20.221 18.8419 20.221H4.1581C3.01391 20.221 1.97412 19.755 1.22101 19.0048C0.467794 18.2547 0 17.2191 0 16.0795V6.76059C0 5.62096 0.467794 4.58521 1.22101 3.83511C1.97412 3.0849 3.01391 2.61918 4.1581 2.61918H5.88814C6.05163 2.09159 6.37105 1.62744 6.76392 1.25223C7.43193 0.61385 8.34895 0.220978 9.05893 0.220978H13.941C14.6509 0.220978 15.5681 0.61385 16.236 1.25223C16.6287 1.62744 16.9482 2.09159 17.1119 2.61918H17.112ZM11.5 6.37252C12.8991 6.37252 14.1664 6.93764 15.0834 7.85099C16.0005 8.76446 16.5679 10.0266 16.5679 11.4202C16.5679 12.8137 16.0005 14.0758 15.0834 14.9893C14.1662 15.9026 12.8993 16.4677 11.5 16.4677C10.1007 16.4677 8.83384 15.9026 7.91662 14.9893C6.9996 14.0757 6.43223 12.8138 6.43223 11.4202C6.43223 10.0265 6.9996 8.76456 7.91662 7.85099C8.83363 6.93764 10.1009 6.37252 11.5 6.37252ZM13.9811 8.94903C13.3463 8.31682 12.4691 7.92583 11.5 7.92583C10.531 7.92583 9.65369 8.31682 9.01895 8.94903C8.38441 9.58124 7.99165 10.4551 7.99165 11.4202C7.99165 12.3852 8.38441 13.2591 9.01895 13.8912C9.65369 14.5233 10.531 14.9145 11.5 14.9145C12.4689 14.9145 13.3463 14.5233 13.9811 13.8912C14.6158 13.2591 15.0084 12.3853 15.0084 11.4202C15.0084 10.455 14.6158 9.58124 13.9811 8.94903ZM18.8419 4.17238H16.4508C16.0202 4.17238 15.6711 3.82466 15.6711 3.39583C15.6711 3.01247 15.4551 2.65221 15.1579 2.36845C14.7731 2.00066 14.2885 1.77428 13.9411 1.77428H9.05903C8.7116 1.77428 8.22701 2.00066 7.84222 2.36845C7.54505 2.65231 7.32899 3.01247 7.32899 3.39583C7.32899 3.82466 6.97988 4.17238 6.54933 4.17238H4.15821C3.44424 4.17238 2.79459 4.46387 2.32344 4.93314C1.85229 5.40252 1.55952 6.04957 1.55952 6.76069V16.0796C1.55952 16.7905 1.85229 17.4377 2.32344 17.907C2.7947 18.3763 3.44434 18.6679 4.15821 18.6679H18.842C19.556 18.6679 20.2058 18.3763 20.6769 17.907C21.1481 17.4376 21.4407 16.7907 21.4407 16.0796V6.76069C21.4407 6.04978 21.148 5.40252 20.6768 4.93335C20.2055 4.46398 19.5559 4.17238 18.842 4.17238H18.8419Z" fill="white"/>
</svg>
